<?xml version="1.0" encoding="UTF-8"?>
<svg id="Calque_2" data-name="Calque 2" xmlns="http://www.w3.org/2000/svg" viewBox="0 0 193.97 26.06">
  <defs>
    <style>
      .cls-1 {
        fill: #2e7b83;
        stroke-width: 0px;
      }
    </style>
  </defs>
  <g id="OBJECTS">
    <g>
      <path class="cls-1" d="M10.8.25h5.11l10.8,25.38h-5.8l-2.3-5.65H7.96l-2.3,5.65H0L10.8.25ZM16.63,15.08l-3.35-8.17-3.35,8.17h6.7Z"/>
      <path class="cls-1" d="M30.6.43h11.68c2.9,0,5.09.74,6.58,2.23,1.15,1.15,1.72,2.58,1.72,4.28v.07c0,.72-.09,1.36-.27,1.91-.18.55-.42,1.05-.71,1.49-.3.44-.64.83-1.04,1.17-.39.34-.82.62-1.27.86,1.46.55,2.6,1.3,3.44,2.25s1.25,2.26,1.25,3.94v.07c0,1.15-.22,2.16-.67,3.02-.44.86-1.08,1.58-1.91,2.16s-1.82,1.01-2.98,1.3-2.45.43-3.86.43h-11.97V.43ZM41.11,10.62c1.22,0,2.2-.21,2.92-.63.72-.42,1.08-1.1,1.08-2.03v-.07c0-.84-.31-1.48-.94-1.93-.62-.44-1.52-.67-2.7-.67h-5.47v5.33h5.11ZM42.59,20.77c1.22,0,2.18-.22,2.88-.67.7-.44,1.04-1.13,1.04-2.07v-.07c0-.84-.32-1.51-.97-2-.65-.49-1.69-.74-3.13-.74h-6.41v5.54h6.59Z"/>
      <path class="cls-1" d="M68.83,26.06c-1.94,0-3.73-.34-5.36-1.03-1.63-.68-3.04-1.61-4.23-2.77-1.19-1.16-2.11-2.53-2.77-4.1-.66-1.57-.99-3.26-.99-5.06v-.07c0-1.8.34-3.49,1.01-5.06.67-1.57,1.6-2.95,2.79-4.14,1.19-1.19,2.6-2.12,4.25-2.81,1.64-.68,3.44-1.03,5.38-1.03s3.73.34,5.36,1.03c1.63.68,3.04,1.61,4.23,2.77,1.19,1.16,2.11,2.53,2.77,4.1.66,1.57.99,3.26.99,5.06v.07c0,1.8-.34,3.49-1.01,5.06-.67,1.57-1.6,2.95-2.79,4.14-1.19,1.19-2.6,2.12-4.25,2.81-1.64.68-3.44,1.03-5.38,1.03ZM68.9,20.95c1.1,0,2.12-.2,3.06-.61.94-.41,1.73-.97,2.39-1.69.66-.72,1.18-1.55,1.55-2.5.37-.95.56-1.96.56-3.04v-.07c0-1.08-.19-2.1-.56-3.06-.37-.96-.9-1.8-1.58-2.52-.68-.72-1.49-1.29-2.43-1.71-.94-.42-1.96-.63-3.06-.63s-2.15.2-3.08.61c-.92.41-1.72.97-2.38,1.69-.66.72-1.18,1.55-1.55,2.5-.37.95-.56,1.96-.56,3.04v.07c0,1.08.19,2.1.56,3.06.37.96.9,1.8,1.58,2.52.68.72,1.49,1.29,2.41,1.71.92.42,1.95.63,3.08.63Z"/>
      <path class="cls-1" d="M97.7,26.03c-3.38,0-6.05-.94-7.99-2.81s-2.92-4.67-2.92-8.39V.43h5.54v14.26c0,2.06.48,3.62,1.44,4.66.96,1.04,2.29,1.57,4,1.57s3.04-.5,4-1.51,1.44-2.52,1.44-4.54V.43h5.54v14.22c0,1.92-.26,3.59-.77,5-.52,1.42-1.25,2.6-2.21,3.55-.96.95-2.12,1.66-3.49,2.12-1.37.47-2.89.7-4.57.7Z"/>
      <path class="cls-1" d="M120.27,5.54h-7.67V.43h20.88v5.11h-7.67v20.09h-5.54V5.54Z"/>
      <path class="cls-1" d="M159.05,26.03c-3.38,0-6.05-.94-7.99-2.81s-2.92-4.67-2.92-8.39V.43h5.54v14.26c0,2.06.48,3.62,1.44,4.66.96,1.04,2.29,1.57,4,1.57s3.04-.5,4-1.51,1.44-2.52,1.44-4.54V.43h5.54v14.22c0,1.92-.26,3.59-.77,5-.52,1.42-1.25,2.6-2.21,3.55-.96.95-2.12,1.66-3.49,2.12-1.37.47-2.89.7-4.57.7Z"/>
      <path class="cls-1" d="M184.75,25.99c-1.92,0-3.8-.33-5.65-.99-1.85-.66-3.53-1.67-5.04-3.04l3.28-3.92c1.15.94,2.33,1.68,3.55,2.23,1.21.55,2.54.83,3.98.83,1.15,0,2.05-.21,2.68-.63.63-.42.95-1,.95-1.75v-.07c0-.36-.07-.68-.2-.95-.13-.28-.38-.53-.76-.77-.37-.24-.89-.48-1.55-.72-.66-.24-1.52-.49-2.58-.76-1.28-.31-2.43-.66-3.47-1.04-1.04-.38-1.91-.86-2.63-1.42-.72-.56-1.28-1.27-1.68-2.11-.4-.84-.6-1.88-.6-3.13v-.07c0-1.15.21-2.19.64-3.11.43-.92,1.03-1.72,1.81-2.39.78-.67,1.7-1.19,2.78-1.55,1.08-.36,2.26-.54,3.56-.54,1.85,0,3.55.28,5.09.83,1.55.55,2.97,1.34,4.27,2.38l-2.88,4.18c-1.13-.77-2.23-1.37-3.31-1.82-1.08-.44-2.16-.67-3.24-.67s-1.89.21-2.43.63c-.54.42-.81.94-.81,1.57v.07c0,.41.08.76.23,1.06.16.3.44.57.85.81.41.24.97.47,1.68.68.71.22,1.61.47,2.69.76,1.28.34,2.41.71,3.41,1.13,1,.42,1.84.92,2.53,1.51.69.59,1.2,1.28,1.55,2.07.35.79.52,1.74.52,2.84v.07c0,1.25-.23,2.36-.68,3.33s-1.08,1.79-1.9,2.45c-.81.66-1.78,1.16-2.9,1.51-1.12.35-2.37.52-3.74.52Z"/>
    </g>
  </g>
</svg>