<?xml version="1.0" encoding="UTF-8"?>
<svg id="Calque_2" data-name="Calque 2" xmlns="http://www.w3.org/2000/svg" xmlns:xlink="http://www.w3.org/1999/xlink" viewBox="0 0 76.57 176.14">
  <defs>
    <style>
      .cls-1 {
        fill: #fefefe;
      }

      .cls-1, .cls-2, .cls-3, .cls-4, .cls-5 {
        stroke-width: 0px;
      }

      .cls-2 {
        fill: #21468a;
      }

      .cls-3 {
        fill: #fff;
      }

      .cls-6, .cls-4 {
        fill: #32544f;
      }

      .cls-7 {
        clip-path: url(#clippath);
      }

      .cls-5 {
        fill: #ad1c28;
      }
    </style>
    <clipPath id="clippath">
      <circle class="cls-4" cx="38.29" cy="87.7" r="38.29" transform="translate(-53.51 60.66) rotate(-50)"/>
    </clipPath>
  </defs>
  <g id="OBJECTS">
    <g>
      <g>
        <g>
          <circle class="cls-6" cx="38.29" cy="87.7" r="38.29" transform="translate(-53.51 60.66) rotate(-50)"/>
          <g class="cls-7">
            <g>
              <path class="cls-5" d="M-25.63,71.12c0-10.73.03-21.47-.04-32.2,0-1.39.31-1.7,1.7-1.7,49.79.04,99.58.04,149.38,0,1.39,0,1.71.31,1.7,1.7-.07,10.73-.04,21.47-.04,32.2H-25.63Z"/>
              <path class="cls-1" d="M-25.63,71.12H127.08v33.87H-25.63v-33.87Z"/>
              <path class="cls-2" d="M-25.63,104.98H127.08c0,10.73-.03,21.47.04,32.2,0,1.39-.31,1.7-1.7,1.7-49.79-.04-99.58-.04-149.38,0-1.39,0-1.71-.31-1.7-1.7.07-10.73.04-21.47.04-32.2Z"/>
            </g>
          </g>
        </g>
        <g>
          <path class="cls-3" d="M28.52,43.16h19.52c1.46,0,2.65,1.19,2.65,2.65v5.5c0,1.46-1.19,2.65-2.65,2.65h-19.52c-1.46,0-2.65-1.19-2.65-2.65v-5.5c0-1.46,1.19-2.65,2.65-2.65Z" transform="translate(-.47 .38) rotate(-.56)"/>
          <path class="cls-3" d="M38.28,45.58c-.24,0-.48-.09-.72-.29-3.09-2.62-5.49-25.22-5.58-26.81h0c-.2-3.63-.31-8.96,1.11-13.3.78-2.4,2.17-4.29,3.62-4.94,1.17-.51,2.28-.22,3.2.85,1.99,2.3,2.36,7.03,2.46,10.38.17,5.44.02,10.94-.44,16.36-.04.45-.08,1.04-.13,1.74-.5,6.77-1.12,13.53-2.61,15.44-.29.37-.6.56-.92.56ZM37.78,2.8c-.26,0-.51.08-.71.17-1.07.47-2.1,1.87-2.68,3.66-1.18,3.62-1.08,8.33-.9,11.56h0c.27,4.83,2.9,23.02,4.7,24.55,1.2-1.38,1.86-10.21,2.11-13.54.05-.72.1-1.34.14-1.8.45-5.22.59-10.53.43-15.76-.14-4.35-.69-6.95-1.75-8.17-.44-.51-.91-.67-1.33-.67Z"/>
        </g>
      </g>
      <g>
        <path class="cls-3" d="M20.68,176.14v-24.26h3.42l7.78,12.27c1.8,2.84,3.2,5.4,4.36,7.88l.07-.04c-.29-3.24-.36-6.19-.36-9.97v-10.15h2.95v24.26h-3.17l-7.7-12.31c-1.69-2.7-3.31-5.47-4.54-8.1l-.11.04c.18,3.06.25,5.97.25,10.01v10.37h-2.95Z"/>
        <path class="cls-3" d="M44.37,151.88h3.13v21.63h10.37v2.63h-13.5v-24.26Z"/>
      </g>
    </g>
  </g>
</svg>