<?xml version="1.0" encoding="UTF-8"?>
<svg id="Calque_2" data-name="Calque 2" xmlns="http://www.w3.org/2000/svg" xmlns:xlink="http://www.w3.org/1999/xlink" viewBox="0 0 76.57 176.14">
  <defs>
    <style>
      .cls-1 {
        fill: #fff;
      }

      .cls-1, .cls-2, .cls-3, .cls-4, .cls-5 {
        stroke-width: 0px;
      }

      .cls-6, .cls-2 {
        fill: #32544f;
      }

      .cls-7 {
        clip-path: url(#clippath);
      }

      .cls-3 {
        fill: #e13721;
      }

      .cls-4 {
        fill: #2e4d92;
      }

      .cls-5 {
        fill: #fdfdfd;
      }
    </style>
    <clipPath id="clippath">
      <circle class="cls-2" cx="38.29" cy="87.7" r="38.29" transform="translate(-53.51 60.66) rotate(-50)"/>
    </clipPath>
  </defs>
  <g id="OBJECTS">
    <g>
      <g>
        <g>
          <circle class="cls-6" cx="38.29" cy="87.7" r="38.29" transform="translate(-53.51 60.66) rotate(-50)"/>
          <g class="cls-7">
            <g>
              <path class="cls-5" d="M45.92,126.71h-15.69v-23.79c-11.45,7.72-22.55,15.2-33.65,22.68-.42.28-.87.49-.7,1.12-4.88,0-9.76-.03-14.63.03-.91.01-1.11-.17-1.09-1.09.08-2.9.03-5.8.03-8.69.82.2,1.3-.41,1.86-.79,7.68-5.16,15.36-10.33,23.03-15.5,2.31-1.56,4.61-3.13,7.01-4.76-.84-.62-1.57-.38-2.24-.39-7.63-.02-15.27,0-22.9-.03-2.25-.01-4.51.22-6.75-.16v-15.27c.77-.06,1.53-.17,2.3-.17,7.49-.01,14.97,0,22.46,0,2.21,0,4.43,0,7.06,0-.62-.51-.86-.75-1.13-.93-5.23-3.53-10.46-7.07-15.71-10.58-4.98-3.33-9.98-6.63-14.98-9.94,0-3.25,0-6.5,0-9.75,5.09,0,10.18,0,15.27,0-.12.67.29.99.79,1.32,10.02,6.7,20.03,13.42,30.04,20.13,1.24.83,2.51,1.64,3.95,2.58v-24.04h15.69c.38,7.25.06,14.5.18,21.75.01.73-.26,1.52.27,2.28.27-.15.52-.26.74-.41,9.87-6.66,19.75-13.3,29.59-20,1.66-1.13,3.6-1.93,4.84-3.63,4.56,0,9.11.03,13.67-.02.93-.01,1.25.1,1.21,1.16-.1,2.87-.04,5.75-.04,8.62-.6.36-1.21.7-1.79,1.09-6.96,4.68-13.91,9.37-20.86,14.05-2.95,1.99-5.89,3.98-9.34,6.31,8.76,0,16.9-.02,25.04.01,2.32.01,4.64-.23,6.95.16v15.27c-.77.06-1.53.17-2.3.17-9.11.01-18.22,0-27.34.02-.67,0-1.4-.24-2.14.3.23.21.39.41.6.55,9.88,6.68,19.77,13.36,29.65,20.03.45.31.89.72,1.52.57,0,2.9-.05,5.8.03,8.69.02.91-.18,1.1-1.09,1.09-4.74-.06-9.47-.03-14.21-.03-.28-.71-.93-1.02-1.51-1.41-10.73-7.24-21.46-14.47-32.19-21.69-.37-.25-.7-.77-1.33-.33,0,2.37.03,4.77,0,7.16-.08,5.42.22,10.85-.16,16.27ZM69.75,82.5c-7.92,0-15.84-.07-23.75.05-1.97.03-2.62-.35-2.6-2.49.13-9.75.03-19.51.09-29.26,0-1.44-.29-2.01-1.84-1.91-2.11.14-4.25.15-6.36,0-1.71-.12-2.26.31-2.24,2.15.1,9.89.02,19.79.08,29.69,0,1.36-.31,1.84-1.75,1.81-4.03-.1-8.06-.03-12.09-.03-12.3,0-24.6.03-36.9-.04-1.55,0-2.13.32-2.01,1.96.15,1.97.17,3.97,0,5.93-.18,1.98.34,2.6,2.47,2.58,15.9-.1,31.81-.02,47.71-.1,1.97-.01,2.62.36,2.59,2.49-.13,9.75-.03,19.51-.09,29.26,0,1.44.29,2.01,1.84,1.9,2.11-.14,4.25-.15,6.36,0,1.71.12,2.26-.31,2.24-2.15-.1-9.82-.01-19.65-.08-29.47-.01-1.55.32-2.08,1.97-2.03,4.24.12,8.48.04,12.72.04,12.02,0,24.03-.03,36.05.03,1.54,0,2.13-.31,2.01-1.96-.16-2.18-.16-4.39,0-6.57.13-1.7-.55-1.94-2.04-1.93-8.13.07-16.26.03-24.39.03Z"/>
              <path class="cls-4" d="M81.54,48.68c-1.24,1.71-3.18,2.5-4.84,3.63-9.84,6.7-19.72,13.34-29.59,20-.22.15-.47.26-.74.41-.53-.76-.26-1.55-.27-2.28-.13-7.25.2-14.51-.18-21.75h35.63Z"/>
              <path class="cls-4" d="M45.92,126.71c.38-5.42.08-10.85.16-16.27.04-2.4,0-4.79,0-7.16.62-.44.96.08,1.33.33,10.74,7.22,21.47,14.46,32.19,21.69.58.39,1.23.71,1.51,1.41h-35.2Z"/>
              <path class="cls-4" d="M30.22,48.68v24.04c-1.44-.94-2.71-1.75-3.95-2.58-10.01-6.71-20.02-13.43-30.04-20.13-.49-.33-.91-.65-.79-1.32H30.22Z"/>
              <path class="cls-4" d="M-4.13,126.71c-.17-.63.29-.84.7-1.12,11.11-7.48,22.21-14.96,33.65-22.68v23.79H-4.13Z"/>
              <path class="cls-4" d="M-19.83,95.33c2.24.38,4.5.15,6.75.16,7.63.04,15.27,0,22.9.03.67,0,1.4-.24,2.24.39-2.4,1.63-4.7,3.2-7.01,4.76-7.67,5.17-15.35,10.34-23.03,15.5-.57.38-1.04.99-1.86.79v-21.63Z"/>
              <path class="cls-4" d="M96.39,116.96c-.63.16-1.07-.26-1.52-.57-9.89-6.67-19.77-13.35-29.65-20.03-.21-.14-.37-.34-.6-.55.74-.54,1.47-.3,2.14-.3,9.11-.02,18.22,0,27.34-.02.77,0,1.53-.11,2.3-.17v21.63Z"/>
              <path class="cls-4" d="M-19.83,58.43c4.99,3.31,10,6.61,14.98,9.94,5.25,3.51,10.48,7.05,15.71,10.58.28.19.52.42,1.13.93-2.64,0-4.85,0-7.06,0-7.49,0-14.97,0-22.46,0-.77,0-1.53.11-2.3.17,0-7.21,0-14.42,0-21.63Z"/>
              <path class="cls-4" d="M96.39,80.06c-2.31-.39-4.63-.15-6.95-.16-8.14-.04-16.28-.01-25.04-.01,3.45-2.33,6.39-4.32,9.34-6.31,6.95-4.69,13.9-9.37,20.86-14.05.58-.39,1.2-.73,1.79-1.09v21.63Z"/>
              <path class="cls-3" d="M69.75,82.5c8.13,0,16.26.04,24.39-.03,1.49-.01,2.17.23,2.04,1.93-.16,2.18-.16,4.39,0,6.57.12,1.65-.48,1.97-2.01,1.96-12.02-.06-24.03-.03-36.05-.03-4.24,0-8.49.08-12.72-.04-1.64-.05-1.98.48-1.97,2.03.07,9.82-.02,19.65.08,29.47.02,1.84-.53,2.27-2.24,2.15-2.11-.15-4.25-.14-6.36,0-1.55.1-1.85-.47-1.84-1.9.06-9.75-.04-19.51.09-29.26.03-2.13-.62-2.5-2.59-2.49-15.9.08-31.81,0-47.71.1-2.13.01-2.65-.61-2.47-2.58.18-1.96.16-3.96,0-5.93-.13-1.64.46-1.97,2.01-1.96,12.3.06,24.6.04,36.9.04,4.03,0,8.06-.06,12.09.03,1.44.03,1.76-.45,1.75-1.81-.05-9.9.03-19.79-.08-29.69-.02-1.84.53-2.27,2.24-2.15,2.11.15,4.25.14,6.36,0,1.55-.1,1.85.47,1.84,1.91-.06,9.75.04,19.51-.09,29.26-.03,2.14.62,2.52,2.6,2.49,7.92-.12,15.83-.05,23.75-.05Z"/>
            </g>
          </g>
        </g>
        <g>
          <path class="cls-1" d="M28.52,43.16h19.52c1.46,0,2.65,1.19,2.65,2.65v5.5c0,1.46-1.19,2.65-2.65,2.65h-19.52c-1.46,0-2.65-1.19-2.65-2.65v-5.5c0-1.46,1.19-2.65,2.65-2.65Z" transform="translate(-.47 .38) rotate(-.56)"/>
          <path class="cls-1" d="M38.28,45.58c-.24,0-.48-.09-.72-.29-3.09-2.62-5.49-25.22-5.58-26.81h0c-.2-3.63-.31-8.96,1.11-13.3.78-2.4,2.17-4.29,3.62-4.94,1.17-.51,2.28-.22,3.2.85,1.99,2.3,2.36,7.03,2.46,10.38.17,5.44.02,10.94-.44,16.36-.04.45-.08,1.04-.13,1.74-.5,6.77-1.12,13.53-2.61,15.44-.29.37-.6.56-.92.56ZM37.78,2.8c-.26,0-.51.08-.71.17-1.07.47-2.1,1.87-2.68,3.66-1.18,3.62-1.08,8.33-.9,11.56h0c.27,4.83,2.9,23.02,4.7,24.55,1.2-1.38,1.86-10.21,2.11-13.54.05-.72.1-1.34.14-1.8.45-5.22.59-10.53.43-15.76-.14-4.35-.69-6.95-1.75-8.17-.44-.51-.91-.67-1.33-.67Z"/>
        </g>
      </g>
      <g>
        <path class="cls-1" d="M32.88,164.77h-9.43v8.75h10.51v2.63h-13.64v-24.26h13.1v2.63h-9.97v7.67h9.43v2.59Z"/>
        <path class="cls-1" d="M38.03,176.14v-24.26h3.42l7.78,12.27c1.8,2.84,3.2,5.4,4.36,7.88l.07-.04c-.29-3.24-.36-6.19-.36-9.97v-10.15h2.95v24.26h-3.17l-7.7-12.31c-1.69-2.7-3.31-5.47-4.54-8.1l-.11.04c.18,3.06.25,5.97.25,10.01v10.37h-2.95Z"/>
      </g>
    </g>
  </g>
</svg>