<?xml version="1.0" encoding="UTF-8"?>
<svg id="Calque_2" data-name="Calque 2" xmlns="http://www.w3.org/2000/svg" viewBox="0 0 85.84 177.14">
  <defs>
    <style>
      .cls-1 {
        fill: #002395;
      }

      .cls-1, .cls-2, .cls-3 {
        stroke-width: 0px;
      }

      .cls-2 {
        fill: #ed2939;
      }

      .cls-3 {
        fill: #fff;
      }

      .cls-4 {
        fill: none;
        stroke: #fff;
        stroke-linecap: round;
        stroke-miterlimit: 10;
        stroke-width: 2px;
      }
    </style>
  </defs>
  <g id="OBJECTS">
    <g>
      <g>
        <path class="cls-3" d="M60.2,60.92v63.53l-15.43-4.26c-1.22-.33-2.51-.33-3.72,0l-11.99,3.31V56.61l1.56-1.95,6.83-8.55c2.79-3.5,8.12-3.5,10.92,0l6.82,8.55,5.01,6.27Z"/>
        <line class="cls-4" x1="42.77" y1="43.48" x2="42.77" y2="1"/>
        <path class="cls-2" d="M60.35,60.87c.79.99,1.83,1.74,3.01,2.19l17.95,6.73c4.2,1.57,5.85,6.64,3.37,10.39l-10.57,15.99c-.7,1.05-1.09,2.28-1.15,3.54l-.85,19.15c-.2,4.48-4.51,7.62-8.84,6.42l-3.05-.84"/>
        <path class="cls-1" d="M29.03,123.49l-6.46,1.79c-4.32,1.2-8.64-1.94-8.84-6.42l-.85-19.15c-.06-1.26-.45-2.49-1.15-3.54l-10.57-15.99c-2.47-3.74-.83-8.81,3.37-10.39l17.95-6.73c1.18-.44,2.22-1.2,3.01-2.19l3.56-4.47-.03,67.09Z"/>
        <g>
          <path class="cls-4" d="M37.55,19.06c2.17,2.18,5.37,13.25,5.37,13.25,0,0-11.07-3.2-13.25-5.37-2.18-2.17-2.18-5.7,0-7.88s5.7-2.17,7.88,0Z"/>
          <path class="cls-4" d="M47.98,19.06c-2.18,2.18-5.37,13.25-5.37,13.25,0,0,11.07-3.2,13.25-5.37s2.17-5.7,0-7.88c-2.17-2.17-5.7-2.17-7.88,0Z"/>
          <path class="cls-4" d="M54.23,38.47h0c-2.51,1.06-5.42.45-7.29-1.54l-4.33-4.62-2.7,7.54c-.97,2.7-3.85,4.19-6.61,3.43h0"/>
        </g>
      </g>
      <g>
        <path class="cls-3" d="M27.21,152.88h13.07v2.63h-9.93v8.06h9.18v2.59h-9.18v10.98h-3.13v-24.26Z"/>
        <path class="cls-3" d="M44.74,153.21c1.58-.32,3.85-.5,6.01-.5,3.35,0,5.51.61,7.02,1.98,1.22,1.08,1.91,2.74,1.91,4.61,0,3.2-2.02,5.33-4.57,6.19v.11c1.87.65,2.99,2.38,3.56,4.9.79,3.38,1.37,5.72,1.87,6.66h-3.24c-.4-.68-.94-2.77-1.62-5.79-.72-3.35-2.02-4.61-4.86-4.72h-2.95v10.51h-3.13v-23.94ZM47.87,164.26h3.2c3.35,0,5.47-1.83,5.47-4.61,0-3.13-2.27-4.5-5.58-4.54-1.51,0-2.59.14-3.1.29v8.85Z"/>
      </g>
    </g>
  </g>
</svg>