<?xml version="1.0" encoding="UTF-8"?>
<svg id="Calque_2" data-name="Calque 2" xmlns="http://www.w3.org/2000/svg" xmlns:xlink="http://www.w3.org/1999/xlink" viewBox="0 0 76.57 176.36">
  <defs>
    <style>
      .cls-1, .cls-2, .cls-3, .cls-4, .cls-5 {
        stroke-width: 0px;
      }

      .cls-2 {
        fill: #fece00;
      }

      .cls-3 {
        fill: #d00;
      }

      .cls-4 {
        fill: #fff;
      }

      .cls-6, .cls-5 {
        fill: #32544f;
      }

      .cls-7 {
        clip-path: url(#clippath);
      }
    </style>
    <clipPath id="clippath">
      <circle class="cls-5" cx="38.29" cy="87.7" r="38.29" transform="translate(-53.51 60.66) rotate(-50)"/>
    </clipPath>
  </defs>
  <g id="OBJECTS">
    <g>
      <g>
        <g>
          <circle class="cls-6" cx="38.29" cy="87.7" r="38.29" transform="translate(-53.51 60.66) rotate(-50)"/>
          <g class="cls-7">
            <g>
              <path class="cls-1" d="M-7.18,74.32c0-8.69,0-17.39-.01-26.08,0-.55.06-.7.58-.7,38.23.02,76.45.02,114.68,0,.52,0,.58.15.58.7-.02,8.69-.01,17.39-.01,26.08H-7.18Z"/>
              <path class="cls-3" d="M-7.18,74.32h115.82v26.76H-7.18v-26.76Z"/>
              <path class="cls-2" d="M-7.18,101.08h115.82c0,8.7,0,17.4.01,26.09,0,.57-.1.69-.59.68-38.22-.02-76.44-.02-114.66,0-.5,0-.59-.11-.59-.68.02-8.7.01-17.4.01-26.09Z"/>
            </g>
          </g>
        </g>
        <g>
          <path class="cls-4" d="M28.52,43.16h19.52c1.46,0,2.65,1.19,2.65,2.65v5.5c0,1.46-1.19,2.65-2.65,2.65h-19.52c-1.46,0-2.65-1.19-2.65-2.65v-5.5c0-1.46,1.19-2.65,2.65-2.65Z" transform="translate(-.47 .38) rotate(-.56)"/>
          <path class="cls-4" d="M38.28,45.58c-.24,0-.48-.09-.72-.29-3.09-2.62-5.49-25.22-5.58-26.81h0c-.2-3.63-.31-8.96,1.11-13.3.78-2.4,2.17-4.29,3.62-4.94,1.17-.51,2.28-.22,3.2.85,1.99,2.3,2.36,7.03,2.46,10.38.17,5.44.02,10.94-.44,16.36-.04.45-.08,1.04-.13,1.74-.5,6.77-1.12,13.53-2.61,15.44-.29.37-.6.56-.92.56ZM37.78,2.8c-.26,0-.51.08-.71.17-1.07.47-2.1,1.87-2.68,3.66-1.18,3.62-1.08,8.33-.9,11.56h0c.27,4.83,2.9,23.02,4.7,24.55,1.2-1.38,1.86-10.21,2.11-13.54.05-.72.1-1.34.14-1.8.45-5.22.59-10.53.43-15.76-.14-4.35-.69-6.95-1.75-8.17-.44-.51-.91-.67-1.33-.67Z"/>
        </g>
      </g>
      <g>
        <path class="cls-4" d="M20.18,152.21c1.91-.29,4.18-.5,6.66-.5,4.5,0,7.7,1.04,9.83,3.02,2.16,1.98,3.42,4.79,3.42,8.71s-1.22,7.2-3.49,9.43c-2.27,2.27-6.01,3.49-10.73,3.49-2.23,0-4.1-.11-5.69-.29v-23.86ZM23.31,173.66c.79.14,1.94.18,3.17.18,6.7,0,10.33-3.74,10.33-10.29.04-5.72-3.2-9.36-9.83-9.36-1.62,0-2.84.14-3.67.32v19.15Z"/>
        <path class="cls-4" d="M56.72,164.77h-9.43v8.75h10.51v2.63h-13.64v-24.26h13.1v2.63h-9.97v7.67h9.43v2.59Z"/>
      </g>
    </g>
  </g>
</svg>