<?xml version="1.0" encoding="UTF-8"?>
<svg id="Calque_2" data-name="Calque 2" xmlns="http://www.w3.org/2000/svg" xmlns:xlink="http://www.w3.org/1999/xlink" viewBox="0 0 85.81 177.14">
  <defs>
    <style>
      .cls-1 {
        fill: #fefefe;
      }

      .cls-1, .cls-2, .cls-3, .cls-4 {
        stroke-width: 0px;
      }

      .cls-2, .cls-5 {
        fill: none;
      }

      .cls-3 {
        fill: #dc0c39;
      }

      .cls-4 {
        fill: #fff;
      }

      .cls-6 {
        clip-path: url(#clippath);
      }

      .cls-5 {
        stroke: #fff;
        stroke-linecap: round;
        stroke-miterlimit: 10;
        stroke-width: 2px;
      }
    </style>
    <clipPath id="clippath">
      <path class="cls-2" d="M48.36,48.74l11.94,14.99c.79.99,1.83,1.74,3.01,2.19l17.95,6.73c4.2,1.57,5.85,6.64,3.37,10.39l-10.57,15.99c-.7,1.05-1.09,2.28-1.15,3.54l-.85,19.15c-.2,4.48-4.51,7.62-8.84,6.42l-18.48-5.11c-1.22-.34-2.5-.34-3.72,0l-18.48,5.11c-4.32,1.2-8.64-1.94-8.84-6.42l-.85-19.15c-.06-1.26-.45-2.49-1.15-3.54l-10.57-15.99c-2.47-3.74-.83-8.81,3.37-10.39l17.95-6.73c1.18-.44,2.22-1.2,3.01-2.19l11.95-14.99c2.79-3.51,8.13-3.51,10.92,0Z"/>
    </clipPath>
  </defs>
  <g id="OBJECTS">
    <g>
      <g>
        <line class="cls-5" x1="42.77" y1="45.67" x2="42.77" y2="1"/>
        <g class="cls-6">
          <g>
            <path class="cls-1" d="M-22.31,91.08c0-16.42,0-32.85-.01-49.27,0-.5.11-.61.61-.61,52.8.01,105.59.01,158.39,0,.5,0,.61.11.61.61-.02,16.42-.01,32.85-.01,49.27H-22.31Z"/>
            <path class="cls-3" d="M-22.31,91.08h159.59c0,16.42,0,32.85.01,49.27,0,.5-.11.61-.61.61-52.8-.01-105.59-.01-158.39,0-.5,0-.61-.11-.61-.61.02-16.42.01-32.85.01-49.27Z"/>
          </g>
        </g>
        <g>
          <path class="cls-5" d="M37.55,21.25c2.17,2.17,5.37,13.25,5.37,13.25,0,0-11.07-3.2-13.25-5.37-2.17-2.17-2.17-5.7,0-7.88s5.7-2.17,7.88,0Z"/>
          <path class="cls-5" d="M47.98,21.25c-2.17,2.17-5.37,13.25-5.37,13.25,0,0,11.07-3.2,13.25-5.37,2.17-2.17,2.17-5.7,0-7.88-2.17-2.17-5.7-2.17-7.88,0Z"/>
          <path class="cls-5" d="M54.23,40.66h0c-2.51,1.06-5.42.45-7.29-1.54l-4.33-4.62-2.7,7.54c-.97,2.7-3.85,4.19-6.61,3.43h0"/>
        </g>
      </g>
      <g>
        <path class="cls-4" d="M27.57,153.17c1.51-.25,3.49-.47,6.01-.47,3.1,0,5.36.72,6.8,2.02,1.33,1.15,2.12,2.92,2.12,5.08s-.65,3.92-1.87,5.18c-1.66,1.76-4.36,2.66-7.42,2.66-.94,0-1.8-.04-2.52-.22v9.72h-3.13v-23.97ZM30.7,164.87c.68.18,1.55.25,2.59.25,3.78,0,6.08-1.84,6.08-5.18s-2.27-4.75-5.72-4.75c-1.37,0-2.41.11-2.95.25v9.43Z"/>
        <path class="cls-4" d="M46.72,152.88h3.13v21.63h10.37v2.63h-13.5v-24.26Z"/>
      </g>
    </g>
  </g>
</svg>