<?xml version="1.0" encoding="UTF-8"?>
<svg id="Calque_2" data-name="Calque 2" xmlns="http://www.w3.org/2000/svg" xmlns:xlink="http://www.w3.org/1999/xlink" viewBox="0 0 76.57 176.14">
  <defs>
    <style>
      .cls-1 {
        fill: #0d6400;
      }

      .cls-1, .cls-2, .cls-3, .cls-4, .cls-5, .cls-6, .cls-7, .cls-8, .cls-9, .cls-10, .cls-11, .cls-12, .cls-13, .cls-14, .cls-15, .cls-16, .cls-17, .cls-18 {
        stroke-width: 0px;
      }

      .cls-2 {
        fill: #fbfb00;
      }

      .cls-3 {
        fill: #c1b900;
      }

      .cls-4 {
        fill: #f5f3f4;
      }

      .cls-5 {
        fill: #dd0;
      }

      .cls-6 {
        fill: #caca02;
      }

      .cls-7 {
        fill: #fff;
      }

      .cls-8 {
        fill: #060;
      }

      .cls-9 {
        fill: #d08485;
      }

      .cls-19, .cls-14 {
        fill: #32544f;
      }

      .cls-10 {
        fill: #2a44a1;
      }

      .cls-11 {
        fill: #b6bebb;
      }

      .cls-12 {
        fill: #fe0000;
      }

      .cls-20 {
        clip-path: url(#clippath);
      }

      .cls-13 {
        fill: #c9c600;
      }

      .cls-15 {
        fill: #b5ac00;
      }

      .cls-16 {
        fill: #f80201;
      }

      .cls-17 {
        fill: #d1d2da;
      }

      .cls-18 {
        fill: #f60501;
      }
    </style>
    <clipPath id="clippath">
      <circle class="cls-14" cx="38.29" cy="87.7" r="38.29" transform="translate(-53.51 60.66) rotate(-50)"/>
    </clipPath>
  </defs>
  <g id="OBJECTS">
    <g>
      <g>
        <g>
          <circle class="cls-19" cx="38.29" cy="87.7" r="38.29" transform="translate(-53.51 60.66) rotate(-50)"/>
          <g class="cls-20">
            <g>
              <path class="cls-12" d="M33.66,47.73c22.98,0,45.95.02,68.93-.04,1.47,0,1.76.29,1.75,1.75-.06,24.97-.06,49.93,0,74.9,0,1.47-.29,1.76-1.75,1.75-22.98-.06-45.95-.04-68.93-.04,0-6.55,0-13.09,0-19.64.12-.03.23-.06.35-.09,4.51-.06,8.49-1.55,11.95-4.44.11-.1.21-.19.32-.29.14-.13.28-.27.43-.4.14-.15.28-.29.42-.44.21-.2.42-.41.63-.61.1-.06.18-.14.24-.24.85-.55,1.59-1.18,1.83-2.23.18-.3.36-.6.54-.9,1.98-3.09,2.7-6.52,2.84-10.13.11-.11.14-.23.07-.37-.12-.61-.26-1.21-.34-1.83-.37-2.73-1.17-5.31-2.63-7.66,0-.41-.13-.7-.59-.74l-.07-.02c-.4-.84-.93-1.58-1.66-2.16-.14-.14-.29-.29-.43-.43-.14-.14-.29-.29-.43-.43-.14-.14-.29-.28-.43-.42-.07-.1-.15-.18-.26-.25-.63-.49-1.26-.97-1.89-1.45-.5-.29-.99-.59-1.49-.88-1.2-.81-2.51-1.34-3.92-1.66-.14-.02-.28-.04-.42-.06-.36-.28-.74-.48-1.21-.38-.43-.02-.86-.04-1.29-.07-.65-.46-1.36-.64-2.14-.42l-.07.05c-.12-.03-.24-.07-.36-.1,0-6.55,0-13.1,0-19.65Z"/>
              <path class="cls-8" d="M33.67,106.41c0,6.55,0,13.09,0,19.64-15.11,0-30.22-.02-45.33.03-1.34,0-1.82-.1-1.82-1.68.07-25.01.07-50.01,0-75.02,0-1.58.48-1.69,1.82-1.68,15.11.05,30.22.03,45.33.03,0,6.55,0,13.1,0,19.65-.13.04-.26.08-.39.11-.78-.11-1.53-.13-2.2.39-.26.02-.53.04-.79.06-1.44-.03-2.75.36-3.92,1.2-.8.06-1.43.51-2.07.92-.29-.06-.43.09-.49.36-.68.1-1.14.58-1.65.97-.14.12-.27.23-.41.35-.16.13-.31.26-.47.39-.36-.03-.48.24-.63.49-.13.04-.2.13-.21.27l-.11.03-.03.11c-.1.1-.19.19-.29.29l-.11.03-.03.11c-.09.1-.19.19-.28.29l-.13.03-.03.13c-.14.01-.22.09-.24.22-.76.74-1.66,1.35-2.07,2.38-.18.41-.35.83-.53,1.24-1.43,1.9-1.83,4.18-2.12,6.43-.18,1.38-1,2.84.01,4.25,0,.41.02.81.03,1.22.29,2.62,1.07,5.07,2.52,7.29,3.82,5.87,9.19,9.07,16.23,9.38.14.04.29.07.43.11Z"/>
              <path class="cls-13" d="M50.31,76.79c1.46,2.35,2.25,4.93,2.63,7.66.08.61.23,1.22.34,1.83-.26-.01-.52-.02-.78-.04-1.95-1.3-4.13-1.79-6.43-1.81,2.11.7,4.14,1.69,6.41,1.84-.05.69.33.56.73.38-.14,3.6-.86,7.04-2.84,10.12.51-1.59-1.65-2.1-1.45-3.56.33.2.75.32.85-.13.28-1.28,1.09-2.43.95-3.8.29-1.08-.62-1.3-1.25-1.71.42-.22.84-.44,1.31-.69-1.76-1.01-3.71-.97-5.5-1.5,0-.7,0-1.4,0-2.1,1.84-.05,3.5.83,5.27,1.03.07-.11.15-.18.14-.23-.65-4.63-1.01-4.89-5.41-3.89,0-.57-.34-1.21.32-1.66.59,1.63,1.65.24,2.47.35.26.03.48-.35.29-.63-.53-.77-1.16.2-1.71-.05-.23-.11-.39-.37-.58-.57-.16-.6-1.09-.83-.77-1.65,1.57.08,3,.94,4.6.84.14,0,.28,0,.42-.03ZM49.5,78.12s-.09-.06-.14-.09c.05.03.09.06.14.09.78,2.2,1.56,4.41,2.33,6.61.19-3.25-.68-5.46-2.34-6.61ZM52.45,87.94c-.2-.04-.39-.07-.59-.11-.47,2.03-.95,4.06-1.42,6.08,1.61-1.76,1.68-3.9,2.01-5.98Z"/>
              <path class="cls-2" d="M48.92,93.21c-.2,1.47,1.96,1.97,1.45,3.57-.18.3-.36.6-.54.9-.46.08-.78-.17-1.1-.45-1-.9-.89-.03-.93.59-.98-.55-1.95-1.01-3.15-.87-.87.1-1.46-.37-1.58-1.3v.02c.12-.16.26-.32.39-.49.29-1.46,1.62-2.58,1.4-4.21.12-.16.24-.32.35-.48,0,0-.04.03-.04.03.19,0,.39.01.58.02.09.13.18.26.27.39.08.36.16.73.68.53.08-.02.14.02.18.09-.2,1.14.62,1.07,1.33,1.11h0c.05.37.14.69.64.5l.07.04ZM46,95.31c.14.46.22.98.86.99.09,0,.26-.16.26-.25,0-.65-.58-.67-1-.85-.39-.51-.72-1.16-1.7-.9.35.83.93.96,1.58,1.01Z"/>
              <path class="cls-13" d="M45.96,101.89c-3.46,2.89-7.44,4.38-11.95,4.44.03-1.96.05-3.93.08-5.89.17-.02.34-.04.51-.06l.35,3.87c0,.15,0,.3.01.45.08.6.49.87,1.03.8,2.62-.37,5.21-.86,7.2-2.83.68-.09,1.25-.36,1.66-.93.25-.04.5-.08.75-.12.12.09.24.19.35.28Z"/>
              <path class="cls-2" d="M34.09,100.44c-.03,1.96-.05,3.93-.08,5.89-.12.03-.23.06-.35.09-.14-.04-.29-.07-.43-.11-.05-.72.21-1.51-.43-2.1-.03-1.24-.05-2.48-.08-3.72.45-.01.91-.03,1.36-.04Z"/>
              <path class="cls-2" d="M33.27,67.49c.13-.03.26-.07.39-.11.12.03.24.06.37.1.03,1.96.05,3.91.08,5.87-.3,0-.6,0-.91,0-.13-.13-.25-.26-.38-.39-.02-1.12-.03-2.24-.05-3.37.67-.58.38-1.39.5-2.1Z"/>
              <path class="cls-6" d="M34.11,73.34c-.03-1.96-.05-3.91-.08-5.87,0,0,.07-.05.07-.05.67.39,1.39.47,2.14.42.43.02.86.04,1.29.07.34.33.76.4,1.21.38.14.02.28.04.42.06-.12.12-.24.23-.35.35-.67-.11-1.34-.24-2.02-.32-.72-.08-1.56-.4-1.83.71-.01.13-.03.26-.04.4-.8,1.21-.26,2.57-.44,3.85-.13.05-.25.05-.38,0Z"/>
              <path class="cls-3" d="M47.99,73.87c.73.59,1.26,1.33,1.66,2.16-1.52-.02-2.91-.62-4.36-.97-.05-.41-.09-.83-.14-1.24,0,0,.16.05.16.05.88-.23,1.45,1.54,2.47.39.07-.13.14-.26.21-.39Z"/>
              <path class="cls-2" d="M45.3,75.06c1.44.36,2.84.96,4.36.98,0,0,.07.02.07.02.06.26.11.51.17.77-1.6.1-3.03-.76-4.6-.84,0-.31,0-.62,0-.92Z"/>
              <path class="cls-13" d="M47.8,97.81c.04-.62-.07-1.49.93-.59.32.29.64.53,1.1.45-.24,1.05-.98,1.68-1.83,2.23-.08-.14-.16-.28-.24-.42.17-.56,1.78-1.1.03-1.69l.02.02Z"/>
              <path class="cls-6" d="M39.15,68.34c1.4.32,2.72.85,3.92,1.66,0,.15,0,.29,0,.44-1.42-.58-2.84-1.17-4.26-1.75.12-.12.24-.23.35-.35Z"/>
              <path class="cls-3" d="M44.56,70.89c.63.49,1.26.97,1.89,1.46-.13.07-.25.14-.38.21-.53-.05-1.06-.1-1.58-.15l-.12-.06c0-.36,0-.72,0-1.08.08-.11.15-.24.19-.37Z"/>
              <path class="cls-3" d="M36.24,67.84c-.75.05-1.48-.03-2.14-.42.79-.23,1.49-.04,2.14.42Z"/>
              <path class="cls-3" d="M43.06,70.44c0-.15,0-.29,0-.44.5.29.99.59,1.49.88-.04.13-.1.26-.19.37-.29,0-.57,0-.86,0h0c-.15-.27-.3-.54-.45-.82Z"/>
              <path class="cls-3" d="M38.74,68.29c-.45.01-.87-.05-1.21-.38.48-.1.86.11,1.21.38Z"/>
              <path class="cls-2" d="M52.5,86.24c.26.01.52.02.78.04.07.14.04.27-.07.37-.4.18-.78.31-.73-.38l.02-.03Z"/>
              <path class="cls-3" d="M49.9,76.82c-.06-.26-.11-.51-.17-.77.46.04.59.33.59.74-.14.02-.28.03-.42.03Z"/>
              <path class="cls-3" d="M47.57,73.44c.14.14.29.29.43.43-.07.13-.14.26-.21.39-.14-.14-.29-.28-.43-.42.07-.13.14-.27.21-.4Z"/>
              <path class="cls-3" d="M47.14,73.01c.14.14.29.29.43.43-.07.13-.14.27-.21.4-.14-.14-.29-.29-.43-.43.07-.13.14-.27.21-.4Z"/>
              <path class="cls-13" d="M47.76,100.15c-.21.2-.42.41-.63.61-.07-.14-.15-.28-.22-.42.14-.14.29-.29.43-.43.14.08.28.15.42.23Z"/>
              <path class="cls-3" d="M46.7,72.59c.14.14.29.28.43.42-.07.13-.14.27-.21.4-.14-.14-.28-.29-.42-.43.07-.13.14-.26.2-.4Z"/>
              <path class="cls-13" d="M47.13,100.76c-.14.15-.28.29-.42.44-.08-.14-.15-.28-.23-.42.14-.14.28-.29.43-.43l.22.42Z"/>
              <path class="cls-13" d="M46.71,101.2c-.14.13-.28.27-.43.4-.08-.14-.16-.27-.23-.4.14-.14.29-.28.43-.42.08.14.15.28.23.42Z"/>
              <path class="cls-13" d="M46.28,101.6c-.11.1-.21.19-.32.29-.12-.09-.24-.19-.35-.28.15-.14.29-.27.44-.41.08.14.16.27.23.41Z"/>
              <path class="cls-3" d="M46.45,72.34c.11.06.19.14.26.25-.07.13-.14.26-.2.39-.14-.14-.29-.28-.43-.43.13-.07.25-.14.38-.21Z"/>
              <path class="cls-13" d="M47.99,99.91c-.06.1-.14.18-.24.24-.14-.08-.28-.15-.42-.23.14-.15.28-.29.42-.44l.24.43Z"/>
              <path class="cls-13" d="M14.46,88.41c-1.01-1.4-.19-2.87-.01-4.25.3-2.24.69-4.53,2.12-6.43.11.95.99.88,1.58,1.14,1.15.5,2.34.92,3.52,1.37h.17s.17,0,.17,0c.1.37.13.72-.31.9-.83-.35-1.67-.7-2.5-1.05-.39-.17-.82-.35-1.14.05-.31.38-.1.77.11,1.15.2.35.32.75.48,1.12-1.24-1.04-1.81-.33-2.19.85-.83-1.31.75-2.39.4-4.02-1.23,1.39-1.43,2.84-1.6,4.26-.12,1.02.65.59,1.15.55,1.11.04,2.47.61,2.7-1.26l2.48.45c.51.6.57,1.3.39,2.03-.26,0-.52,0-.78,0,.09-.52.43-1.3-.55-1.15-2.09.32-4.19.7-5.83,2.25,1.87-.35,3.57-1.53,5.59-1-1.17.86-2.83.5-4,1.57,1.92.52,3.75,1.01,5.58,1.5.01.63.02,1.26.04,1.89-1.9.09-3.65-1.17-5.6-.64-.58-.15-.69-.6-.75-1.12-.17-1.57-.74-.63-1.22-.18ZM16.99,88.26c1.36.81,2.81,1.17,4.37.96-1.38-.67-2.81-1.13-4.37-.96Z"/>
              <path class="cls-5" d="M32.8,104.2c.64.6.38,1.38.43,2.11-7.04-.31-12.41-3.51-16.23-9.38,0,0,.13-.11.13-.11.35-.11.69-.22,1.04-.34.46.35.93.71,1.39,1.06.27.33.54.66.81,1,.33.77.84,1.31,1.71,1.41,3.15,2.46,6.62,4.12,10.7,4.26Z"/>
              <path class="cls-2" d="M24.29,70.06c.64-.41,1.27-.86,2.07-.92,1.51.27,2.8-.21,3.92-1.2.26-.02.53-.04.79-.06.52.44,1.48.52,1.26,1.56-.41.04-.81.08-1.22.12-.62-.6-1.05-.43-1.35.32-.26.05-.52.09-.78.14-.54-.61-.74-.17-.93.3-.41.15-.83.31-1.24.46-.95-.46-1.41.07-1.75.86-.69.45-1.38.9-2.06,1.36-.37,0-.7.07-.91.42l.03-.02c-.95.36-1.59,2.04-2.95.71.02-.13.1-.21.24-.22.08,0,.16-.02.24-.03-.03-.04-.05-.09-.08-.13.09-.1.19-.19.28-.29,0,0,.17.03.17.03l-.03-.17c.1-.1.19-.19.29-.29,0,0,.17.03.17.03l-.03-.17c0-.14.08-.23.21-.27.47.18.57-.13.63-.49.16-.13.31-.26.47-.39.14-.12.27-.23.41-.35.51-.39.97-.87,1.65-.97.53.37.4-.14.49-.36Z"/>
              <path class="cls-2" d="M21.66,80.25c-1.17-.45-2.36-.87-3.52-1.37-.59-.26-1.47-.2-1.58-1.14.18-.41.35-.83.53-1.24,3.61-.23,4.61.6,4.56,3.75Z"/>
              <path class="cls-3" d="M21.66,80.25c.04-3.16-.96-3.98-4.56-3.75.41-1.03,1.31-1.64,2.07-2.38,1.36,1.33,2-.35,2.95-.71.01.16.02.31.03.47-.05,2.13-.1,4.25-.15,6.38h-.17s-.17,0-.17,0Z"/>
              <path class="cls-2" d="M14.46,88.41c.48-.45,1.05-1.4,1.22.18.06.52.17.97.75,1.12.02.27.03.54.05.8-.54,1.13-.14,1.97.83,2.63.22.38.54.73.44,1.22-1.23.76-1.3-.36-1.74-1.01-.76-1.14-.19-2.82-1.52-3.72,0-.41-.02-.81-.03-1.22Z"/>
              <path class="cls-13" d="M14.49,89.64c1.33.9.76,2.57,1.52,3.72.43.65.51,1.77,1.74,1.01.46,0,.92.02,1.38.03-.12,1.25-2.47.67-1.98,2.42,0,0-.13.11-.13.11-1.46-2.22-2.23-4.67-2.52-7.29Z"/>
              <path class="cls-6" d="M30.28,67.94c-1.13.99-2.41,1.47-3.92,1.2,1.17-.84,2.48-1.22,3.92-1.2Z"/>
              <path class="cls-6" d="M32.33,69.44c.23-1.04-.73-1.12-1.26-1.56.66-.52,1.42-.5,2.2-.39-.12.71.17,1.52-.5,2.1-.15-.05-.29-.1-.44-.15Z"/>
              <path class="cls-3" d="M21.27,72.13c-.07.35-.16.66-.63.49.15-.24.28-.51.63-.49Z"/>
              <path class="cls-6" d="M24.29,70.06c-.09.22.04.73-.49.36.05-.27.19-.42.49-.36Z"/>
              <path class="cls-3" d="M19.57,73.73s.05.09.08.13c-.08,0-.16.02-.24.03,0,0,.03-.13.03-.13l.13-.03Z"/>
              <polygon class="cls-3" points="20 73.31 20.02 73.48 19.85 73.45 19.88 73.33 20 73.31"/>
              <polygon class="cls-3" points="20.42 72.88 20.45 73.05 20.28 73.02 20.31 72.91 20.42 72.88"/>
              <path class="cls-3" d="M22.15,71.39c-.14.12-.27.23-.41.35.14-.12.27-.23.41-.35Z"/>
              <path class="cls-18" d="M45.28,80.18c4.4-1,4.76-.74,5.41,3.89,0,.05-.07.12-.14.23-1.77-.2-3.43-1.08-5.27-1.03,0-1.03,0-2.06,0-3.09Z"/>
              <path class="cls-18" d="M46.03,90.93c-.09-.13-.18-.26-.27-.39.84-.72,2.08-.15,2.91-.9.73.15,1.37-.21,2.05-.37.14,1.38-.67,2.53-.95,3.8-.1.44-.53.33-.85.13,0,0-.07-.04-.07-.04-.21-.17-.43-.34-.64-.51h0c-.26-.59-.77-.87-1.33-1.11-.03-.08-.09-.11-.18-.09-.23-.18-.45-.36-.68-.53Z"/>
              <path class="cls-18" d="M45.29,85.38c1.79.54,3.74.49,5.5,1.5-.47.25-.89.47-1.31.69-.13-.03-.26-.03-.39.03-1.27.17-2.53.35-3.8.52,0-.91,0-1.82,0-2.74Z"/>
              <path class="cls-4" d="M45.29,85.38c0,.91,0,1.82,0,2.73,0,.22,0,.44,0,.66,0,.31,0,.63,0,.94-.04.27-.08.54-.12.8,0,0,.04-.03.04-.03-.12.03-.25.04-.37.03-.03-5.42-.06-10.84-.1-16.26.14-.14.27-.29.4-.43.05.41.09.83.14,1.24,0,.31,0,.61,0,.92-.32.82.61,1.05.77,1.65-.45.14-.39.55-.46.89-.67.44-.33,1.08-.32,1.66,0,1.03,0,2.06,0,3.09,0,.7,0,1.4,0,2.1Z"/>
              <path class="cls-5" d="M45.3,89.72c0-.31,0-.63,0-.94,1.36-.08,2.8.11,3.79-1.18.13-.05.25-.06.39-.03.63.41,1.54.63,1.25,1.71-.68.15-1.32.52-2.05.37-1.14-.71-2.25.36-3.38.07Z"/>
              <path class="cls-2" d="M49.5,78.12c1.66,1.14,2.53,3.36,2.34,6.61-.78-2.2-1.56-4.41-2.33-6.61h0Z"/>
              <path class="cls-2" d="M52.45,87.94c-.33,2.07-.39,4.21-2.01,5.98.47-2.03.95-4.06,1.42-6.08.2.04.39.07.59.11Z"/>
              <path class="cls-2" d="M52.48,86.27c-2.27-.15-4.3-1.14-6.41-1.84,2.31.02,4.48.5,6.43,1.81,0,0-.02.03-.02.03Z"/>
              <path class="cls-2" d="M45.61,78.53c.07-.34,0-.75.46-.89.19.19.35.46.58.57.55.25,1.18-.72,1.71.05.19.27-.03.66-.29.63-.82-.11-1.88,1.28-2.47-.35Z"/>
              <path class="cls-2" d="M49.5,78.11s-.09-.06-.14-.09c.05.03.09.06.14.09,0,0,0,0,0,0Z"/>
              <path class="cls-16" d="M44.75,74.25c.03,5.42.06,10.84.1,16.27,0,.15.01.3.02.45.22,1.63-1.11,2.75-1.4,4.21-.14.16-.27.32-.41.49,0,0,.01-.02.01-.02-.13,0-.25.03-.37.07-.68-1.5-1.27-3.1-3.45-2.65,1.59-3.21,1.02-6.66,1.06-10.02.06-4.43.02-4.43-4.3-4.51-.21,0-.42-.04-.63-.07-.4-1.09.68-2.53-.82-3.35-.16-.28-.33-.56-.49-.85,2.6,0,5.2,0,7.8,0-.07.44-.55.7-.64,1-.31.93-.85,2.16.24,2.78.69.39,2.18.53,2.53-.15.31-.61.47-1.94-.34-2.67-.33-.3-.61-.53-.7-.95.59,0,1.18-.01,1.77-.02ZM43.57,84.17c-.52-.13-.67-1.28-1.47-.59-.53.46-.87,1.05-.36,1.76-.5.59-1.18,1.39-.59,1.97.54.54,1.95.53,2.36.07.76-.86.75-2.12.06-3.21Z"/>
              <path class="cls-6" d="M42.7,95.72c.12-.05.24-.07.37-.07.12.93.71,1.41,1.58,1.3,1.2-.14,2.17.32,3.15.87,0,0-.02-.02-.02-.02-.79.99-1.35,2.26-2.88,2.32-.35-1.08-.93-.49-1.47-.2-.41.04-.82.07-1.23.11-.5-.1-.98-.05-1.38.31-.68.04-1.36.08-2.04.12-.77-.25-1.74.33-2.35-.56l3.3-1.21c0,.53.31.87.78.79,1.9-.3,3.87-.32,5.94-1.38-2.27-.37-4.13.95-6.05.2.29-.38.58-.77.87-1.15.57-.38,1.12-.77,1.43-1.42Z"/>
              <path class="cls-13" d="M45.3,89.72c1.13.29,2.24-.78,3.38-.07-.83.75-2.07.18-2.91.9-.19,0-.39-.01-.58-.02.04-.27.08-.54.12-.8Z"/>
              <path class="cls-13" d="M45.99,95.31c-.64-.05-1.23-.18-1.58-1.01.98-.26,1.3.39,1.7.9l-.12.11Z"/>
              <path class="cls-13" d="M46.11,95.2c.42.18.99.2,1,.85,0,.09-.17.25-.26.25-.64-.01-.72-.53-.86-.99,0,0,.12-.11.12-.11Z"/>
              <path class="cls-13" d="M46.88,91.56c.56.23,1.08.52,1.33,1.11-.72-.05-1.54.03-1.33-1.11Z"/>
              <path class="cls-13" d="M46.03,90.93c.23.18.45.36.68.53-.52.2-.6-.17-.68-.53Z"/>
              <path class="cls-13" d="M48.21,92.66c.21.17.43.34.64.51-.5.19-.59-.13-.64-.51Z"/>
              <path class="cls-6" d="M43.06,95.67c.14-.16.27-.32.41-.49-.14.16-.27.32-.41.49Z"/>
              <path class="cls-13" d="M44.87,90.97c0-.15-.01-.3-.02-.45.13,0,.25,0,.37-.03-.12.16-.24.32-.35.48Z"/>
              <path class="cls-16" d="M42.21,100.02c.41-.04.82-.07,1.23-.11.31.15.62.29.93.44-.34.33-.68.66-1.02.98-.1-.02-.16.02-.17.12-1.61.64-3.08,1.64-4.84,1.91-.27.13-.53.26-.8.39-.1.06-.2.1-.31.14-.32-.02-.64-.05-.96-.07-.96-.01-1.33-.53-1.31-1.45.01-.68.1-1.39-.35-1.99-.17.02-.34.04-.51.06-.45.01-.91.03-1.36.04-.77.15-1.34-.71-2.14-.44-1.57.09-2.43-1.39-3.8-1.73-.17-.17-.34-.34-.51-.52,0-.16,0-.32,0-.48,1.59-.17,2.18-1.6,3.16-2.54,2.81,1.09,5.61,1.31,8.4-.06,1.06.92,1.48,2.77,3.43,2.42-.29.38-.58.77-.87,1.15-.22.13-.45.26-.67.39-1.1.4-2.2.81-3.3,1.21-.14,0-.27-.02-.4,0-.05,0-.13.13-.11.16.77,1.41,1.85.71,2.87.4.68-.04,1.36-.08,2.04-.12.49.04.98.04,1.38-.31Z"/>
              <path class="cls-2" d="M37.22,103.89c.11-.03.21-.08.31-.14.2.01.4.02.59.03,1.95.72,3.22-1.04,4.89-1.35.06.07.12.15.17.22-1.99,1.98-4.58,2.46-7.2,2.83-.54.08-.95-.2-1.03-.8.78-.18,1.8.29,2.26-.8Z"/>
              <path class="cls-2" d="M44.9,100.11c1.53-.06,2.09-1.33,2.88-2.32,1.75.59.14,1.13-.03,1.69-.14.15-.28.29-.42.44-.14.14-.29.29-.43.43-.14.14-.28.29-.43.43-.14.14-.29.28-.43.42-.15.14-.29.27-.44.41-.25.04-.5.08-.75.12-.06-.06-.11-.13-.17-.19.1-.46.51-.87.2-1.39v-.04Z"/>
              <path class="cls-18" d="M34.6,100.38c.44.61.36,1.31.35,1.99-.02.92.35,1.44,1.31,1.45-.44.14-.87.29-1.31.43l-.35-3.87Z"/>
              <path class="cls-6" d="M34.95,104.24c.44-.14.87-.29,1.31-.43.32.02.64.05.96.07-.46,1.09-1.47.62-2.26.8,0-.15,0-.3-.01-.45Z"/>
              <path class="cls-2" d="M44.85,101.73c-.41.57-.99.84-1.66.93-.06-.07-.11-.15-.17-.22.19-.3.43-.6.15-.98.01-.1.07-.15.17-.12.41.29.88.25,1.34.21.06.06.11.12.17.19Z"/>
              <path class="cls-1" d="M30.59,100.03c.8-.27,1.36.59,2.14.44.03,1.24.05,2.48.08,3.72-4.08-.14-7.55-1.8-10.7-4.26.06-.58.56-.41.89-.53.41.04.81.07,1.22.11.36.47.84.43,1.34.34,1.68.03,3.33.99,5.04.17Z"/>
              <path class="cls-1" d="M32.33,69.44c.15.05.29.1.44.15.02,1.12.03,2.24.05,3.37-.07.13-.14.26-.2.38-3.2,0-6.41,0-9.61,0,.01-.11.01-.23,0-.34.69-.45,1.38-.9,2.06-1.36.69-.07,1.29-.31,1.75-.86.41-.15.83-.31,1.24-.46.37.09.72.12.93-.3.26-.05.52-.09.78-.14.5.11.99.16,1.35-.32.41-.04.81-.08,1.22-.12Z"/>
              <path class="cls-11" d="M23.01,73.34c3.2,0,6.41,0,9.61,0,.19,0,.39,0,.58,0,.3,0,.6,0,.91,0,.13.05.25.05.38,0,0,0,.16.04.16.04,0,0,.16-.04.16-.04,3.12,0,6.24.02,9.36.03.33.02.67.04,1,.06.05.15.1.29.14.44,0,0-.16-.05-.16-.05-.13.15-.27.29-.4.43-.59,0-1.18.01-1.77.02,0,0-.16-.1-.16-.1-.25-.25-.5-.24-.75,0-.08,0-.14.04-.18.1-2.6,0-5.2,0-7.8,0,0,0,0-.09,0-.09-.29-.36-.57-.37-.85,0,0,0,.02.07.02.07-2.72-.04-5.44-.07-8.15-.11-.3-.34-.59-.36-.85.04-.56.01-1.13.02-1.69.03-.14-.12-.27-.24-.41-.37-.01-.16-.02-.31-.03-.47,0,0-.03.02-.03.02.3-.03.61-.06.91-.08Z"/>
              <path class="cls-6" d="M33.2,73.34c-.19,0-.39,0-.58,0,.07-.13.14-.25.2-.38.13.13.25.26.38.39Z"/>
              <path class="cls-2" d="M43.06,70.44c.15.27.3.55.45.82-.76.15-1.37-.26-2.02-.53-2.09-.89-4.21-1.7-6.54-1.64.27-1.11,1.11-.79,1.83-.71.68.08,1.34.21,2.02.32,1.42.58,2.84,1.16,4.26,1.75Z"/>
              <path class="cls-13" d="M34.96,69.09c2.33-.06,4.45.75,6.54,1.64.65.27,1.26.68,2.02.53,0,0,0,0,0,0,0,.28,0,.57.01.85-.11.11-.22.22-.32.34-2.5-1.66-5.34-2.35-8.23-2.88l-.04-.08c.01-.13.02-.26.04-.4Z"/>
              <path class="cls-3" d="M34.8,73.34l-.16.04s-.16-.04-.16-.04c.17-1.28-.36-2.64.44-3.85,0,0,.04.08.04.08-.05,1.26-.1,2.52-.16,3.78Z"/>
              <path class="cls-2" d="M45.31,73.87c-.05-.15-.1-.29-.14-.44-.23-.34-.45-.69-.68-1.03.53.05,1.06.1,1.58.15.14.14.29.28.43.43.14.14.28.29.42.43.14.14.29.29.43.43.14.14.29.28.43.42-1.03,1.15-1.59-.62-2.47-.39Z"/>
              <path class="cls-13" d="M44.49,72.4c.23.34.45.69.68,1.03-.33-.02-.67-.04-1-.06-.32-.31-.65-.62-.97-.93.11-.11.22-.22.32-.33.28.08.57.15.85.23l.12.06Z"/>
              <path class="cls-2" d="M44.37,72.34c-.28-.08-.57-.15-.85-.23,0-.28,0-.57-.01-.85.29,0,.57,0,.86,0,0,.36,0,.72,0,1.08Z"/>
              <path class="cls-1" d="M19.12,94.4c-.46,0-.92-.02-1.38-.03.09-.49-.23-.84-.44-1.22-.11-.93-.27-1.84-.83-2.63-.02-.27-.03-.54-.05-.8,1.95-.54,3.7.72,5.6.64.28.44-.26,1.24.64,1.39.46.53.31,1.14.22,1.73-1.11.9-2.62.15-3.76.92Z"/>
              <path class="cls-1" d="M21.99,88.46c-1.83-.49-3.65-.98-5.58-1.5,1.18-1.07,2.84-.72,4-1.57.26-.03.53-.07.79-.1.26,0,.52,0,.78,0,0,1.06,0,2.12,0,3.18Z"/>
              <path class="cls-17" d="M21.99,88.46c0-1.06,0-2.12,0-3.18.18-.74.12-1.43-.39-2.03.03-.7.06-1.4.09-2.1.44-.19.42-.53.31-.9.05-2.13.1-4.25.15-6.38.14.12.27.24.41.37.03,5.84.07,11.67.1,17.51-.89-.15-.36-.96-.64-1.39-.01-.63-.02-1.26-.04-1.89Z"/>
              <path class="cls-2" d="M21.69,81.15c-.03.7-.06,1.4-.09,2.1-.83-.15-1.65-.3-2.48-.45,0,0,0,0,0,0-.16-.13-.31-.26-.47-.39h0c-.16-.37-.29-.76-.48-1.11-.21-.38-.42-.77-.11-1.15.32-.4.75-.22,1.14-.05.83.36,1.66.7,2.5,1.05Z"/>
              <path class="cls-2" d="M21.2,85.29c-.26.03-.53.07-.79.1-2.02-.54-3.71.65-5.59,1,1.64-1.54,3.74-1.92,5.83-2.25.99-.15.65.63.55,1.15Z"/>
              <path class="cls-2" d="M16.42,84.06c-.5.04-1.27.47-1.15-.55.17-1.42.37-2.87,1.6-4.26.34,1.63-1.23,2.71-.4,4.02-.01.26-.03.53-.04.79Z"/>
              <path class="cls-1" d="M16.42,84.06c.01-.26.03-.53.04-.79.38-1.19.94-1.89,2.19-.85,0,0,0,0,0,0,.03.28.2.4.47.39,0,0,0,0,0,0-.23,1.86-1.59,1.29-2.7,1.26Z"/>
              <path class="cls-2" d="M16.99,88.26c1.56-.17,2.99.3,4.37.96-1.56.21-3.01-.15-4.37-.96Z"/>
              <path class="cls-2" d="M30.59,100.03c-1.71.81-3.36-.15-5.04-.17-.27-.83-.72-.91-1.34-.34-.41-.04-.81-.07-1.22-.11-.59-1.11-1.63-.9-2.61-.88-.27-.33-.54-.66-.81-1,.17-.03.34-.07.51-.1.22,0,.44,0,.67,0,.34.31.66.33.95-.07.41.03.82.06,1.23.1.26.83.72.89,1.34.35.41.03.82.05,1.22.08.24.78.67.9,1.31.41,1.37.34,2.23,1.81,3.8,1.73Z"/>
              <path class="cls-2" d="M19.12,94.4c1.14-.77,2.65-.01,3.76-.92.31.44.62.87.93,1.31-1.13.3-2.25.6-3.38.91-.87-.09-1.6.24-2.24.79-.35.11-.69.22-1.04.34-.49-1.75,1.86-1.17,1.98-2.42Z"/>
              <path class="cls-13" d="M20.39,98.54c.97-.02,2.01-.24,2.61.88-.33.13-.83-.04-.89.53-.88-.1-1.39-.64-1.71-1.41Z"/>
              <path class="cls-6" d="M18.18,96.48c.65-.55,1.37-.87,2.24-.79-.2.43-.9.69-.47,1.35.03.14.07.27.13.4-.17.03-.34.07-.51.1-.46-.35-.93-.71-1.39-1.06Z"/>
              <path class="cls-6" d="M26.81,70.78c-.45.55-1.06.79-1.75.86.33-.79.8-1.32,1.75-.86Z"/>
              <path class="cls-6" d="M31.11,69.56c-.36.48-.85.43-1.35.32.3-.75.73-.93,1.35-.32Z"/>
              <path class="cls-6" d="M28.98,70.02c-.21.42-.56.4-.93.3.19-.47.39-.92.93-.3Z"/>
              <path class="cls-6" d="M23.01,73.34c-.3.03-.61.06-.91.08.2-.35.53-.43.91-.42.02.11.02.23,0,.34Z"/>
              <path class="cls-13" d="M16.47,90.52c.56.79.72,1.7.83,2.63-.97-.66-1.37-1.49-.83-2.63Z"/>
              <path class="cls-13" d="M49.09,87.59c-.98,1.29-2.43,1.1-3.79,1.18,0-.22,0-.44,0-.66,1.27-.17,2.53-.35,3.8-.52Z"/>
              <path class="cls-4" d="M37.84,94.71c-2.79,1.37-5.59,1.15-8.4.06-.42-.44-.84-.87-1.26-1.31,0-.14-.04-.27-.11-.39-.35-1.06-.96-2.11-1-3.18-.16-3.46-.09-6.94-.15-10.41-.01-.95.58-.9,1.25-.98,1.14-.14,2.37.47,3.42-.4,1.21.77,2.53.34,3.8.35.21.02.42.06.63.07,4.31.09,4.36.09,4.3,4.51-.05,3.37.53,6.81-1.06,10.02-.47.55-.95,1.09-1.42,1.64ZM35.12,80.72c.04-.05.12-.14.1-.16-.06-.1-.15-.19-.23-.28-3.06-.21-3.26-.01-2.22,2.3-.12.58-.12,1.27.58,1.27.76,0,1.6-.27,1.65-1.32-.01-.49-.02-.99-.03-1.48.09-.07.1-.16.03-.25,0,0,.13-.07.13-.07ZM34.97,87.58c.07-.31.14-.62.21-.93.33-.68.24-1.29-.52-1.52-.8-.25-1.76-.43-2.35.31-.6.75-.56,1.69.07,2.51.87,1.32,1.73,1.42,2.58-.03.05-.11.05-.23.01-.34ZM35.13,92.02c.23-.69.49-1.47-.42-1.79-.72-.25-1.57-.34-2.24.15-.53.38-.58.94-.02,1.43-.15.96-.14,1.95,1.06,2.13,1.43.22,1.41-1,1.63-1.92ZM38.04,85.29c-.97.05-1.96-.31-1.82,1.16.1,1.08,0,2.29,1.42,2.39,1.46.11,1.53-1.06,1.62-2.17.09-1.12-.32-1.56-1.23-1.37ZM29.8,85.32c-.98-.07-1.88-.19-1.73,1.3.11,1.13.19,2.25,1.6,2.22,1.28-.02,1.41-1.08,1.47-2.14.06-1.05-.19-1.65-1.34-1.39Z"/>
              <path class="cls-15" d="M37.84,94.71c.47-.55.95-1.09,1.42-1.64,2.18-.46,2.77,1.15,3.45,2.65-.31.64-.86,1.04-1.43,1.42-1.96.34-2.37-1.5-3.43-2.42Z"/>
              <path class="cls-3" d="M41.88,74.28c.05-.06.11-.1.19-.1.25,0,.5,0,.75,0,0,0,.16.1.16.1.09.43.37.66.7.95.8.73.64,2.06.34,2.67-.35.69-1.84.54-2.53.15-1.09-.62-.55-1.85-.24-2.78.1-.29.58-.55.64-1Z"/>
              <path class="cls-3" d="M35.39,78.47c-1.28-.01-2.6.42-3.8-.35.92-.79-.28-2.41,1.17-2.99.09.59.03,1.4.8,1.47.98.08.87-.83,1.01-1.47,1.5.82.42,2.26.82,3.35Z"/>
              <path class="cls-6" d="M43.57,84.17c.69,1.09.71,2.35-.06,3.21-.41.46-1.82.47-2.36-.07-.59-.58.09-1.39.59-1.97.92.1,1.73.03,1.82-1.17Z"/>
              <path class="cls-15" d="M43.57,84.17c-.09,1.2-.91,1.26-1.82,1.17-.52-.72-.17-1.31.36-1.76.8-.68.95.46,1.47.59Z"/>
              <path class="cls-15" d="M34.57,75.12c-.14.63-.03,1.55-1.01,1.47-.77-.07-.71-.87-.8-1.47.17-.28.33-.57.5-.85,0,0-.02-.07-.02-.07.28,0,.57,0,.85,0,0,0,0,.09,0,.09.16.28.33.56.49.85Z"/>
              <path class="cls-2" d="M39.73,98.68c.22-.13.45-.26.67-.39,1.92.75,3.78-.57,6.05-.2-2.07,1.07-4.05,1.08-5.94,1.38-.47.07-.78-.27-.78-.79Z"/>
              <path class="cls-18" d="M38.78,100.45c-1.02.31-2.1,1-2.87-.4-.01-.03.07-.15.11-.16.13-.02.27,0,.4,0,.61.89,1.58.31,2.35.56Z"/>
              <path class="cls-18" d="M44.36,100.35c-.31-.15-.62-.29-.93-.44.54-.29,1.12-.88,1.47.2,0,0-.02.04-.02.04-.18.07-.35.13-.53.2Z"/>
              <path class="cls-18" d="M42.21,100.02c-.41.35-.89.35-1.38.31.4-.36.88-.4,1.38-.31Z"/>
              <path class="cls-1" d="M19.95,97.04c-.43-.66.27-.92.47-1.35,1.13-.3,2.25-.6,3.38-.91.23.4.45.81.93.96.41.27.82.53,1.22.8.11.26.21.51.32.77,0,.16,0,.32,0,.48-.27.04-.53.07-.8.11-.41-.03-.82-.05-1.23-.08-.37-.41-.83-.46-1.34-.35-.41-.03-.82-.06-1.23-.1-.2-.36-.53-.39-.89-.35-.28,0-.57.01-.85.02Z"/>
              <path class="cls-3" d="M26.28,97.31c-.11-.26-.21-.51-.32-.77.89-.92,2.13-1.58,2.22-3.07.42.44.84.87,1.26,1.31-.98.94-1.56,2.37-3.16,2.54Z"/>
              <path class="cls-6" d="M43.17,101.46c.27.38.03.67-.15.98-1.67.31-2.94,2.07-4.89,1.35.07-.14.14-.28.2-.42,1.76-.27,3.23-1.26,4.84-1.91Z"/>
              <path class="cls-6" d="M44.36,100.35c.18-.07.35-.13.53-.2.3.52-.1.93-.2,1.39-.47.04-.93.09-1.34-.21.34-.33.68-.66,1.02-.98Z"/>
              <path class="cls-6" d="M25.48,97.89c.27-.04.53-.07.8-.11.17.17.34.34.51.52-.63.5-1.07.37-1.31-.41Z"/>
              <path class="cls-18" d="M38.33,103.37c-.07.14-.13.28-.2.42-.2-.01-.4-.02-.6-.03.27-.13.53-.26.8-.39Z"/>
              <path class="cls-13" d="M24.21,99.52c.62-.57,1.07-.49,1.34.34-.5.09-.98.13-1.34-.34Z"/>
              <path class="cls-18" d="M24.74,95.74c-.49-.15-.71-.55-.93-.96-.31-.44-.62-.87-.93-1.31.09-.6.25-1.2-.22-1.73-.03-5.84-.07-11.67-.1-17.51.56-.01,1.13-.02,1.69-.03.32.72.57.11.85-.04,2.72.04,5.44.07,8.15.11-.17.28-.33.57-.5.85-1.46.58-.25,2.2-1.17,2.99-1.05.87-2.28.26-3.42.4-.67.08-1.26.02-1.25.98.05,3.47,0,6.94.15,10.41.05,1.07.65,2.12,1,3.18-2.33-.64-2.43,1.5-3.33,2.66ZM26.28,85.71c-.28-.32.69-1.66-.8-1.38-1.07.2-2.52.05-2.49,1.94.02,1.27.78,1.12,1.55,1.14,1.05.03,2.13.1,1.74-1.69ZM24.66,78.16c.99.08,1.93.11,1.68-1.34-.13-.75.27-1.98-1.11-1.72-.96.18-2.24.23-2.23,1.91,0,1.44.9,1.1,1.66,1.14Z"/>
              <path class="cls-16" d="M43.2,72.44c.32.31.65.62.97.93-3.12,0-6.24-.02-9.36-.03.05-1.26.1-2.52.16-3.78,2.9.53,5.73,1.23,8.23,2.88Z"/>
              <path class="cls-9" d="M25.1,74.16c-.28.15-.53.76-.85.04.26-.4.55-.38.85-.04Z"/>
              <path class="cls-9" d="M34.09,74.19c-.28,0-.57,0-.85,0,.28-.37.57-.37.85,0Z"/>
              <path class="cls-9" d="M42.82,74.18c-.25,0-.5,0-.75,0,.25-.23.5-.24.75,0Z"/>
              <path class="cls-13" d="M19.11,82.8c-.27,0-.44-.11-.47-.39.16.13.31.26.47.39Z"/>
              <path class="cls-6" d="M22.92,97.47c.51-.11.97-.06,1.34.35-.62.54-1.08.48-1.34-.35Z"/>
              <path class="cls-6" d="M20.81,97.02c.36-.05.69-.01.89.35-.29.4-.61.38-.95.07.03-.14.05-.28.06-.42Z"/>
              <path class="cls-5" d="M20.81,97.02c0,.14-.02.28-.06.42-.22,0-.45,0-.67,0-.06-.13-.1-.26-.13-.39.28,0,.57-.01.85-.02Z"/>
              <path class="cls-10" d="M38.04,85.29c.91-.19,1.32.25,1.23,1.37-.09,1.12-.16,2.28-1.62,2.17-1.42-.1-1.32-1.31-1.42-2.39-.14-1.46.85-1.1,1.82-1.16Z"/>
              <path class="cls-10" d="M29.8,85.32c1.14-.26,1.4.34,1.34,1.39-.06,1.06-.19,2.11-1.47,2.14-1.41.02-1.49-1.09-1.6-2.22-.15-1.49.75-1.37,1.73-1.3Z"/>
              <path class="cls-15" d="M24.74,95.74c.89-1.16,1-3.3,3.33-2.66.07.12.11.25.11.39-.09,1.49-1.33,2.16-2.22,3.07-.41-.27-.81-.53-1.22-.8Z"/>
              <path class="cls-17" d="M32.38,87.96c-.63-.82-.67-1.75-.07-2.51.59-.74,1.55-.56,2.35-.31.76.23.85.84.52,1.52-1.07.14-2.5-.49-2.8,1.3Z"/>
              <path class="cls-10" d="M35.13,92.02c-.23.92-.21,2.14-1.63,1.92-1.2-.18-1.21-1.17-1.06-2.13.95-.59,1.78.33,2.69.21ZM34.47,92.83l-.14-.07v.13s.14-.07.14-.07Z"/>
              <path class="cls-11" d="M35.13,92.02c-.91.12-1.74-.8-2.69-.21-.56-.49-.5-1.05.02-1.43.67-.49,1.53-.39,2.24-.15.92.32.66,1.1.42,1.79Z"/>
              <path class="cls-10" d="M32.77,82.58c-1.04-2.31-.84-2.51,2.22-2.3.04.15.08.29.13.44,0,0-.13.07-.13.07-.24.04-.48.08-.72.12.19.25.43.22.69.13.01.49.02.99.03,1.48-.75-.19-1.52-1.62-2.22.05ZM32.99,81.04l.14-.11s-.08-.09-.11-.13c-.05.05-.1.11-.14.16.04.02.08.05.12.07Z"/>
              <path class="cls-10" d="M32.38,87.96c.3-1.79,1.73-1.16,2.8-1.3-.07.31-.14.62-.21.93-.19.02-.38.03-.58.05.03.39.38.18.57.29-.84,1.46-1.7,1.35-2.58.03Z"/>
              <path class="cls-17" d="M32.77,82.58c.7-1.68,1.48-.25,2.22-.05-.05,1.06-.88,1.33-1.65,1.32-.7,0-.7-.69-.58-1.27Z"/>
              <path class="cls-17" d="M34.95,87.92c-.18-.11-.53.1-.57-.29.19-.02.38-.03.58-.05.04.11.04.23-.01.34Z"/>
              <path class="cls-11" d="M34.96,81.05c-.26.09-.5.11-.69-.13.24-.04.48-.08.72-.12.08.09.07.18-.03.25Z"/>
              <path class="cls-11" d="M35.12,80.72c-.04-.15-.08-.29-.13-.44.08.09.17.18.23.28.01.02-.07.1-.1.16Z"/>
              <path class="cls-15" d="M26.28,85.71c.39,1.8-.69,1.73-1.74,1.69-.78-.02-1.53.12-1.55-1.14-.03-1.88,1.42-1.74,2.49-1.94,1.49-.27.52,1.07.8,1.38Z"/>
              <path class="cls-3" d="M24.66,78.16c-.76-.05-1.65.3-1.66-1.14,0-1.68,1.27-1.73,2.23-1.91,1.37-.26.98.97,1.11,1.72.25,1.44-.69,1.42-1.68,1.34Z"/>
              <polygon class="cls-11" points="34.47 92.83 34.33 92.89 34.33 92.76 34.47 92.83"/>
              <path class="cls-4" d="M32.99,81.04s-.08-.05-.12-.07c.05-.05.1-.11.14-.16.04.04.08.09.11.13-.05.04-.09.07-.14.11Z"/>
            </g>
          </g>
        </g>
        <g>
          <path class="cls-7" d="M28.52,43.16h19.52c1.46,0,2.65,1.19,2.65,2.65v5.5c0,1.46-1.19,2.65-2.65,2.65h-19.52c-1.46,0-2.65-1.19-2.65-2.65v-5.5c0-1.46,1.19-2.65,2.65-2.65Z" transform="translate(-.47 .38) rotate(-.56)"/>
          <path class="cls-7" d="M38.28,45.58c-.24,0-.48-.09-.72-.29-3.09-2.62-5.49-25.22-5.58-26.81h0c-.2-3.63-.31-8.96,1.11-13.3.78-2.4,2.17-4.29,3.62-4.94,1.17-.51,2.28-.22,3.2.85,1.99,2.3,2.36,7.03,2.46,10.38.17,5.44.02,10.94-.44,16.36-.04.45-.08,1.04-.13,1.74-.5,6.77-1.12,13.53-2.61,15.44-.29.37-.6.56-.92.56ZM37.78,2.8c-.26,0-.51.08-.71.17-1.07.47-2.1,1.87-2.68,3.66-1.18,3.62-1.08,8.33-.9,11.56h0c.27,4.83,2.9,23.02,4.7,24.55,1.2-1.38,1.86-10.21,2.11-13.54.05-.72.1-1.34.14-1.8.45-5.22.59-10.53.43-15.76-.14-4.35-.69-6.95-1.75-8.17-.44-.51-.91-.67-1.33-.67Z"/>
        </g>
      </g>
      <g>
        <path class="cls-7" d="M22.5,152.17c1.51-.25,3.49-.47,6.01-.47,3.1,0,5.36.72,6.8,2.02,1.33,1.15,2.12,2.92,2.12,5.08s-.65,3.92-1.87,5.18c-1.66,1.76-4.36,2.66-7.42,2.66-.94,0-1.8-.04-2.52-.22v9.72h-3.13v-23.97ZM25.63,163.87c.68.18,1.55.25,2.59.25,3.78,0,6.08-1.84,6.08-5.18s-2.27-4.75-5.72-4.75c-1.37,0-2.41.11-2.95.25v9.43Z"/>
        <path class="cls-7" d="M46.26,154.55h-7.38v-2.66h17.96v2.66h-7.42v21.6h-3.17v-21.6Z"/>
      </g>
    </g>
  </g>
</svg>