<?xml version="1.0" encoding="UTF-8"?>
<svg id="Calque_2" data-name="Calque 2" xmlns="http://www.w3.org/2000/svg" xmlns:xlink="http://www.w3.org/1999/xlink" viewBox="0 0 76.57 176.54">
  <defs>
    <style>
      .cls-1 {
        fill: #fefefe;
      }

      .cls-1, .cls-2, .cls-3, .cls-4, .cls-5 {
        stroke-width: 0px;
      }

      .cls-2 {
        fill: #d52718;
      }

      .cls-3 {
        fill: #fff;
      }

      .cls-6, .cls-4 {
        fill: #32544f;
      }

      .cls-7 {
        clip-path: url(#clippath);
      }

      .cls-5 {
        fill: #0036a6;
      }
    </style>
    <clipPath id="clippath">
      <circle class="cls-4" cx="38.29" cy="87.7" r="38.29" transform="translate(-53.51 60.66) rotate(-50)"/>
    </clipPath>
  </defs>
  <g id="OBJECTS">
    <g>
      <g>
        <g>
          <circle class="cls-6" cx="38.29" cy="87.7" r="38.29" transform="translate(-53.51 60.66) rotate(-50)"/>
          <g class="cls-7">
            <g>
              <path class="cls-5" d="M-28.72,100.98c0-9.02,0-18.05,0-27.07.35.02.69.04,1.04.05,39.7,0,79.4,0,119.09,0,.35,0,.69-.03,1.04-.05v27.07c-.35-.01-.69-.04-1.04-.04-39.7,0-79.39,0-119.09,0-.35,0-.69.03-1.04.04Z"/>
              <path class="cls-1" d="M92.45,73.91c-.35.02-.69.04-1.04.05-39.7,0-79.4,0-119.09,0-.35,0-.69-.03-1.04-.05,0-8.73,0-17.47-.01-26.2,0-.52.05-.7.66-.7,39.96.02,79.91.02,119.87,0,.61,0,.66.17.66.7-.02,8.73-.01,17.47-.01,26.2Z"/>
              <path class="cls-2" d="M-28.72,100.98c.35-.01.69-.04,1.04-.04,39.7,0,79.39,0,119.09,0,.35,0,.69.03,1.04.04,0,8.74,0,17.48.02,26.22,0,.56-.11.68-.68.68-39.95-.02-79.89-.02-119.84,0-.56,0-.68-.11-.68-.68.02-8.74.02-17.48.02-26.22Z"/>
            </g>
          </g>
        </g>
        <g>
          <path class="cls-3" d="M28.52,43.16h19.52c1.46,0,2.65,1.19,2.65,2.65v5.5c0,1.46-1.19,2.65-2.65,2.65h-19.52c-1.46,0-2.65-1.19-2.65-2.65v-5.5c0-1.46,1.19-2.65,2.65-2.65Z" transform="translate(-.47 .38) rotate(-.56)"/>
          <path class="cls-3" d="M38.28,45.58c-.24,0-.48-.09-.72-.29-3.09-2.62-5.49-25.22-5.58-26.81h0c-.2-3.63-.31-8.96,1.11-13.3.78-2.4,2.17-4.29,3.62-4.94,1.17-.51,2.28-.22,3.2.85,1.99,2.3,2.36,7.03,2.46,10.38.17,5.44.02,10.94-.44,16.36-.04.45-.08,1.04-.13,1.74-.5,6.77-1.12,13.53-2.61,15.44-.29.37-.6.56-.92.56ZM37.78,2.8c-.26,0-.51.08-.71.17-1.07.47-2.1,1.87-2.68,3.66-1.18,3.62-1.08,8.33-.9,11.56h0c.27,4.83,2.9,23.02,4.7,24.55,1.2-1.38,1.86-10.21,2.11-13.54.05-.72.1-1.34.14-1.8.45-5.22.59-10.53.43-15.76-.14-4.35-.69-6.95-1.75-8.17-.44-.51-.91-.67-1.33-.67Z"/>
        </g>
      </g>
      <g>
        <path class="cls-3" d="M19.69,152.21c1.58-.32,3.85-.5,6.01-.5,3.35,0,5.51.61,7.02,1.98,1.22,1.08,1.91,2.74,1.91,4.61,0,3.2-2.02,5.33-4.57,6.19v.11c1.87.65,2.99,2.38,3.56,4.9.79,3.38,1.37,5.72,1.87,6.66h-3.24c-.4-.68-.94-2.77-1.62-5.79-.72-3.35-2.02-4.61-4.86-4.72h-2.95v10.51h-3.13v-23.94ZM22.82,163.26h3.21c3.35,0,5.47-1.83,5.47-4.61,0-3.13-2.27-4.5-5.58-4.54-1.51,0-2.59.14-3.1.29v8.85Z"/>
        <path class="cls-3" d="M42.19,151.88v14.36c0,5.43,2.41,7.74,5.65,7.74,3.6,0,5.9-2.38,5.9-7.74v-14.36h3.17v14.15c0,7.45-3.92,10.51-9.18,10.51-4.97,0-8.71-2.84-8.71-10.37v-14.29h3.17Z"/>
      </g>
    </g>
  </g>
</svg>