<?xml version="1.0" encoding="UTF-8"?>
<svg id="Calque_2" data-name="Calque 2" xmlns="http://www.w3.org/2000/svg" xmlns:xlink="http://www.w3.org/1999/xlink" viewBox="0 0 85.81 177.5">
  <defs>
    <style>
      .cls-1 {
        fill: #043776;
      }

      .cls-1, .cls-2, .cls-3, .cls-4, .cls-5, .cls-6, .cls-7, .cls-8, .cls-9, .cls-10, .cls-11, .cls-12, .cls-13, .cls-14, .cls-15, .cls-16, .cls-17, .cls-18, .cls-19, .cls-20, .cls-21, .cls-22, .cls-23, .cls-24, .cls-25, .cls-26, .cls-27, .cls-28, .cls-29, .cls-30, .cls-31, .cls-32, .cls-33, .cls-34, .cls-35, .cls-36, .cls-37, .cls-38, .cls-39, .cls-40, .cls-41, .cls-42, .cls-43, .cls-44, .cls-45, .cls-46, .cls-47, .cls-48, .cls-49, .cls-50, .cls-51, .cls-52, .cls-53, .cls-54, .cls-55, .cls-56, .cls-57, .cls-58, .cls-59, .cls-60, .cls-61, .cls-62, .cls-63, .cls-64, .cls-65, .cls-66, .cls-67, .cls-68, .cls-69, .cls-70, .cls-71, .cls-72, .cls-73, .cls-74, .cls-75, .cls-76, .cls-77, .cls-78, .cls-79, .cls-80, .cls-81, .cls-82, .cls-83, .cls-84, .cls-85, .cls-86, .cls-87, .cls-88, .cls-89, .cls-90, .cls-91, .cls-92, .cls-93, .cls-94, .cls-95, .cls-96, .cls-97, .cls-98, .cls-99, .cls-100, .cls-101, .cls-102, .cls-103, .cls-104, .cls-105, .cls-106, .cls-107, .cls-108, .cls-109, .cls-110, .cls-111, .cls-112, .cls-113, .cls-114, .cls-115, .cls-116, .cls-117, .cls-118, .cls-119, .cls-120, .cls-121, .cls-122, .cls-123, .cls-124, .cls-125, .cls-126, .cls-127, .cls-128, .cls-129, .cls-130, .cls-131, .cls-132, .cls-133, .cls-134, .cls-135, .cls-136, .cls-137, .cls-138, .cls-139, .cls-140, .cls-141, .cls-142, .cls-143, .cls-144, .cls-145, .cls-146, .cls-147, .cls-148, .cls-149, .cls-150, .cls-151, .cls-152, .cls-153, .cls-154, .cls-155, .cls-156, .cls-157, .cls-158, .cls-159, .cls-160, .cls-161, .cls-162, .cls-163, .cls-164, .cls-165, .cls-166, .cls-167, .cls-168, .cls-169, .cls-170, .cls-171, .cls-172, .cls-173, .cls-174, .cls-175, .cls-176, .cls-177, .cls-178, .cls-179, .cls-180, .cls-181, .cls-182, .cls-183, .cls-184, .cls-185, .cls-186, .cls-187, .cls-188, .cls-189, .cls-190, .cls-191, .cls-192, .cls-193, .cls-194, .cls-195, .cls-196, .cls-197, .cls-198, .cls-199, .cls-200, .cls-201, .cls-202, .cls-203, .cls-204, .cls-205, .cls-206, .cls-207, .cls-208, .cls-209, .cls-210, .cls-211, .cls-212, .cls-213, .cls-214, .cls-215, .cls-216, .cls-217, .cls-218, .cls-219, .cls-220, .cls-221, .cls-222, .cls-223, .cls-224, .cls-225, .cls-226, .cls-227, .cls-228, .cls-229, .cls-230, .cls-231, .cls-232, .cls-233, .cls-234, .cls-235, .cls-236, .cls-237, .cls-238, .cls-239, .cls-240, .cls-241, .cls-242, .cls-243, .cls-244, .cls-245, .cls-246, .cls-247, .cls-248, .cls-249, .cls-250, .cls-251, .cls-252, .cls-253, .cls-254, .cls-255, .cls-256, .cls-257, .cls-258, .cls-259, .cls-260, .cls-261, .cls-262, .cls-263, .cls-264, .cls-265, .cls-266, .cls-267, .cls-268, .cls-269, .cls-270, .cls-271, .cls-272, .cls-273, .cls-274, .cls-275, .cls-276, .cls-277, .cls-278, .cls-279, .cls-280, .cls-281, .cls-282, .cls-283, .cls-284, .cls-285, .cls-286, .cls-287, .cls-288, .cls-289, .cls-290, .cls-291, .cls-292, .cls-293, .cls-294, .cls-295, .cls-296, .cls-297, .cls-298, .cls-299, .cls-300, .cls-301, .cls-302, .cls-303 {
        stroke-width: 0px;
      }

      .cls-2 {
        fill: #c33a3d;
      }

      .cls-3 {
        fill: #cac6c5;
      }

      .cls-4 {
        fill: #e4e4e4;
      }

      .cls-5 {
        fill: #b69014;
      }

      .cls-6 {
        fill: #fefefe;
      }

      .cls-7 {
        fill: #d7d2d2;
      }

      .cls-8 {
        fill: #c5952b;
      }

      .cls-9 {
        fill: #af131b;
      }

      .cls-10 {
        fill: #ba9a3d;
      }

      .cls-11 {
        fill: #726c6b;
      }

      .cls-12 {
        fill: #c4393f;
      }

      .cls-13 {
        fill: #e3d8d8;
      }

      .cls-14 {
        fill: #c33036;
      }

      .cls-15 {
        fill: #e7e0e0;
      }

      .cls-16 {
        fill: #c4292f;
      }

      .cls-17 {
        fill: #bb333a;
      }

      .cls-18 {
        fill: #927037;
      }

      .cls-19 {
        fill: #ab4435;
      }

      .cls-20 {
        fill: #dcdcdc;
      }

      .cls-21 {
        fill: #e9b62d;
      }

      .cls-22 {
        fill: #b2242b;
      }

      .cls-23 {
        fill: #c3942f;
      }

      .cls-24 {
        fill: #c39b2f;
      }

      .cls-25 {
        fill: #f5f2f2;
      }

      .cls-26 {
        fill: #c51c25;
      }

      .cls-27 {
        fill: #c2393a;
      }

      .cls-28 {
        fill: #e0b02d;
      }

      .cls-29 {
        fill: #ae8a13;
      }

      .cls-30 {
        fill: #ecb92e;
      }

      .cls-31 {
        fill: #dbd8d1;
      }

      .cls-32 {
        fill: #c0922b;
      }

      .cls-33 {
        fill: #ce3536;
      }

      .cls-34 {
        fill: #f3f3f3;
      }

      .cls-35 {
        fill: #b7342a;
      }

      .cls-36 {
        fill: #b23c41;
      }

      .cls-37 {
        fill: #aeb6b5;
      }

      .cls-38 {
        fill: #c6972b;
      }

      .cls-39 {
        fill: #e3ad2e;
      }

      .cls-40 {
        fill: #e5b32d;
      }

      .cls-41 {
        fill: #d9bac0;
      }

      .cls-42 {
        fill: #435058;
      }

      .cls-43 {
        fill: #bd383d;
      }

      .cls-44 {
        fill: #623f47;
      }

      .cls-45 {
        fill: #94aabf;
      }

      .cls-46 {
        fill: #c63f44;
      }

      .cls-47 {
        fill: #f6f5f5;
      }

      .cls-48 {
        fill: #c3262e;
      }

      .cls-49 {
        fill: #002468;
      }

      .cls-50 {
        fill: #c3222a;
      }

      .cls-51 {
        fill: #93787b;
      }

      .cls-52 {
        fill: #1c426b;
      }

      .cls-53 {
        fill: #c1981c;
      }

      .cls-54 {
        fill: #c4c0bf;
      }

      .cls-55 {
        fill: #ba3a37;
      }

      .cls-56 {
        fill: #e1e1e1;
      }

      .cls-57 {
        fill: #d19f00;
      }

      .cls-58 {
        fill: #f3f1ee;
      }

      .cls-59 {
        fill: #e8b62d;
      }

      .cls-60 {
        fill: #c89d2b;
      }

      .cls-61 {
        fill: #ececec;
      }

      .cls-62 {
        fill: #c0999a;
      }

      .cls-63 {
        fill: #bc4046;
      }

      .cls-64 {
        fill: #d8cac7;
      }

      .cls-65 {
        fill: #ad8c26;
      }

      .cls-66 {
        fill: #e6e6e6;
      }

      .cls-67 {
        fill: #dfd5d5;
      }

      .cls-68 {
        fill: #b0171e;
      }

      .cls-69 {
        fill: #cdcdcc;
      }

      .cls-70 {
        fill: #c51b24;
      }

      .cls-71 {
        fill: #aca493;
      }

      .cls-72 {
        fill: #c8c8c7;
      }

      .cls-73 {
        fill: #c1393e;
      }

      .cls-74 {
        fill: #f0dcdd;
      }

      .cls-75 {
        fill: #c42c32;
      }

      .cls-76 {
        fill: #f7f7f7;
      }

      .cls-77 {
        fill: #c3262d;
      }

      .cls-78 {
        fill: #ebdcdd;
      }

      .cls-79 {
        fill: #c7363e;
      }

      .cls-80 {
        fill: #b7383e;
      }

      .cls-81 {
        fill: #d1d1d0;
      }

      .cls-82 {
        fill: #002c6b;
      }

      .cls-83 {
        fill: #a27f2f;
      }

      .cls-84 {
        fill: #e3e3e3;
      }

      .cls-85 {
        fill: #af2e34;
      }

      .cls-86 {
        fill: #c6952c;
      }

      .cls-87 {
        fill: #d3c193;
      }

      .cls-88 {
        fill: #be4837;
      }

      .cls-89 {
        fill: #805d2b;
      }

      .cls-90 {
        fill: #ac9a6f;
      }

      .cls-91 {
        fill: #bb313b;
      }

      .cls-92 {
        fill: #c8b58d;
      }

      .cls-93 {
        fill: #b22229;
      }

      .cls-94 {
        fill: #f4f5f5;
      }

      .cls-95 {
        fill: #b1393e;
      }

      .cls-96 {
        fill: #989898;
      }

      .cls-97 {
        fill: #d1cccc;
      }

      .cls-98 {
        fill: #b64348;
      }

      .cls-99 {
        fill: #d2a72b;
      }

      .cls-100 {
        fill: #c4363d;
      }

      .cls-101 {
        fill: #0c4076;
      }

      .cls-102 {
        fill: #f5f5f5;
      }

      .cls-103 {
        fill: #c89e2a;
      }

      .cls-104 {
        fill: #c59636;
      }

      .cls-105 {
        fill: #be242b;
      }

      .cls-106 {
        fill: #c33238;
      }

      .cls-107 {
        fill: #c3972b;
      }

      .cls-108 {
        fill: #cea32b;
      }

      .cls-109 {
        fill: #bf9224;
      }

      .cls-110 {
        fill: #c43a3b;
      }

      .cls-111 {
        fill: #f1eeee;
      }

      .cls-112 {
        fill: #f0f0f0;
      }

      .cls-113 {
        fill: #c24339;
      }

      .cls-114, .cls-304 {
        fill: none;
      }

      .cls-115 {
        fill: #ded7c0;
      }

      .cls-116 {
        fill: #e3b42d;
      }

      .cls-117 {
        fill: #dfdfdf;
      }

      .cls-118 {
        fill: #c59932;
      }

      .cls-119 {
        fill: #ecdede;
      }

      .cls-120 {
        fill: #9a8553;
      }

      .cls-121 {
        fill: #bd9495;
      }

      .cls-122 {
        fill: #bb882c;
      }

      .cls-123 {
        fill: #e8b108;
      }

      .cls-124 {
        fill: #d5caae;
      }

      .cls-125 {
        fill: #c59528;
      }

      .cls-126 {
        fill: #003e78;
      }

      .cls-127 {
        fill: #c3393d;
      }

      .cls-128 {
        fill: #a72e36;
      }

      .cls-129 {
        fill: #c6c6c5;
      }

      .cls-130 {
        fill: #ddd;
      }

      .cls-131 {
        fill: #d39f2d;
      }

      .cls-132 {
        fill: #c4962c;
      }

      .cls-133 {
        fill: #c62e3d;
      }

      .cls-134 {
        fill: #dfdadb;
      }

      .cls-135 {
        fill: #dfd3d3;
      }

      .cls-136 {
        fill: #b15242;
      }

      .cls-137 {
        fill: #a83236;
      }

      .cls-138 {
        fill: #c4323c;
      }

      .cls-139 {
        fill: #8d542b;
      }

      .cls-140 {
        fill: #af2c35;
      }

      .cls-141 {
        fill: #cab7b7;
      }

      .cls-142 {
        fill: #c23c3a;
      }

      .cls-143 {
        fill: #b85334;
      }

      .cls-144 {
        fill: #d2d2d2;
      }

      .cls-145 {
        fill: #e2dfdf;
      }

      .cls-146 {
        fill: #9f6b2b;
      }

      .cls-147 {
        fill: #b22e34;
      }

      .cls-148 {
        fill: #786b28;
      }

      .cls-149 {
        fill: #aa484b;
      }

      .cls-150 {
        fill: #b4151d;
      }

      .cls-151 {
        fill: #c12930;
      }

      .cls-152 {
        fill: #825f5f;
      }

      .cls-153 {
        fill: #dadada;
      }

      .cls-154 {
        fill: #b81521;
      }

      .cls-155 {
        fill: #d3c8be;
      }

      .cls-156 {
        fill: #896b38;
      }

      .cls-157 {
        fill: #d5cfc0;
      }

      .cls-158 {
        fill: #9e171d;
      }

      .cls-159 {
        fill: #fff;
      }

      .cls-160 {
        fill: #d29e2d;
      }

      .cls-161 {
        fill: #9d8027;
      }

      .cls-162 {
        fill: #cfc9bb;
      }

      .cls-163 {
        fill: #b3262d;
      }

      .cls-164 {
        fill: #d4d4d4;
      }

      .cls-165 {
        fill: #b88836;
      }

      .cls-166 {
        fill: #c5383c;
      }

      .cls-167 {
        fill: #c1952b;
      }

      .cls-168 {
        fill: #c99e2b;
      }

      .cls-169 {
        fill: #e6b532;
      }

      .cls-170 {
        fill: #bc4e36;
      }

      .cls-171 {
        fill: #ededed;
      }

      .cls-172 {
        fill: #d9cba6;
      }

      .cls-173 {
        fill: #f8f8f8;
      }

      .cls-174 {
        fill: #d2a32c;
      }

      .cls-175 {
        fill: #c43339;
      }

      .cls-176 {
        fill: #a88612;
      }

      .cls-177 {
        fill: #d5d5d5;
      }

      .cls-178 {
        fill: #fafafa;
      }

      .cls-179 {
        fill: #c4962b;
      }

      .cls-180 {
        fill: #cfc5b2;
      }

      .cls-181 {
        fill: #c8a038;
      }

      .cls-182 {
        fill: #d4a72b;
      }

      .cls-183 {
        fill: #d3d3d3;
      }

      .cls-184 {
        fill: #d8a12f;
      }

      .cls-185 {
        fill: #dead26;
      }

      .cls-186 {
        fill: #e5decd;
      }

      .cls-187 {
        fill: #cb5456;
      }

      .cls-188 {
        fill: #c79d2d;
      }

      .cls-189 {
        fill: #be2e3b;
      }

      .cls-190 {
        fill: #baa161;
      }

      .cls-191 {
        fill: #cab6b6;
      }

      .cls-192 {
        fill: #c23e3b;
      }

      .cls-193 {
        fill: #eee;
      }

      .cls-194 {
        fill: #a87b2a;
      }

      .cls-195 {
        fill: #afb5b4;
      }

      .cls-196 {
        fill: #d1d1d1;
      }

      .cls-305 {
        clip-path: url(#clippath);
      }

      .cls-197 {
        fill: #e7e6e6;
      }

      .cls-198 {
        fill: #c6c1b5;
      }

      .cls-199 {
        fill: #f2efef;
      }

      .cls-200 {
        fill: #c79c17;
      }

      .cls-201 {
        fill: #f8f6f6;
      }

      .cls-202 {
        fill: #b61c25;
      }

      .cls-203 {
        fill: #fbf8f8;
      }

      .cls-204 {
        fill: #d9d9d9;
      }

      .cls-205 {
        fill: #be832f;
      }

      .cls-206 {
        fill: #ae8200;
      }

      .cls-207 {
        fill: #c2443b;
      }

      .cls-208 {
        fill: #c3aea7;
      }

      .cls-209 {
        fill: #f2f4f4;
      }

      .cls-210 {
        fill: #c0c1c0;
      }

      .cls-211 {
        fill: #c10010;
      }

      .cls-212 {
        fill: #bb4d39;
      }

      .cls-213 {
        fill: #e0dfdb;
      }

      .cls-214 {
        fill: #cfac29;
      }

      .cls-215 {
        fill: #f4f4f4;
      }

      .cls-216 {
        fill: #00417a;
      }

      .cls-217 {
        fill: #c4383c;
      }

      .cls-218 {
        fill: #bf3f40;
      }

      .cls-219 {
        fill: #e4b12d;
      }

      .cls-220 {
        fill: #cbb17a;
      }

      .cls-221 {
        fill: #9b9b9a;
      }

      .cls-222 {
        fill: #c5363c;
      }

      .cls-223 {
        fill: #99141a;
      }

      .cls-224 {
        fill: #c39631;
      }

      .cls-225 {
        fill: #ebede6;
      }

      .cls-226 {
        fill: #c49434;
      }

      .cls-227 {
        fill: #f6f4f4;
      }

      .cls-228 {
        fill: #dbdbdb;
      }

      .cls-229 {
        fill: #f2bf2e;
      }

      .cls-230 {
        fill: #bb233b;
      }

      .cls-231 {
        fill: #f1f1f1;
      }

      .cls-232 {
        fill: #e0ad2d;
      }

      .cls-233 {
        fill: #d9cfb6;
      }

      .cls-234 {
        fill: #ebebeb;
      }

      .cls-235 {
        fill: #b1151d;
      }

      .cls-236 {
        fill: #d4a72c;
      }

      .cls-237 {
        fill: #e4e1d9;
      }

      .cls-238 {
        fill: #c1952a;
      }

      .cls-239 {
        fill: #c12129;
      }

      .cls-240 {
        fill: #d7d7d7;
      }

      .cls-241 {
        fill: #d0d0d0;
      }

      .cls-242 {
        fill: #c33a40;
      }

      .cls-243 {
        fill: #c73840;
      }

      .cls-244 {
        fill: #cfa32b;
      }

      .cls-245 {
        fill: #f9f9f9;
      }

      .cls-246 {
        fill: #e7babb;
      }

      .cls-247 {
        fill: #d6d6d6;
      }

      .cls-248 {
        fill: #f2f9f8;
      }

      .cls-304 {
        stroke: #fff;
        stroke-linecap: round;
        stroke-miterlimit: 10;
        stroke-width: 2px;
      }

      .cls-249 {
        fill: #fbfafa;
      }

      .cls-250 {
        fill: #fbfbfb;
      }

      .cls-251 {
        fill: #deae2c;
      }

      .cls-252 {
        fill: #f5f6f6;
      }

      .cls-253 {
        fill: #cfcfcf;
      }

      .cls-254 {
        fill: #e8e8e8;
      }

      .cls-255 {
        fill: #bb243b;
      }

      .cls-256 {
        fill: #b63c38;
      }

      .cls-257 {
        fill: #c63c41;
      }

      .cls-258 {
        fill: #d6a82c;
      }

      .cls-259 {
        fill: #e4e2de;
      }

      .cls-260 {
        fill: #fdfdfd;
      }

      .cls-261 {
        fill: #b88e2a;
      }

      .cls-262 {
        fill: #f6efef;
      }

      .cls-263 {
        fill: #f6c42e;
      }

      .cls-264 {
        fill: #c3373d;
      }

      .cls-265 {
        fill: #dcd2ce;
      }

      .cls-266 {
        fill: #c23337;
      }

      .cls-267 {
        fill: #cb9d2d;
      }

      .cls-268 {
        fill: #ddac2d;
      }

      .cls-269 {
        fill: #c5373c;
      }

      .cls-270 {
        fill: #edba2e;
      }

      .cls-271 {
        fill: #ddd6d6;
      }

      .cls-272 {
        fill: #c2272e;
      }

      .cls-273 {
        fill: #c69c2a;
      }

      .cls-274 {
        fill: #c5383e;
      }

      .cls-275 {
        fill: #cfbfc0;
      }

      .cls-276 {
        fill: #dad1d1;
      }

      .cls-277 {
        fill: #ba1720;
      }

      .cls-278 {
        fill: #d5c5b2;
      }

      .cls-279 {
        fill: #e6e3e1;
      }

      .cls-280 {
        fill: #e2af2d;
      }

      .cls-281 {
        fill: #ebebea;
      }

      .cls-282 {
        fill: #c22028;
      }

      .cls-283 {
        fill: #c53f44;
      }

      .cls-284 {
        fill: #c5bdab;
      }

      .cls-285 {
        fill: #fcfcfc;
      }

      .cls-286 {
        fill: #b83138;
      }

      .cls-287 {
        fill: #f3ecec;
      }

      .cls-288 {
        fill: #f2f2f2;
      }

      .cls-289 {
        fill: #ddb6b7;
      }

      .cls-290 {
        fill: #b5252b;
      }

      .cls-291 {
        fill: #d0a42b;
      }

      .cls-292 {
        fill: #d2a52e;
      }

      .cls-293 {
        fill: #e2e2df;
      }

      .cls-294 {
        fill: #c4c5c4;
      }

      .cls-295 {
        fill: #c02632;
      }

      .cls-296 {
        fill: #d8d8d8;
      }

      .cls-297 {
        fill: #6c685d;
      }

      .cls-298 {
        fill: #efefef;
      }

      .cls-299 {
        fill: #e7b52f;
      }

      .cls-300 {
        fill: #a61219;
      }

      .cls-301 {
        fill: #c29e9f;
      }

      .cls-302 {
        fill: #c2252c;
      }

      .cls-303 {
        fill: #c79815;
      }
    </style>
    <clipPath id="clippath">
      <path class="cls-114" d="M48.36,48.74l11.94,14.99c.79.99,1.83,1.74,3.01,2.19l17.95,6.73c4.2,1.57,5.85,6.64,3.37,10.39l-10.57,15.99c-.7,1.05-1.09,2.28-1.15,3.54l-.85,19.15c-.2,4.48-4.51,7.62-8.84,6.42l-18.48-5.11c-1.22-.34-2.5-.34-3.72,0l-18.48,5.11c-4.32,1.2-8.64-1.94-8.84-6.42l-.85-19.15c-.06-1.26-.45-2.49-1.15-3.54l-10.57-15.99c-2.47-3.74-.83-8.81,3.37-10.39l17.95-6.73c1.18-.44,2.22-1.2,3.01-2.19l11.95-14.99c2.79-3.51,8.13-3.51,10.92,0Z"/>
    </clipPath>
  </defs>
  <g id="OBJECTS">
    <g>
      <g>
        <line class="cls-304" x1="42.77" y1="45.67" x2="42.77" y2="1"/>
        <g class="cls-305">
          <g>
            <path class="cls-6" d="M129.13,106c0,9.43-.03,18.87.03,28.3,0,1.22-.28,1.5-1.5,1.49-43.77-.04-87.53-.04-131.3,0-1.22,0-1.5-.27-1.5-1.49.06-9.43.03-18.87.03-28.3.79-.73,1.78-.68,2.75-.68,9.22,0,18.43-.06,27.64.03.28.01.56.07.83.15.96.36,1.13,1.33,1.6,2.07.09.21.15.43.18.65-.04.75.16,1.44.53,2.08.31.64.61,1.29.97,1.91.37.75.94,1.33,1.5,1.93.74,1.22,1.93,1.97,3,2.85,1.93,1.66,4.18,2.59,6.68,2.97,1.5.04,3.01.12,4.5-.08.21-.07.43-.13.65-.17.74-.14,1.5-.12,2.21-.41.49-.19.96-.41,1.43-.64.87-.39,1.64-.94,2.41-1.48,1.45-1.13,2.75-2.39,3.79-3.91.47-.58.56-1.31.81-1.98.44-.69,1.03-1.29,1.34-2.07.1-.3.22-.59.33-.88.2-.51.34-1.05.55-1.56.22-.46.48-.89.94-1.15.25-.13.52-.21.8-.26.3-.04.59-.06.89-.07,21.47-.03,42.94-.01,64.4,0,1.2,0,2.47-.22,3.5.68Z"/>
            <path class="cls-222" d="M-5.1,75.74c0-9.27.03-18.54-.03-27.82,0-1.22.28-1.5,1.5-1.49,43.77.04,87.53.04,131.3,0,1.22,0,1.5.27,1.5,1.49-.06,9.27-.03,18.54-.03,27.82-1.11.95-2.47.68-3.74.68-21.69.02-43.39.01-65.08.01-2.27,0-4.54-.09-6.81.05-.27.05-.53.04-.79-.04-.39-.19-.51-.54-.53-.94.04-.59.2-1.17.21-1.76.02-.57.03-1.13.12-1.69.04-.22.11-.42.21-.62.36-.65,1.04-1.04,1.37-1.7.29-.55.33-1.19.58-1.75.15-.29.37-.53.61-.75.6-.48.98-1.12,1.27-1.82.24-.65.57-1.3-.1-1.9-.24-.18-.49-.34-.74-.49-.09-.05-.17-.11-.26-.16-.17-.11-.32-.24-.47-.38-.58-.62-1.39-.8-2.14-1.09-.86-.46-1.8-.67-2.74-.91-.43-.15-.84-.32-1.26-.49-1.27-.64-2.69-.64-4.04-.96-.79-.31-1.53-.7-1.81-1.59,0-.08,0-.16-.02-.23-.16-.42.66-1.21-.27-1.23-.47-.01-.08.79-.13,1.22-.07.76-.52,1.27-1.11,1.69-.2.11-.41.2-.63.27-.98.19-1.93.54-2.92.72-1.25-.04-2.3.52-3.35,1.08-.49.24-.99.47-1.53.6-.87.15-1.75.26-2.54.7-.33.17-.67.34-.95.59-.19.18-.38.36-.55.56-.15.23-.21.48-.21.75.18.71-.22,1.57.6,2.09.19.07.34.19.47.34.31.51.56,1.04.99,1.47.45.44.35,1.12.73,1.59.42.46,1.06.63,1.48,1.1.11.19.16.39.17.61-.09.74.12,1.47.14,2.2-.08.67.47,1.21.39,1.88-.11.42-.41.64-.79.79-2.5.41-5.01.11-7.51.22-9.01-.01-18.02,0-27.03-.01-1.2,0-2.46.22-3.49-.68Z"/>
            <path class="cls-101" d="M129.13,76.72v28.79c-.6.38-1.26.23-1.9.23-21.77,0-43.53,0-65.3,0-.56,0-1.14.08-1.68-.16-.74-.81-.62-1.82-.62-2.78-.02-7.72-.03-15.44,0-23.16.01-3.18.26-3.4,3.52-3.41,21.05,0,42.1,0,63.16,0,.96,0,1.97-.2,2.82.48Z"/>
            <path class="cls-101" d="M-5.1,105.51v-28.79c.61-.52,1.35-.48,2.07-.48,8.81,0,17.61-.01,26.42,0,.64,0,1.3-.05,1.87.36.68.83.58,1.83.58,2.79.02,7.78.03,15.56,0,23.34-.01,2.89-.17,3.01-3.03,3.01-8.59,0-17.18,0-25.77,0-.72,0-1.46.18-2.14-.23Z"/>
            <path class="cls-126" d="M129.13,76.72c-21.91,0-43.82.04-65.73-.05-2.37,0-3.21.44-3.16,3.03.18,8.6.07,17.2.07,25.8.17.09.23.19.17.28-.06.09-.11.14-.17.14-.16,0-.32,0-.48,0-.49-.47-.63-1.08-.67-1.73-.06-8.41-.02-16.83-.02-25.24,0-.73-.02-1.46.21-2.17.13-.3.33-.55.6-.74,21.45-.14,42.91-.03,64.36-.04,1.61,0,3.24-.3,4.83.22v.49Z"/>
            <path class="cls-33" d="M129.13,76.23c-23.09.02-46.19.03-69.28.05-.13-.11-.18-.23-.15-.35.04-.12.07-.19.12-.19,23.1,0,46.21,0,69.31,0v.49Z"/>
            <path class="cls-49" d="M60.31,105.92c0-.14,0-.28,0-.42,22.94,0,45.88,0,68.82.01v.49c-22.05,0-44.1,0-66.15,0-.89,0-1.78-.05-2.67-.07Z"/>
            <path class="cls-82" d="M-5.1,105.51c9.32,0,18.64-.05,27.96.04,1.81.02,2.36-.51,2.35-2.33-.09-8.83-.04-17.66-.04-26.49-.17-.31-.09-.54.24-.67.13.06.26.13.4.19.19.23.32.5.4.79.29,9.31.03,18.61.15,27.92.02.31-.05.6-.19.87-6.38.06-12.76.13-19.13.17-4.04.03-8.08,0-12.12,0v-.49Z"/>
            <path class="cls-33" d="M25.62,76.21c-.15.01-.3.04-.45.1-7.76.36-15.52.09-23.28.13-2.33.01-4.67.32-6.99-.21v-.49c10.25,0,20.5,0,30.75,0,.12.11.16.22.11.32-.05.1-.1.15-.14.15Z"/>
            <path class="cls-216" d="M-5.1,76.23c10.09.03,20.18.05,30.27.08,0,.14,0,.27,0,.41-10.09,0-20.17,0-30.26,0v-.49Z"/>
            <path class="cls-106" d="M40.32,120.56c-2.62-.38-5-1.29-6.92-3.19-.14-.23-.16-.46-.04-.71.69-.6,1.57-.66,2.41-.83.36-.03.7.03,1.02.21.53.74.25,2.03,1.54,2.25.58.23,1.21.31,1.82.41.51.12,1.03.14,1.55.11.22,0,.43.02.64.06.65.15,1.29-.02,1.93-.05.23.01.45.06.67.15.5.3,1.07.55.87,1.31l-.04-.05c-1.8.44-3.66-.14-5.45.33Z"/>
            <path class="cls-100" d="M56.12,113.4c-1.04,1.74-2.4,3.16-4.13,4.22-.49-.13-.72-.47-.77-.95,0-.22.05-.43.12-.63.46-.85-.1-1.89.48-2.73.57-.4,1.37-.28,1.88-.82.45-.16.9-.18,1.36-.06.5.16.85.48,1.05.96Z"/>
            <path class="cls-262" d="M27.6,108.18v.04c.06-.5-.12-.97-.14-1.46-.01-.98,0-1.95-.01-2.93,0-.72-.14-1.43-.11-2.15.15-.68.25-1.4,1.07-1.65.7.26.6.97.83,1.48.16.21.39.28.64.29.19.01.36.07.52.15.25.2.34.46.34.76-.13.8-.13,1.62-.26,2.42-.04.21-.1.41-.18.61-.28.72-.48,1.46-.88,2.13-.27.4-.59.75-1.09.85-.36-.03-.77.02-.73-.53Z"/>
            <path class="cls-264" d="M27.97,106.93c-.12.43-.24.86-.36,1.28-.88-.44-1.12-1.19-1.04-2.1-.41-2.56-1.12-5.13.36-7.6,2.03.57.62,2.02.78,3.07-.01.69.58,1.28.3,2.01-.29,1.11-.22,2.22-.04,3.34Z"/>
            <path class="cls-302" d="M59.74,104.51c.03.47.06.95.09,1.42-.14.06-.29.09-.45.1-1.33-.07-1.09-1.15-1.17-1.94-.12-1.26.03-2.54-.39-3.77-.13-.85-.12-1.7.04-2.54.59-1.26-.09-2.85,1-3.99.32-.14.54-.06.67.27.17,3.48-.2,6.97.2,10.45Z"/>
            <path class="cls-207" d="M33.49,116.66c-.03.24-.06.48-.09.71-.93-.99-2.31-1.52-2.93-2.84-.31-.85-.11-1.46.78-1.77,1.22-.13,1.84.94,2.78,1.39.23.29.32.63.32,1-.03.65-.4,1.1-.86,1.51Z"/>
            <path class="cls-187" d="M27.11,98.68c-1.11,2.41-.13,4.97-.54,7.44-.14-.1-.27-.19-.41-.29,0,0-.02-.07-.02-.07-.52-3.97-.1-7.95-.23-11.92-.02-.33.14-.54.46-.62,1.53,1.14.58,2.91,1.1,4.31.04.43-.05.83-.36,1.15Z"/>
            <path class="cls-192" d="M51.5,116.68c.17.31.33.63.5.94-.72.65-1.45,1.27-2.43,1.5-.45-.34-.61-.85-.82-1.33-.2-.51-.43-1.01-.29-1.58.24-.42.59-.65,1.08-.65.78.15,1.27.82,1.97,1.12Z"/>
            <path class="cls-243" d="M31.5,112.84c-.4.53-1.1.87-1.04,1.69-.7-.52-1.25-1.15-1.44-2.03-.17-.36-.21-.74-.1-1.12.5-.53,1.11-.56,1.76-.38.24.09.43.24.58.44.19.32.27.67.27,1.05-.01.12-.02.24-.04.36Z"/>
            <path class="cls-239" d="M58.89,107.05c0,.56.11,1.16-.46,1.55-.43-.11-.72-.39-.92-.78-.69-2.16-.83-4.29.47-6.31,1.08.42.59,1.36.58,2.05-.02,1.19.21,2.33.34,3.49Z"/>
            <path class="cls-283" d="M58.89,107.05c-1.19-1.66.09-3.74-.93-5.42-.55-.67-.63-1.23.34-1.56.72,1.08.47,2.32.54,3.5.05.84-.33,1.79.53,2.46-.16.34-.33.68-.49,1.02Z"/>
            <path class="cls-217" d="M56.12,113.4c-.42-.2-.83-.4-1.25-.6-.39-.55-.38-1.07.11-1.56.31-.2.64-.26,1-.2.23.07.4.22.51.43.75.81.29,1.39-.37,1.93Z"/>
            <path class="cls-295" d="M29.1,111.33c-.03.39-.05.78-.08,1.17-.6-.5-.88-1.16-1-1.91-.33-.9-.09-1.55.84-1.89.27-.04.52,0,.75.14.55.98.09,1.75-.52,2.48Z"/>
            <path class="cls-79" d="M58.29,109.39c-.51.77-.52,1.97-1.8,2.07,0,0-.1-.11-.1-.11-.46-.49-.54-1.05-.34-1.68.1-.22.25-.41.43-.56.67-.35,1.33-.66,1.8.27Z"/>
            <path class="cls-14" d="M45.81,120.29c-.37-.34-.74-.69-1.12-1.03.14-.23.34-.39.59-.49.64-.21,1.29-.21,1.94-.1.48.18,1.06.28.9,1.03-.65.66-1.49.59-2.31.6Z"/>
            <path class="cls-50" d="M40.32,120.56c1.77-.85,3.63-.26,5.45-.33-1.77.97-3.62.42-5.45.33Z"/>
            <path class="cls-16" d="M48.12,119.69c-.25-.45-.69-.53-1.14-.58-.04-.22,0-.42.15-.59.17-.14.35-.24.54-.33.49-.2.95-.47,1.5-.47.48.37.38.91.39,1.41-.43.33-.87.63-1.45.56Z"/>
            <path class="cls-75" d="M29.08,108.92c-.74.31-1,.92-1.05,1.66-.38-.76-1.49-1.39-.43-2.41.28.07.57.13.85.2.54-.2.67.08.63.54Z"/>
            <path class="cls-35" d="M58.29,109.39c-.48-.33-.95-.23-1.41.02-.23-.22-.34-.5-.33-.82.15-.9.79-.74,1.4-.64.16.22.32.44.48.65-.05.26-.09.53-.14.79Z"/>
            <path class="cls-168" d="M52.95,71.81v1.78c-.17.58-.63.62-1.11.66-1.1-.12-2.2-.35-3.32-.35-.33,0-.66,0-.99-.02-.87-.03-1.7-.35-2.56-.42-.41-.02-.82.03-1.23.08-.8-.02-1.59.26-2.39.19-.19-.02-.38-.07-.57-.13-.27-.08-.54-.15-.82-.15-.49.05-.85.39-1.31.53-.94-.01-1.87-.02-2.78.27-.34.07-.68.1-1.02.11-.36.01-.72-.01-1.07-.09-.37-.09-.69-.24-.83-.63-.02-.79-.91-1.57-.05-2.37.1.03.2.06.3.08.37.18.72.22.97-.2.16-.27.39-.45.68-.56.78-.22,1.47-.77,2.35-.63.58.19,1.17.2,1.77.11.97.16,1.92.45,2.88.65.56.38,1.12.44,1.7.05.59-.08,1.19-.09,1.78.01.59.41,1.22.41,1.87.18.63-.15,1.27-.28,1.89-.46.44-.1.87-.11,1.3.02.68.3,1.33.69,2.05.9.19.1.36.23.51.39Z"/>
            <path class="cls-246" d="M52.51,76.17c.17,0,.34-.01.51-.02,2.12-.19,4.25-.44,6.35.16.09.32-.02.56-.3.72-3.15.78-6.35.13-9.52.4-.58.05-1.14.26-1.73.19-3.18-.47-6.39-.13-9.58-.22-3.76-.09-7.52.15-11.28-.13-.3-.07-.57-.21-.8-.41-.21-.28-.2-.54.06-.78,2.35-.22,4.7-.02,7.05-.11.69-.26,1.38-.48,2.13-.44,1,.04,2,.02,3,.01,1.54,0,3.07,0,4.61,0,1.3.01,2.6.02,3.9.03.59,0,1.18-.05,1.77-.11.23-.01.45,0,.68.04.85.22,1.75.08,2.61.31.2.1.38.22.56.35Z"/>
            <path class="cls-113" d="M55.45,67.51c-.18.15-.35.3-.53.44-.3.49-.65.87-1.31.73-.53-.29-1.02-.7-1.69-.5-.34-.07-.59-.27-.79-.54-.25-.38-.41-.8-.41-1.26.14-1.09.8-1.87,1.5-2.64.68-.63,1.27-1.39,2.27-1.55.37-.01.69.12.95.39l-.03-.03c.13.11.24.23.33.38.07.16.12.32.17.49.08.26.15.51.2.78.01.19-.02.38-.08.56-.1.28-.23.54-.36.8-.28.52-.57,1.04-.28,1.65.02.1.04.19.06.29Z"/>
            <path class="cls-276" d="M44.72,58.68c1.51.1,3.1-.16,4.38.99.05.25-.02.46-.2.64-1.6.21-3.33,1.02-4.44-.98.01-.12.03-.24.04-.36.07-.1.15-.19.22-.29Z"/>
            <path class="cls-188" d="M35.45,76.15c-.66,0-1.33,0-1.99,0-.16-.06-.22-.15-.19-.25.03-.11.07-.16.12-.16,0-.27,0-.53,0-.8-.06-.49.23-.82.53-1.15.34,0,.69,0,1.03,0,.18.19.43.25.64.37.15.09.28.2.39.33.1.14.18.3.23.46.05.26.02.52-.1.76-.18.2-.43.28-.65.42Z"/>
            <path class="cls-291" d="M42.36,57.2c-.11-.67-1.63-.94-.62-1.89.39-.37.88-.65,1.61,0,1.11.97-.03,1.3-.25,1.9-.25.25-.49.25-.74,0Z"/>
            <path class="cls-77" d="M33.38,75.75c.05.13.08.27.08.41-2.44.05-4.87.1-7.31.16-.17.16-.34.16-.51,0,0,0-.01-.1-.01-.1.02-.15.03-.31.04-.47,2.58,0,5.15,0,7.73,0Z"/>
            <path class="cls-224" d="M34.92,70.86c-.16.17-.32.33-.48.5-.46.41-.93.39-1.41.05,0,0-.12-.15-.12-.15.02-.12.04-.24.06-.36-.36-.43-.77-.84-.61-1.48.26-.41.66-.61,1.11-.71.96.05,1.34.71,1.59,1.51.03.23-.01.44-.13.64Z"/>
            <path class="cls-77" d="M59.31,76.73c-2.01-1.14-4.22-.13-6.29-.58,2.22-.86,4.54-.21,6.8-.41.01.18.02.36.03.54-.02.16-.06.31-.11.47-.15.13-.29.13-.43-.01Z"/>
            <path class="cls-278" d="M29.08,66.42c-1.58-.59-.53-1.89-.75-2.84.08-.18.21-.28.41-.28.19,0,.37.04.53.14.23.17.41.38.54.64.11.26.16.54.18.82,0,.19,0,.37-.03.56-.04.18-.1.36-.2.52-.18.23-.46.29-.69.45Z"/>
            <path class="cls-157" d="M32.98,61.19c.47-.26.87-.7,1.48-.57.09.1.18.19.26.29.4.87.37,1.75.11,2.65-.23.51-.6.78-1.19.68-.36-.15-.52-.46-.62-.81-.12-.54-.17-1.1-.25-1.65-.01-.23.05-.42.21-.59Z"/>
            <path class="cls-84" d="M37.86,59.65c.8-.9,1.87-.96,2.97-.95.27.18.59.31.64.69-.02.23-.1.43-.24.61-1.08.92-2.11.47-3.15-.09-.07-.09-.14-.18-.22-.26Z"/>
            <path class="cls-194" d="M32.51,69.39c.15.51.3,1.01.46,1.52-.74-.14-1.45-.33-1.9-1.02-.32-.67.18-1.12.46-1.62.37-.16.72-.14,1.05.09.2.36.2.7-.07,1.03Z"/>
            <path class="cls-174" d="M42.36,57.2c.25,0,.49,0,.74,0,.54.49,1.08.99,1.62,1.48,0,0,0,0,0,0-1.19.82-2.36.87-3.51-.09.38-.46.77-.93,1.15-1.39Z"/>
            <path class="cls-213" d="M34.46,60.62c.97-.88,1.9-1.91,3.4-.98,0,0-.02-.03-.02-.03.3.26.29.57.14.9-.22.28-.51.39-.85.41-.72-.1-1.43.25-2.16.06-.19-.09-.36-.2-.51-.35h0Z"/>
            <path class="cls-124" d="M55.51,64.99l.49-.45c.71-.06,1.12.16.9.97-.09.96-.22,1.88-1.46,2,0,0-.07-.18-.07-.18-.88-.83.4-1.53.13-2.33Z"/>
            <path class="cls-54" d="M50.15,60.03c1.11-.03,2.05.43,2.96,1-.04.31-.23.52-.48.68-.18.07-.37.08-.56.03-.2-.34-.39-.33-.59,0-.19.05-.39.05-.58,0-.39-.14-.74-.33-1-.66-.08-.19-.12-.39-.11-.61.05-.21.18-.37.37-.47Z"/>
            <path class="cls-297" d="M41.21,58.6c1.17.03,2.34.06,3.51.09-.03.16-.07.33-.1.49-.24.33-.54.59-.92.75-.19.08-.39.12-.59.15-.31.03-.62.01-.93-.07-.47-.09-.65-.49-.89-.83-.16-.16-.31-.32-.47-.48.13-.04.25-.07.38-.1Z"/>
            <path class="cls-146" d="M54.49,69.94c-.09.88-.86,1.06-1.46,1.42-.1-.05-.2-.1-.3-.15-.44-.38-.78-.83-.91-1.41.01-.24.11-.45.29-.61.44-.26.9-.29,1.39-.19.49.15.88.41,1,.94Z"/>
            <path class="cls-64" d="M56.91,65.51c-.16-.45-.45-.78-.9-.97-.03-.15-.03-.3,0-.45,0-.08-.02-.17-.03-.25,0-.17.05-.34.11-.49.05-.07.1-.14.14-.21.08-.04.15-.07.23-.11,1.96.5.92,1.54.44,2.48Z"/>
            <path class="cls-200" d="M30.4,68.38c-.84-.35-.9-1.07-.85-1.83.11-.19.25-.36.42-.5.3-.19.61-.29.96-.15.54.41.58.97.47,1.58-.15.5-.51.78-1,.9Z"/>
            <path class="cls-293" d="M52.52,61.5c.19-.15.39-.31.58-.46,1.1.03,2.05.3,2.34,1.55-.31-.02-.62-.05-.93-.07-.72-.23-1.64-.06-1.99-1.01Z"/>
            <path class="cls-233" d="M29.12,62.56c.1-.52.61-.31.89-.5.43-.3.91-.28,1.4-.18.2.15.32.35.37.59-.05.83-.51,1.27-1.32,1.35-.22-.03-.42-.11-.6-.24-.3-.3-.47-.69-.74-1.02Z"/>
            <path class="cls-24" d="M52.51,76.17c-.17,0-.34,0-.51,0-.53-.59-1.82.45-1.98-.93.3-.66.84-.92,1.53-.9.5.09,1.07.13.95.89,0,.32.01.63.02.95Z"/>
            <path class="cls-18" d="M54.49,69.94c-.35-.18-.71-.37-1.06-.55-.26-.32-.23-.64.02-.95.49-.16.97-.32,1.46-.48-.05.68.26,1.44-.42,1.99Z"/>
            <path class="cls-155" d="M31.68,62.17c-.56-.03-1.11-.07-1.67-.1.81-.9,1.83-1.11,2.97-.88,0,.12,0,.25,0,.37-.23.64-.63.91-1.3.61Z"/>
            <path class="cls-42" d="M52.49,75.22c-.3-.16-.6-.32-.89-.48-.36-.3-.37-.6,0-.91.45-.08.9-.16,1.35-.24.24.65.24,1.23-.44,1.63Z"/>
            <path class="cls-89" d="M30.4,68.38l.64-.95c.77.03.8.41.48.98-.15.49-.3.99-.46,1.48-.88-.22.08-1.24-.66-1.51Z"/>
            <path class="cls-1" d="M33.91,73.8c.08.5,0,.93-.53,1.15-.75-.24-1.24-.56-.43-1.31.32.05.64.11.96.16Z"/>
            <path class="cls-276" d="M29.12,62.56c.38,0,.72.07.93.44-.12.15-.2.31-.26.49-.07.06-.14.12-.21.19-.19.05-.36,0-.5-.14-.13,0-.26,0-.39-.02-.16-.05-.22-.12-.17-.19.05-.08.09-.12.14-.12.16-.22.32-.43.48-.65Z"/>
            <path class="cls-186" d="M50.15,60.03c-.04.24-.09.48-.13.72-.37.04-.64-.12-.86-.41-.02-.11-.04-.22-.06-.33,0-.11,0-.23,0-.34.39,0,.84-.15,1.05.37Z"/>
            <path class="cls-6" d="M30,66.45c-.15,0-.3.04-.44.1-.16-.04-.32-.09-.48-.13.16-.16.32-.31.48-.47.09-.06.18-.12.27-.18.1.05.19.09.29.14.11.21.07.39-.12.54Z"/>
            <path class="cls-196" d="M55.47,62.99c-.04-.14-.06-.29-.06-.44.18.02.36.04.54.05.1.17.09.34-.04.49-.18.1-.33.06-.45-.11Z"/>
            <path class="cls-6" d="M55.9,63.07c.01-.16.03-.31.06-.47.32-.04.46.15.51.43,0,0-.16-.02-.16-.02-.06.07-.12.14-.18.2-.08-.05-.15-.1-.23-.14Z"/>
            <path class="cls-208" d="M28.64,63.21c0,.11.02.21.03.32-.12.02-.23.04-.35.06-.05-.26.06-.38.32-.38Z"/>
            <path class="cls-229" d="M52.95,71.81c-.15.02-.3.03-.44.02-.14-.41.02-.54.42-.43,0,0,.11-.05.11-.05-.03.15-.06.31-.09.46Z"/>
            <path class="cls-41" d="M59.31,76.73c.14,0,.28,0,.43.01,0,9.25,0,18.51,0,27.76-.93-2.49-.2-5.06-.39-7.58-.08-1.04-.06-2.09-.09-3.14-1.14-1.82-.38-3.85-.61-5.76,0-1.21,0-2.42,0-3.62.3-2.56-.68-5.23.7-7.69l-.04.03Z"/>
            <path class="cls-45" d="M25.63,76.31c.17,0,.34,0,.51,0,0,.15.02.3.04.45,1,1.26.59,2.75.63,4.15.06,2.15.02,4.3.02,6.45-.24,1.97.53,4.04-.61,5.92-.03,4.16-.05,8.31-.08,12.47-.68-.93-.49-2.01-.49-3.04-.01-8.8-.01-17.6-.02-26.41Z"/>
            <path class="cls-227" d="M38.34,118.7c-1.96.05-2.09-.98-1.47-2.46-.33-.86.19-1.38.76-1.87.54-.35,1.12-.55,1.78-.42.25.07.45.22.6.44.11,1.69-.16,3.24-1.67,4.31Z"/>
            <path class="cls-173" d="M44.21,119.05c-.64.31-1.24,1.17-2.01.19-.9-1.24-.58-2.64-.54-4.01.04-.27.14-.52.27-.76.23-.35.58-.51.98-.55.25,0,.49.06.71.17.08.09.16.18.24.26.03.11.05.22.08.33-.06.85-.27,1.71.27,2.51.29.62.6,1.24,0,1.86Z"/>
            <path class="cls-6" d="M44.21,119.05c.08-.69-.22-1.28-.51-1.87-.33-.81-.37-1.61.02-2.41h.01c.26-.43.55-.78,1.12-.55.32.2.54.48.69.83.18.48.24.97.26,1.48-.02.9.12,1.84-.67,2.53-.14.08-.29.14-.44.2-.16-.07-.32-.14-.48-.21Z"/>
            <path class="cls-47" d="M38.34,118.7c.49-1.47.98-2.93,1.47-4.4.27-.15.51-.1.71.13.53.86.39,1.82.43,2.76-.03.68-.06,1.37-.64,1.87-.65-.14-1.43.43-1.97-.36Z"/>
            <path class="cls-203" d="M40.3,119.06c0-.63,0-1.26,0-1.89.53-.75.03-1.65.35-2.44.32-.45.68-.76,1.26-.37.07.26.1.52.09.78-.12,1.31.27,2.66-.25,3.95-.5.53-.98.5-1.44-.04Z"/>
            <path class="cls-170" d="M37.85,114.78c-.33.49-.66.97-.98,1.46-.35-.01-.69-.02-1.04-.03-.46-.18-.7-.53-.81-.99-.07-.44-.04-.87.22-1.25.62-.35,1.17-.78,1.56-1.4.35-.27.71-.52,1.17-.22.21.82.31,1.63-.11,2.42Z"/>
            <path class="cls-182" d="M35.39,115.28c.15.31.29.62.44.93-.71.55-1.53.49-2.34.44.16-.46.32-.92.48-1.38.48-.4.95-.41,1.43,0Z"/>
            <path class="cls-164" d="M41.74,119.1c.03-1.44.05-2.88.08-4.32.14-.22.28-.23.42,0-.01,1.48-.02,2.97-.03,4.45-.16-.04-.31-.08-.46-.13Z"/>
            <path class="cls-59" d="M53.39,112.84c.08,1.56-.99.1-1.34.51-.45.35-.94.44-1.47.24-.36-.18-.64-.45-.82-.81-.39-1.21-.32-2.28.93-2.98.22-.08.45-.12.68-.09,1.11.52.91,1.89,1.69,2.62.15.15.26.32.34.51Z"/>
            <path class="cls-86" d="M50.57,113.36c.49,0,.98-.01,1.48-.02-.7.89,1.19,2.21-.48,2.95-.72-.06-1.27-.42-1.73-.95-.16-.32-.2-.66-.15-1.01.12-.48.36-.86.89-.96Z"/>
            <path class="cls-107" d="M53.39,112.84c-.13,0-.27,0-.4-.02-.58-.77-.15-1.38.29-2,.4-.34.88-.43,1.39-.39.24.03.47.12.68.26.13.13.19.26.17.41-.02.15-.05.23-.09.23-.58.35-.45.96-.54,1.49-.5.01-.99.02-1.49.04Z"/>
            <path class="cls-258" d="M50.04,115.27c.51.34,1.01.68,1.52,1.02-.03.13-.05.26-.06.39-1.13.69-1.27-.64-1.93-.93-.12-.43.04-.6.48-.49Z"/>
            <path class="cls-249" d="M30.52,102.62c-.16-.17-.31-.35-.47-.52-.64-.59-.53-1.45-.8-2.18-.07-.22-.13-.45-.17-.68-.11-.84-.17-1.67.08-2.49.15-.36.38-.62.77-.72.25,0,.48.07.68.21.5.57.58,1.3.8,1.98.29,1.02.1,2.11.44,3.12.07.23.13.46.17.7.14,1.1.17,2.19-.07,3.28-.18.59-.29,1.2-.42,1.8-.16.51-.39.95-1,1.03-.44-.06-.69-.33-.8-.74.11-.63-.07-1.31.31-1.9h0c.63-.89-.1-2,.47-2.9Z"/>
            <path class="cls-61" d="M27.11,98.68c-.01-.33-.02-.67-.03-1-.4-.97-.11-1.98-.19-2.96,1.12-1.33,1.22.25,1.74.61.05.1.1.21.15.32.06.22.08.44.06.67-.15.92-.32,1.85.07,2.76.06.09.11.18.16.26.05.09.1.18.14.28.08.21.06.4-.06.59-.2.13-.38.1-.55-.05-.3.48-.59.96-.89,1.44-.23-.96.17-2.06-.6-2.91Z"/>
            <path class="cls-80" d="M29.99,107.56c.18.18.36.36.54.54.26.24.26.52.14.82-.15.15-.32.24-.53.27-.21-.02-.38-.1-.53-.25-.18,0-.36-.01-.54-.02-.21-.18-.42-.36-.63-.54.22-.28.44-.56.66-.84.31-.38.6-.38.89.02Z"/>
            <path class="cls-68" d="M27.97,106.93c-.54-1.12-.6-2.23.04-3.34-.01,1.11-.03,2.23-.04,3.34Z"/>
            <path class="cls-240" d="M30.52,102.62c-.13.97.41,2.05-.47,2.9.19-.96-.39-2.05.47-2.9Z"/>
            <path class="cls-6" d="M29.06,100.15c0-.17.01-.35.02-.52.17-.16.34-.16.49.03l-.02-.02c.39.81.36,1.63.02,2.44-.17.17-.33.33-.5.5-.36-.81-.35-1.62,0-2.43Z"/>
            <path class="cls-164" d="M29.57,102.08c0-.81-.01-1.63-.02-2.44.84.68.36,1.63.5,2.45,0,0-.24,0-.24,0h-.24Z"/>
            <path class="cls-97" d="M29.99,107.56c-.3,0-.59-.01-.89-.02.31-.67.62-1.35.94-2.02-.02.68-.03,1.36-.05,2.04Z"/>
            <path class="cls-247" d="M29.06,100.15c0,.81,0,1.62,0,2.43-.79-.69-.37-1.61-.46-2.43.15,0,.3,0,.45,0Z"/>
            <path class="cls-74" d="M57.95,107.95c-.11.73-.8.1-1.07.45-.43.19-.69-.06-.94-.35-.38-.53-.53-1.13-.61-1.76-.06-1.59-.11-3.19.03-4.78.04-.23.11-.45.2-.66.11-.19.25-.36.42-.5.16-.13.32-.25.48-.38.47-.51.26-1.09.14-1.66-.04-.2-.06-.41-.05-.61.04-.21.11-.4.22-.57.72-.58.43-1.59.96-2.25.33-.23.63-.34.83.15-.02.89.13,1.79-.11,2.67-.05.79-.11,1.58-.16,2.37-.41.45-.42,1-.34,1.56-.36,2.11-.49,4.22-.01,6.33Z"/>
            <path class="cls-211" d="M59.19,87.96c.02,1.94.05,3.88.07,5.82-.09,0-.19-.02-.28-.03-.11-.08-.23-.16-.34-.24-.71-1.74-.57-3.5-.13-5.26.15-.28.38-.38.68-.29Z"/>
            <path class="cls-63" d="M58.47,97.7c-.15-.97.3-1.98-.17-2.93-.25-.3-.25-.62-.08-.95.19-.16.39-.17.6-.03,0,0,.15-.03.15-.04-.37,1.29.33,2.72-.51,3.95Z"/>
            <path class="cls-184" d="M33.92,114.35c-1.19.12-1.69-.87-2.42-1.5,0,0,.02-.16.02-.16-.11-.25-.05-.44.17-.6.57-.29,1.16-.29,1.77-.14.77.29,1.13.87,1.17,1.67-.09.39-.33.62-.71.73Z"/>
            <path class="cls-273" d="M33.92,114.35l.48-.52c.28-.03.54-.19.83-.14.07.06.14.13.21.19-.02.47-.03.93-.05,1.4-.48,0-.95,0-1.43,0-.01-.31-.03-.62-.04-.93Z"/>
            <path class="cls-222" d="M26.22,93.29c0-1.94,0-3.88,0-5.83.27-.13.49-.07.67.18.14.23.23.47.28.73.06,1.57.34,3.14-.25,4.68-.09.1-.18.19-.27.29-.15-.02-.29-.03-.44-.05Z"/>
            <path class="cls-150" d="M27.24,94.29c-.05,1.13-.11,2.26-.16,3.38-.93-1.37-.26-2.9-.42-4.34,0,0-.01,0-.01,0,.19-.17.39-.18.6-.02.19.33.21.66,0,.98Z"/>
            <path class="cls-227" d="M49.17,117.71c-.32.64-.87.88-1.56.87-.95-.7-1.17-1.76-1.42-2.81-.07-.5-.02-.98.21-1.43.29-.43.65-.74,1.22-.64.77.68,1.24,1.47,1.01,2.55.18.49.36.98.54,1.48Z"/>
            <path class="cls-138" d="M48.63,116.24c-.54-.72-1.1-1.43-.95-2.41.24-.31.57-.43.95-.45.67,0,1.16.29,1.43.92,0,.32,0,.65,0,.97-.16.16-.32.32-.48.49-.31.16-.62.32-.94.48Z"/>
            <path class="cls-261" d="M29.62,108.94c.14,0,.28,0,.43,0,.15.14.29.29.41.46.25.45.51.89.7,1.37.04.21,0,.41-.14.58-.64,0-1.29-.02-1.93-.03-.21-.88.41-1.58.52-2.39Z"/>
            <path class="cls-40" d="M31.5,112.36c0,.11,0,.21.02.32-.56-.04-.41-.46-.41-.79.16-.17.33-.18.51-.04.1.2.06.38-.12.51Z"/>
            <path class="cls-179" d="M31.44,111.87h-.17s-.16.02-.16.02c-.03-.18-.06-.36-.08-.54,0-.16,0-.32,0-.48.18-.12.37-.14.56-.05.12.17.18.36.18.57-.04.21-.15.37-.34.48Z"/>
            <path class="cls-32" d="M55.42,111.31c0-.15,0-.3,0-.45-.26-.24-.31-.53-.24-.86.28-.31.21-.71.26-1.08.58-.31,1.07-.45,1.01.5-.02.64-.04,1.29-.06,1.93-.33-.02-.65-.03-.98-.05Z"/>
            <path class="cls-136" d="M56.45,109.43c-.31-.49-.64-.61-1-.04-.22.11-.43.1-.62-.06-.14-.2-.22-.41-.25-.65,0-.37.12-.7.42-.93.47-.28.92-.08,1.38.03.17.21.34.41.5.62,0,.34,0,.68,0,1.01-.14,0-.28,0-.42.02Z"/>
            <path class="cls-164" d="M45.13,119.06l.07-2.75c1.38.21,1.04,1.82,1.95,2.4-.08.12-.14.26-.18.4-.62-.02-1.23-.03-1.85-.05Z"/>
            <path class="cls-25" d="M47.16,118.7c-2.06.35-1.07-1.79-1.95-2.4,0-.5-.02-1-.02-1.5.08-.07.16-.14.24-.2.97-.26.84.68,1.2,1.09.33.96.67,1.93,1,2.89-.14.09-.29.13-.46.12Z"/>
            <path class="cls-292" d="M49.07,75.77c-.49.16-.91.58-1.49.39-1.41-.4-2.85-.08-4.27-.18-1.41,0-2.81,0-4.22,0-.25.01-.5-.02-.73-.1-.29-.26-.39-.6-.36-.98.08-.37.26-.64.63-.78.77-.12,1.48-.52,2.28-.55.94-.04,1.94.72,2.8-.24.21-.41.58-.51,1-.52.4,1.1,1.55,1.11,2.36,1.63.42.76,1.33-.21,1.77.49.26.23.44.48.24.84Z"/>
            <path class="cls-256" d="M45.22,70.9c-.5.2-1.01.23-1.52.05-.43.05-.66-.2-.82-.55-.15-.48-.12-.95.12-1.39.15-.18.34-.3.57-.36,1.05.64.69-.54,1.03-.81.29-.2.6-.24.93-.15.5.23.84.64,1.21,1.03.26.36.33.77.29,1.21-.04.21-.11.41-.22.59-.19.26-.43.46-.73.59-.32.08-.62.03-.86-.21Z"/>
            <path class="cls-212" d="M41.79,70.87c-1.13.48-2.04-.1-2.97-.6-.19-.43-.07-.84.06-1.25.16-.42.4-.76.88-.86.22-.01.42.03.62.11.56.66,1.49.7,2.11,1.27.2.45.19.88-.08,1.29-.2.17-.4.18-.62.04Z"/>
            <path class="cls-238" d="M49.07,75.77c-.18-.18-.36-.37-.53-.55-.36-.64-.5-1.27.02-1.9,1.01.17,2.02.34,3.04.51,0,.3,0,.6,0,.91-.5.17-1.01.35-1.51.52,0,0-.22-.04-.22-.04-.25-.02-.21.03-.13.25.11.3-.37.21-.04.21-.2.19-.4.27-.64.08h0Z"/>
            <path class="cls-118" d="M47.1,74.78c-.73-.74-3.24.69-2.41-1.96.98.16,1.95.33,2.93.49.33.67-.05,1.09-.52,1.47Z"/>
            <path class="cls-160" d="M52.93,71.4c-.14.14-.28.29-.42.43-.84.05-1.59-.08-1.96-.97-.12-.1-.18-.21-.18-.33,0-.13.02-.2.05-.2.13-.16.29-.3.47-.41.38-.17.76-.37,1.17-.08.61.34,1.01.79.87,1.55Z"/>
            <path class="cls-255" d="M38.79,74.21c-.16.17-.31.34-.47.52-.8.71-1.6.7-2.41.03h.02c-.15-.14-.24-.3-.27-.49,0-.21.09-.36.28-.45.96-.66,1.91-.69,2.85.06l.16.17s-.16.17-.16.17Z"/>
            <path class="cls-52" d="M43.7,73.34c-.64,3.03-1.9-.06-2.82.29l.04-.21c.94.42,1.83-.9,2.78-.08Z"/>
            <path class="cls-103" d="M40.92,73.42s-.04.21-.04.21c-.56.68-1.21,1.05-2.09.58,0-.11,0-.23,0-.34.07-1.01.76-1.09,1.55-1.04.13.16.27.31.42.45l.15.14Z"/>
            <path class="cls-230" d="M39.27,69.26c-.15.34-.31.68-.46,1.01-.45.29-.91.46-1.41.09-.18-.14-.28-.33-.31-.56.09-.73.52-1.19,1.15-1.51.79-.16.72.6,1.02.96Z"/>
            <path class="cls-39" d="M37.33,69.88c.02.16.05.32.07.49-.97-.58-1.45,1.36-2.48.49,0-.15.01-.3.02-.46,0-.11.02-.22.02-.33.26-.95.89-1.19,1.78-.95.33.15.45.46.59.76Z"/>
            <path class="cls-55" d="M47.1,74.78c.17-.49.35-.98.52-1.47.31,0,.62,0,.93.01,0,.63-.01,1.27-.02,1.9-.48-.15-.95-.29-1.43-.44Z"/>
            <path class="cls-229" d="M50.53,70.39c.01.16.02.32.02.48-.49,0-.97.01-1.46.02-.45.19-.65-.09-.81-.44-.06-.24-.06-.49,0-.73.08-.25.24-.43.46-.56,1.07-.28,1.71.08,1.79,1.24Z"/>
            <path class="cls-270" d="M41.79,70.87c.12-.03.25-.04.38-.03.31-.18.46-.7.96-.45.19.18.38.37.57.55-.04.53-.3.85-.87.87-.66.02-1.02-.27-1.04-.94Z"/>
            <path class="cls-30" d="M45.22,70.9c.29-.04.59-.08.88-.12.21-.09.42-.14.65-.14.34.13.58.32.4.73-.83.6-1.59.93-1.93-.47Z"/>
            <path class="cls-232" d="M47.15,71.37c-.16-.17-.33-.33-.49-.5-.13-.11-.16-.2-.1-.29.05-.08.11-.12.16-.12l-.03-.08c.64-.52,1.28-.28,1.92-.02.17.17.33.35.5.52-.52.69-1.27.4-1.94.48Z"/>
            <path class="cls-21" d="M33.02,71.41c.47-.02.94-.04,1.41-.05.06.33.43.78-.15.92-.64.14-1.25.02-1.26-.86Z"/>
            <path class="cls-53" d="M35.95,73.81c-.04.15-.08.3-.11.46-.14.18-.28.18-.42.01-.16-.16-.32-.32-.48-.48.34,0,.67,0,1.01.01Z"/>
            <path class="cls-210" d="M40.76,73.28c-.14-.15-.28-.3-.42-.45.14.15.28.3.42.45Z"/>
            <path class="cls-249" d="M48.15,77.21c.41.06.64-.17.8-.5.52.31.86.74.82,1.38-.27.86-.85,1.54-1.35,2.26-.64.72-1.12,1.52-1.25,2.49-.82,1.85,1.03,3,1.2,4.59-.32,1.11-1.24,1.14-2.1,1.07-1.18-.1-2.36.11-3.54-.03-1.01-.37-2.23-.16-3.03-1.11-.05.08-.09-.5-.19.02-.23,1.23-1.1,1.09-1.98.83-.85-.76-.3-1.46.15-2.1.57-.8,1.02-1.63.99-2.64.14-1.2-.71-1.86-1.42-2.6-.12-.17-.22-.35-.3-.55-.14-.38-.27-.78-.48-1.13-.26-.55-.93-.96-.6-1.71.76-.91,1.69-.22,2.55-.27.59,0,1.12.2,1.65.43,2.08.08,1.84,2.1,2.71,3.38.14-2.26,1.55-3.16,3.36-3.69.65-.33,1.36.23,2-.13Z"/>
            <path class="cls-48" d="M49.42,78.1c-.16-.46-.31-.93-.47-1.39,3.47,0,6.93,0,10.4,0-.03,2.61-.06,5.22-.1,7.84-.33.29-.68.25-1.03.04-.49-.61-.67-1.3-.52-2.07.16-.44.39-.84.46-1.33.42-3.24-.31-3.84-3.53-2.87-.45.16-.89.06-1.32-.08-1.13-.48-2.25-.53-3.33.14-.23.01-.42-.08-.56-.25Z"/>
            <path class="cls-26" d="M38.33,77.56c-.82-.07-1.65-.33-2.41.19-.18.15-.38.23-.61.27-1-.12-1.99-.27-2.99.04-.36.05-.72.04-1.08-.03-1.45-.42-3.03.13-4.45-.57-.25-.17-.3-.39-.14-.65,3.89,0,7.79-.01,11.68-.02.28.26.28.51,0,.76Z"/>
            <path class="cls-257" d="M26.65,76.82c0,.12,0,.24,0,.36,1.33,1.9.22,4.15.89,6.15.22.95.26,1.91.02,2.86-.17.54-.43,1-.95,1.27-.13,0-.26,0-.39,0-.01-3.57-.03-7.13-.04-10.7.16-.02.32,0,.47.05Z"/>
            <path class="cls-272" d="M38.33,77.56c0-.25,0-.51,0-.76,3.27.08,6.58-.62,9.81.41-.46.69-1.31.38-1.91.73-2.15-.13-4.3-.17-6.44.17-.49-.18-.98-.37-1.47-.55Z"/>
            <path class="cls-200" d="M38.33,75.76c1.63,0,3.26,0,4.89,0,.16.09.21.17.16.26-.05.09-.11.13-.16.13-1.63,0-3.26,0-4.89,0-.1-.09-.14-.17-.1-.26.03-.09.07-.13.1-.13Z"/>
            <path class="cls-200" d="M43.22,76.15c0-.13,0-.26,0-.39,1.45.17,2.97-.45,4.35.4-1.45,0-2.9,0-4.35-.01Z"/>
            <path class="cls-185" d="M49.06,75.76c.17-.18.35-.36.52-.54.16-.1.31-.1.46,0,0,0,.04.03.04.03.4.79,1.48.17,1.91.91-.98-.09-2.06.46-2.94-.41Z"/>
            <path class="cls-29" d="M38.33,75.76c0,.13,0,.26,0,.39-.96,0-1.92,0-2.88,0,.15-.14.3-.28.45-.41.81-.6,1.63-.6,2.44,0v.02Z"/>
            <path class="cls-38" d="M48.6,69.37c0,.18,0,.35,0,.53-1,.57-1.29-.18-1.6-.87-.22-.48-.14-.92.19-1.33.87-.71,1.54-1.62,2.37-2.38.91-.29,1.24.25,1.42,1,.15.39.3.77.45,1.16-.09.53-.15,1.07-.84,1.16-.76-.04-1.38.31-1.97.73Z"/>
            <path class="cls-162" d="M50.97,66.32c-.52-.2-.52-1.09-1.27-1-.84-.94.11-1.34.57-1.9.19-.12.4-.21.61-.26.34-.06.67-.03.99.09.32.17.5.42.47.79-.46.76-.91,1.51-1.37,2.27Z"/>
            <path class="cls-10" d="M52.34,64.05c-.16-.16-.32-.32-.48-.48-.09-.17-.13-.36-.13-.55.08-.47,0-.97.3-1.38.16-.05.32-.09.48-.14.66.34,1.33.68,1.99,1.01-.72.51-1.45,1.03-2.17,1.54Z"/>
            <path class="cls-167" d="M50.56,68.42c.29-.31.57-.63.86-.94.18.18.37.36.55.54.47.43.41.88.05,1.34.01.16.02.33.03.49-.37.15-.75.31-1.12.46-.34-.58-1-1.11-.37-1.88Z"/>
            <path class="cls-265" d="M52.02,69.35c-.02-.45-.03-.89-.05-1.34.65-.42,1.17-.36,1.48.42,0,.32-.01.63-.02.95-.47,0-.94-.02-1.41-.03Z"/>
            <path class="cls-214" d="M55.51,64.99c.68.82-.48,1.53-.13,2.33-2.14-.9.05-1.56.13-2.33Z"/>
            <path class="cls-90" d="M55.47,62.99c.14.05.28.07.43.08,0,0,0-.01,0-.01.11.09.16.19.14.3-.02.11-.04.17-.08.17-.16.14-.32.14-.49.02,0-.19,0-.38-.01-.56Z"/>
            <path class="cls-258" d="M55.49,63.55c.17-.03.34-.05.5-.08,0,0,.13.18.13.18-.06.14-.12.27-.19.4,0,0,.07.04.07.04-.17-.18-.34-.36-.51-.54Z"/>
            <path class="cls-65" d="M43.72,59.76c.13-.45.48-.58.9-.58,1.24,1.62,2.97.63,4.48.84,0,0-.08.2-.08.2.04.25-.03.6-.23.6-2.79,0-3.62,1.84-3.97,4.15-.18.16-.39.26-.63.29-.23-.01-.44-.11-.61-.26-.1-.19-.16-.4-.17-.62.03-.41.17-.8.14-1.22-.05-.3-.14-.59-.22-.89-.06-.21-.1-.42-.12-.64-.04-.68-.05-1.36.52-1.87Z"/>
            <path class="cls-108" d="M38.34,75.74c-.81,0-1.63,0-2.44,0,0-.33,0-.66.01-.99.8,0,1.61-.02,2.41-.03,0,.34,0,.68.01,1.02Z"/>
            <path class="cls-226" d="M35.42,74.28c.14,0,.28,0,.42-.01.05.16.08.31.1.48-.17-.15-.35-.31-.52-.46Z"/>
            <path class="cls-205" d="M34.94,70.4c-.46-.5-.92-.99-1.38-1.49-.36-.24-.4-.58-.31-.96.18-.35.46-.59.85-.67.56.06.94.36,1.17.87.2.79-.02,1.51-.35,2.22l.02.03Z"/>
            <path class="cls-225" d="M33.48,67.97c.03.31.06.62.09.94-.18.53-.58.59-1.06.48-.04-.32-.07-.64-.11-.97.1-.77.52-.8,1.09-.45Z"/>
            <path class="cls-142" d="M33.48,67.97c-.51-.21-.92-.19-1.09.45-.29,0-.58,0-.87-.01-.04-.39-.1-.76-.48-.98-.1-.49.18-1.13-.54-1.37-.17.11-.31.08-.45-.06l-.11.02c-.08-.17-.13-.34-.14-.53-.02-.18-.07-.36-.14-.53-.06-.32-.12-.63-.18-.95-.12-.18-.09-.34.09-.46h0c.13-.18.3-.22.51-.15.73.09,1.09-.45,1.53-.87.62-.1,1.19-.04,1.64.47.09.33.19.66.28.99.49.62.9,1.28,1.17,2.02.12.65-.09,1.14-.72,1.41-.17.18-.34.36-.51.54Z"/>
            <path class="cls-303" d="M29.67,64.98c.1.2.21.4.31.6-.18.07-.31,0-.38-.17.01-.14.03-.29.07-.43Z"/>
            <path class="cls-180" d="M29.6,65.4c.11.08.24.14.38.17.03.15.02.31-.03.45-.14,0-.27-.02-.39-.07.01-.18.03-.37.04-.55Z"/>
            <path class="cls-208" d="M29.58,63.57c-.01.16-.04.31-.09.46-.14-.16-.28-.32-.42-.49.17,0,.34.02.51.02Z"/>
            <path class="cls-5" d="M34.46,60.63c.13.1.29.16.45.16.4.27.76.58.92,1.06.26,1.15.86,2.27.31,3.5-.16.2-.37.29-.62.29-.93-.45-.83-1.37-1.01-2.17-.02-.95-.03-1.89-.05-2.84Z"/>
            <path class="cls-87" d="M34.52,63.47c.58.54.95,1.2,1.06,1.99-.11.76-.54.88-1.18.59-.68-.52-1.11-1.14-.87-2.05.44.02.79-.12.98-.53Z"/>
            <path class="cls-200" d="M33.26,63.02c-.63.13-1.15-.13-1.64-.47-.01-.13.01-.26.07-.38.43-.2.87-.4,1.3-.61.57.39.29.95.28,1.46Z"/>
            <path class="cls-125" d="M41.29,59.18c.32.19.64.39.96.58.25.21.38.49.43.81.03.21.04.42.03.63,0,.21-.04.42-.08.63-.04.21-.09.42-.15.63-.2.97-.29,1.92.33,2.8.11.22.16.45.17.7-.31,1.01-1.02,1.01-1.83.71-.88-.65-.96-1.55-.82-2.53.4-1.12.19-2.32.43-3.46.13-.37.28-.73.5-1.05,0-.15.01-.3.03-.45Z"/>
            <path class="cls-165" d="M41.27,59.62c-.01.35-.03.71-.04,1.06-.19.15-.39.27-.61.36-.83.19-1.66.21-2.48-.08-.23-.11-.36-.3-.41-.54.04-.27.08-.54.12-.8,1.14.15,2.28.93,3.43,0Z"/>
            <path class="cls-166" d="M40.81,64.1c-.06.84-.03,1.67.52,2.37.13.17.17.36.12.57-.29.55-.59,1.08-1.18,1.37-.18-.02-.36-.03-.55-.05-.5-.44-1.05-.47-1.63-.16-.61.13-1.12-.12-1.6-.45-.66-.63-1.15-1.32-.65-2.28.38-1.35-.76-2.53-.41-3.88.24-.76,1.02-.75,1.55-1.08.25-.03.5-.05.74-.08.05.09.1.17.16.26.97.54,2.17-.27,3.09.56.01.96.24,1.93-.16,2.86Z"/>
            <path class="cls-176" d="M36.98,60.51c-.52.36-1.04.72-1.55,1.08-.17-.27-.34-.53-.51-.8.69-.09,1.38-.19,2.06-.28Z"/>
            <path class="cls-110" d="M44.26,65.05c-.13-3.3,1.3-5.06,4.76-4.84.33.18.66.36.99.54,0,.11.02.22.05.33.81.71.91,1.58.55,2.55-.19.62-1.1.87-.91,1.7-.23,1.23-.99,2.02-2.07,2.55-.7-.37-1.38.14-2.07.06-.25,0-.5-.01-.76-.02-.52-.02-.79-.38-1.02-.79-.38-.82-.31-1.54.48-2.08Z"/>
            <path class="cls-109" d="M50.61,63.63c-.18-.85-.37-1.7-.55-2.55.34.17.68.33,1.02.5.47.67.5,1.32-.09,1.93-.12.06-.24.09-.37.12Z"/>
            <path class="cls-259" d="M52.04,61.64c-.03.48.74.96.01,1.45-1.24-.08-.67-.88-.58-1.48.21-.41.4-.3.57.03Z"/>
            <path class="cls-284" d="M51.47,61.6c.12.53-.13,1.19.58,1.48-.06.16-.12.32-.18.49-.3-.02-.59-.04-.88-.06.03-.64.06-1.29.09-1.93.13,0,.26.02.39.02Z"/>
            <path class="cls-190" d="M43.72,59.76v2.36c-.19.1-.37.08-.54-.03-.14-.14-.24-.3-.3-.49-.05-.19-.08-.38-.09-.57,0-.29,0-.58.09-.86.09-.18.21-.32.37-.43.16-.01.31-.01.47.01Z"/>
            <path class="cls-115" d="M43.25,59.75c0,.14-.02.27-.05.4-.25.25-.38.72-.89.48-.02-.29-.04-.58-.05-.87.33,0,.67,0,1,0Z"/>
            <path class="cls-153" d="M55.99,63.47c-.06-.13-.08-.27-.08-.42.13,0,.26-.02.4-.05.02.21.04.41.06.62-.17.07-.32.04-.46-.08l.08-.08Z"/>
            <path class="cls-206" d="M55.91,63.55c.16-.02.31,0,.46.08-.15.14-.29.28-.44.42,0-.17-.01-.34-.02-.51Z"/>
            <path class="cls-57" d="M30.06,66c.15,0,.3.01.45.06-.17.13-.34.26-.51.39.02-.15.04-.3.07-.45Z"/>
            <path class="cls-208" d="M30.09,63.42c-.17.05-.34.1-.51.15.15-.19.31-.37.46-.56.02.14.03.27.05.41Z"/>
            <path class="cls-154" d="M58.44,84.53c.27,0,.54,0,.81,0-.02,1.14-.04,2.28-.07,3.43,0,0-.2,0-.2,0-.25-.11-.42-.28-.54-.52-.2-.97-.81-1.93,0-2.9Z"/>
            <path class="cls-196" d="M37.85,114.78c-.21-.81-.49-1.62.09-2.4-.03-.48.19-.87.4-1.26.12-.2.25-.38.41-.55.56-.51,1.19-.7,1.93-.45.33.16.55.41.69.74.06.22.04.44-.05.65-.93.74-1.21,1.98-2.07,2.78-.47.17-.94.34-1.4.51Z"/>
            <path class="cls-250" d="M39.26,114.27c.19-1.31.36-2.63,1.99-2.97.57,1.07-.18,2-.32,3-.18.16-.37.17-.57.03-.18,0-.36-.02-.55-.03-.18,0-.37-.02-.55-.03Z"/>
            <path class="cls-6" d="M43.14,114.3c-.27,0-.55-.01-.82-.02-1-.99-.61-2.12-.33-3.24.18-.25.42-.39.73-.42.31.02.56.15.76.39.52,1.16.62,2.28-.34,3.29Z"/>
            <path class="cls-245" d="M44.67,114.3c-.31.16-.63.31-.94.47-.01-.15-.02-.31-.02-.47-.46-.92-.19-1.88-.18-2.82.3-.41.69-.41,1.12-.26.22.19.38.42.48.69.2.87.25,1.7-.47,2.39Z"/>
            <path class="cls-247" d="M42.27,110.88c.02,1.14.03,2.27.05,3.41-.03.17-.05.33-.08.5-.14,0-.28,0-.42,0-.02-.16-.04-.33-.06-.49-.98-1.02-.09-2.15-.2-3.22.18-.28.41-.34.7-.2Z"/>
            <path class="cls-247" d="M43.77,111.37c-.02.98-.04,1.96-.06,2.93-.19,0-.38,0-.58,0,.04-1.13.09-2.27.13-3.4.4-.1.57.06.51.47Z"/>
            <path class="cls-164" d="M43.72,114.77c0,.8-.02,1.61-.02,2.41-.7-.81-.69-1.61.02-2.41Z"/>
            <path class="cls-296" d="M44.67,114.3c0-.81.01-1.63.02-2.44,1.39.26.98,1.28.93,2.16-.1.25-.24.47-.43.66,0,0,0,.12,0,.12-.17-.17-.34-.34-.51-.5Z"/>
            <path class="cls-183" d="M40.35,114.33c.14,0,.27,0,.41.03.16.09.22.18.17.28-.05.1-.1.15-.15.15-.16.8.37,1.73-.47,2.4.02-.95.03-1.9.04-2.85Z"/>
            <path class="cls-76" d="M40.78,114.78c-.01-.14-.02-.29-.02-.43-.57-1.13.07-2.08.48-3.05,0-.15,0-.29-.01-.44.09-.04.18-.08.27-.11.09.04.17.09.26.13,0,1.14,0,2.28,0,3.42-.32.16-.65.32-.97.49Z"/>
            <path class="cls-2" d="M38.73,111.34c-.26.35-.53.69-.79,1.04-.33.14-.66.29-.99.43-.53.38-.88.01-1.24-.29-.55-.78-.98-1.62-1.17-2.56-.08-.91.41-1.56,1-2.16.33-.32.69-.58,1.05-.86.97-.56,1.07-2.01,2.34-2.25.67-.03,1.08.31,1.3.91.15.43.25.86.38,1.29.06.22.1.44.11.66,0,.34-.06.66-.21.96-.29.46-.76.71-1.18,1.02-.45.52-.83,1.07-.61,1.82Z"/>
            <path class="cls-219" d="M35.86,112.47c.37.11.73.23,1.1.34,0,1.06-.5,1.43-1.51,1.08,0,0-.02-.1-.02-.1-.51-.66-.18-1.03.44-1.32Z"/>
            <path class="cls-127" d="M51.14,109.93c-1.29.57-1.1,1.75-1.19,2.83-.46.46-1.05.63-1.67.72-1.25-.6-1.91-1.68-2.36-2.92.1-.85-.09-1.65-.51-2.4-.09-.2-.15-.41-.19-.62-.06-.33-.08-.66-.06-1,.01-.23.06-.45.12-.67.08-.22.21-.41.37-.57.47-.34.97-.58,1.58-.39.96.57,1.07,2.09,2.47,2.17.44.07.84.19,1.02.65.02.76.7,1.39.43,2.2Z"/>
            <path class="cls-88" d="M53.6,110.82c-.2.67-.41,1.33-.61,2-1.7-.32-.78-2.08-1.58-2.89-.06-.47.22-.69.62-.82,1.18-.03,1.63.61,1.57,1.72Z"/>
            <path class="cls-60" d="M52.04,109.29c-.21.21-.42.42-.63.63,0,0-.13,0-.13,0,0,0-.13,0-.13,0-.15-.68-1.21-1.08-.63-2,.19-.26.33-.57.71-.63.63.09.97.49,1.13,1.08.04.35-.05.66-.31.92Z"/>
            <path class="cls-116" d="M48.53,113.32c.26-.72.77-.85,1.43-.57.2.2.41.4.61.61-.17.31-.34.62-.51.93-.5-.18-1-.37-1.49-.55-.14-.08-.2-.17-.16-.27.04-.1.08-.15.13-.15Z"/>
            <path class="cls-28" d="M52.04,109.29c-.01-.29-.02-.58-.03-.87.28-.27.62-.38,1-.38.76.08,1.43.32,1.91.95,0,.13,0,.26-.01.39,0,0,0,.22,0,.22,0,.15.02.29.05.43.05.14.1.28.15.42.05.18-.01.3-.18.38-.45,0-.89,0-1.34-.01-.48-.55-.68-1.39-1.56-1.52Z"/>
            <path class="cls-251" d="M54.93,110.83c0-.16,0-.32-.02-.48-.12-.17-.12-.33.02-.49.19-.1.34-.07.46.11,0,.29.01.59.02.88,0,0-.24,0-.24,0l-.24-.03Z"/>
            <path class="cls-245" d="M31.02,106.97c.02-.53-.09-1.09.46-1.45.47-1.31.43-2.61.02-3.92v.02c-.64-1.07.2-2.37-.5-3.43-.7-.51-.4-1.27-.5-1.93,0-.1,0-.19,0-.29.05-.29.16-.56.31-.81.18-.25.41-.44.69-.56.21-.04.41-.02.61.06.28.17.47.41.58.72.04.21.03.42,0,.63-.21,1.04-.23,2.08.14,3.1.07.22.12.44.16.66.22,1.65-.01,3.32.23,4.96.02.24-.01.48-.08.71-.52.78-1,1.61-2.14,1.54Z"/>
            <path class="cls-250" d="M30.05,96.24c-.17.17-.33.35-.5.52-.16.15-.34.17-.54.07-.32-.29-.09-.8-.44-1.08h0c-.24-.35-.39-.74-.46-1.16-.36-1.95-.17-3.91-.16-5.87.03-.43.15-.83.4-1.18.32-.34.7-.39,1.12-.23.2.19.32.42.34.69.02,2.01-.51,4.05.36,6.01.38.77.48,1.52-.13,2.22Z"/>
            <path class="cls-218" d="M31.02,106.97c.55-.62.98-1.39,1.96-1.43.09.06.19.13.28.19.31.35.49.76.53,1.24,0,.24-.06.47-.15.69-.29.54-.65,1.02-1.13,1.41-.73.35-1.44.57-1.98-.29,0-.22,0-.44,0-.66.49-.24.49-.68.49-1.13Z"/>
            <path class="cls-6" d="M30.05,96.24c-.06-.7.22-1.49-.55-2-.09-1.99-.69-4,.33-5.93.84.31.92,1.11,1.2,1.79.33,2.09.31,4.15-.5,6.15,0,0-.02,0-.02,0-.15,0-.31-.01-.46-.01Z"/>
            <path class="cls-240" d="M31.51,101.6c.74,1.31.79,2.62-.02,3.92,0-1.31.01-2.62.02-3.92Z"/>
            <path class="cls-247" d="M31.01,98.18c.97,1.02.29,2.29.51,3.43-.95-1.03-.28-2.3-.51-3.43Z"/>
            <path class="cls-240" d="M29.08,96.75c.16-.01.31,0,.47,0,0,.97.01,1.94.02,2.91-.16,0-.33-.02-.49-.03,0,0,.01.01.01.01-.64-.97-.74-1.93,0-2.9Z"/>
            <path class="cls-250" d="M28.59,87.45l-.02,1.01c-.39,2.1-.39,4.19,0,6.29,0,.33,0,.67,0,1-.76-.2-.83-1.03-1.34-1.46-.08-.32-.16-.64-.24-.95-.37-1.82.17-3.7-.3-5.52.03-.14,0-.26-.08-.37.15-.35.31-.7.46-1.05.46.42,1.54-.06,1.51,1.05Z"/>
            <path class="cls-6" d="M29.08,96.75c0,.97,0,1.93,0,2.9-.17,0-.34,0-.51,0-.4-1.11-.32-2.23-.04-3.35.01-.18.03-.37.04-.55.41.21.48.59.5,1Z"/>
            <path class="cls-177" d="M28.54,96.3c.01,1.12.03,2.23.04,3.35-.73-1.11-.7-2.23-.04-3.35Z"/>
            <path class="cls-268" d="M30.53,108.77c.71.21,1.39.28,1.97-.32.81-.19,1.05.28,1.14.95-.48.91-.7,2.08-2.12,1.98,0-.17,0-.33,0-.5-.44-.54-.93-1.02-1.45-1.48-.01-.15-.01-.31-.01-.46.16-.06.32-.12.48-.18Z"/>
            <path class="cls-250" d="M56.38,107.78c-.48.07-.96.14-1.45.21-1.01-.09-.98-.91-1.12-1.6-.01-2.12-.15-4.25.1-6.37.6-1.3-.03-3.15,1.73-3.95.26-.1.53-.12.8-.09.59.26.87.62.43,1.24,0,.16-.01.32-.01.48-.15.15-.26.32-.34.52-.07.83.08,1.72-.58,2.41l-.03.03c-.42,1.93-.42,3.86,0,5.79.15.44.31.88.46,1.32Z"/>
            <path class="cls-285" d="M58.45,93.95c-.05.27-.1.55-.15.82-.14.16-.29.33-.43.49-.24.17-.46.15-.66-.05-.18-.27-.4-.58-.31-.87.66-2.26-.32-4.5-.09-6.75.47-.48.94-.46,1.42-.02.67,2.11.38,4.25.22,6.39Z"/>
            <path class="cls-164" d="M55.92,106.46c-.78-1.93-.78-3.86,0-5.79,0,1.93,0,3.86,0,5.79Z"/>
            <path class="cls-247" d="M57.38,95.24c.16,0,.33,0,.49.01-.49.58.99,2.14-.99,1.97-.03-.4-.1-.77-.49-.99-.15-.8.18-1.13.98-1Z"/>
            <path class="cls-177" d="M56.6,104.58c-.21-1.42-.31-2.18.02-3.08.41.92.31,1.71-.02,3.08Z"/>
            <path class="cls-240" d="M55.95,100.63c.12-.99-.45-2.09.49-2.94.44,1,.75,1.99-.11,2.94h-.19s-.19,0-.19,0Z"/>
            <path class="cls-6" d="M56.33,100.63c.04-.98.07-1.96.11-2.94.14,0,.29,0,.43.01.02.17.04.34.06.52.3.8.32,1.61-.02,2.4-.2,0-.39,0-.59,0Z"/>
            <path class="cls-177" d="M56.91,100.63c0-.8.01-1.6.02-2.41.66.81.65,1.61-.02,2.41Z"/>
            <path class="cls-7" d="M58.45,93.95c-.36-2.14.41-4.38-.52-6.47.28-.27.57-.32.88-.05.06.18.12.35.18.53-.05,1.94-.11,3.89-.16,5.83-.13.05-.25.11-.38.16Z"/>
            <path class="cls-280" d="M35.86,112.47c-.15.44-.29.88-.44,1.32-.34.08-.65.57-1.02.05-.27-.49-.55-.99-.82-1.48-.9-1.01-.07-1.66.49-2.37.21-.13.43-.14.65-.01.62.72,1.21,1.46,1.14,2.5Z"/>
            <path class="cls-27" d="M34.71,109.95c-.62.69-1.26,1.36-1.13,2.4-.69,0-1.39,0-2.08.01-.02-.16-.04-.33-.06-.49.02-.16.05-.33.07-.49,1.02-.32.92-1.7,1.92-2.03.61-.19.97.15,1.27.6Z"/>
            <path class="cls-187" d="M26.7,87.82c.68,1.81.19,3.68.3,5.52,0,0-.18.02-.18.02,0,0-.18-.02-.18-.02.02-1.84.04-3.67.05-5.51Z"/>
            <path class="cls-199" d="M48.53,113.32c.04.14.05.28.03.42-.29.03-.59.06-.88.08-.36.17-.72.34-1.08.51-.08-.08-.16-.15-.25-.23-.53-.87-.71-1.87-1.07-2.81-.02-.36.06-.69.31-.96.23-.09.45-.07.65.08.76.97,1.25,2.17,2.3,2.91Z"/>
            <path class="cls-129" d="M45.19,114.68c0-.11,0-.22-.01-.33.47-.46.95-.45,1.44-.02,0,0-.01,0-.01,0,0,.45.01.91.02,1.36-.51-.29-.69-1.05-1.43-1.02Z"/>
            <path class="cls-131" d="M30.06,109.41c1.08-.09,1.55.41,1.45,1.48-.16,0-.32,0-.48,0-.63-.29-.99-.75-.97-1.47Z"/>
            <path class="cls-19" d="M55.4,109.98h-.5s-.17-.16-.17-.16c.04-.15.1-.29.18-.42,0,0-.01-.01-.01-.01.18,0,.36,0,.55.01.41.23.25.42-.06.58Z"/>
            <path class="cls-73" d="M54.43,106.52c.17.49.33.98.5,1.48,0,.33,0,.66,0,1-.63-.2-1.26-.39-1.89-.59-.57-.5-1.19-.98-1.31-1.81,0-.22.06-.43.16-.62.48-.41,1-.26,1.53-.12.2.06.4.14.58.23.17.13.31.27.45.43Z"/>
            <path class="cls-135" d="M45.55,67.94c.66-1.23,1.35-1.3,2.07-.06-.46.17-.51.57-.52.98-.11.19-.26.24-.46.13-.66-.04-1.07-.35-1.1-1.05Z"/>
            <path class="cls-156" d="M43.75,68.88c-.2.04-.41.09-.61.13-.35.25-.74.19-1.12.09-.71-.42-.74-1.01-.42-1.68.6-.49,1.19-.43,1.78.04.35.41.57.86.37,1.42Z"/>
            <path class="cls-189" d="M46.65,68.99c.15-.06.3-.1.46-.13.55.27.7,1.12,1.49,1.05.03.15.03.31,0,.46-.64.47-1.28.15-1.92.02,0-.46-.02-.93-.02-1.39Z"/>
            <path class="cls-99" d="M43.75,68.88l-.45-.96c.23-.37-.03-1.2.87-.94.21.31.41.63.62.94-.23.45.29,1.72-1.05.96Z"/>
            <path class="cls-229" d="M42.31,69c.28,0,.55,0,.83.01,0,.46,0,.92-.01,1.38-.32.15-.64.3-.96.45,0-.46.02-.91.02-1.37-.16-.21-.11-.37.12-.48Z"/>
            <path class="cls-161" d="M46.71,70.46c-.02.13-.04.27-.05.4-.19-.03-.37-.06-.56-.09.2-.11.41-.21.61-.32Z"/>
            <path class="cls-122" d="M42.31,69c-.04.16-.08.32-.12.48-1.04.37-1.7.06-1.92-1.07.02-.68.34-1.16.94-1.48.56-.17.7.08.58.59-.04.57-.05,1.13.52,1.48Z"/>
            <path class="cls-58" d="M38.26,67.95c.14-.4-.01-1.11.72-.92.59.15.73.75.75,1.33-.15.3-.3.6-.45.9-.29-.28-.59-.56-.88-.85-.13-.07-.2-.17-.19-.28,0-.12.02-.18.06-.18Z"/>
            <path class="cls-92" d="M50.05,75.23h-.23s-.23,0-.23,0c.16-.37.32-.36.46,0Z"/>
            <path class="cls-148" d="M50.56,68.42c.12.63.25,1.26.37,1.88-.14.02-.27.04-.4.08-.52-.58-1.02-1.19-1.93-1.01.53-.58.61-2.08,1.96-.95Z"/>
            <path class="cls-108" d="M38.26,67.95c.05.15.1.31.14.46-.35.49-.71.98-1.06,1.46-.15-.17-.31-.34-.46-.51-.35-.24-.72-.45-.74-.94.03-.48.29-.77.73-.92.46.15.93.3,1.39.44Z"/>
            <path class="cls-83" d="M36.37,68.45c.17.31.33.61.5.92-.89-.13-1.37.52-1.94,1.01,0-.8,0-1.61.01-2.41.64-.33,1.05.03,1.43.49Z"/>
            <path class="cls-222" d="M32.41,77.87c.96-1.23,2.02-.59,3.06-.15.12.2.13.4.04.61-.64.72-.58,1.49-.15,2.27.32.55.84.81,1.4,1.05.78.45,1.94.21,2.37,1.29,1.1,2.22-1.22,3.22-1.74,4.87-.32.55-.83.55-1.36.44-1.99-1.45-3.36-3.42-4.53-5.52-.99-1.79-.27-3.41.93-4.86Z"/>
            <path class="cls-269" d="M50.06,78.17c.99-1.82,2.28-.88,3.52-.39,2.27,4.27-.37,7-3.06,9.72-.18.14-.38.26-.59.36-.88.38-1.55.3-1.73-.81-1.6-1.11-2.45-2.49-1.51-4.46.47-.54,1.14-.63,1.76-.83.76-.23,1.66-.26,1.82-1.32.34-.8.24-1.55-.22-2.26Z"/>
            <path class="cls-264" d="M39.8,78.11c1.31-1.22,4.59-1.3,6.44-.17-2.95.19-2.35,2.94-3.13,4.65-2.12-.89-.49-4.28-3.31-4.48Z"/>
            <path class="cls-195" d="M35.94,87.9c.48-.03.96-.06,1.44-.09,1.81-.24,3.63-1.07,5.39.17.14.26.17.53.1.82-.34,1.09-.38,2.2-.4,3.33-.07,3.48-.65,3.99-4.17,3.81-.48-.02-.96-.07-1.41-.24-.25-.11-.45-.29-.58-.52.22-.96,1.09-.92,1.79-1.15.22-.04.45-.05.68-.04.73,0,1.7.59,1.85-.79,0-1.21.14-2.43-.14-3.62-1.17-.99-2.63-.24-3.89-.65-.24-.07-.45-.18-.64-.35-.17-.23-.16-.45,0-.67Z"/>
            <path class="cls-169" d="M50.06,78.17c2.19.32,1.04,1.52.66,2.52-.7.26-1.41.31-2.13.15-.3-.17-.49-.41-.56-.75.46-.67.58-1.57,1.4-1.98.21.02.42.04.64.06Z"/>
            <path class="cls-299" d="M34.94,81.04c-.21-1.01-1.97-2.27.46-2.86.49.4,1.1.58,1.61.95.45.21.47.57.34.99-.69.61-1.36,1.29-2.42.92Z"/>
            <path class="cls-11" d="M42.77,88.38c-.05-.13-.05-.27,0-.4,1.32.04,2.64.08,3.96.11.74.02,1.48.01,1.47-1.04.37.61.93.69,1.56.57.12.4.05.76-.27,1.04-.22.14-.46.24-.71.3-1.28.18-2.56.08-3.84.11-.26,0-.52,0-.78-.03-.53-.07-1.04-.18-1.38-.66Z"/>
            <path class="cls-23" d="M48.02,80.08c.19.18.38.35.57.53.41.49.4.99.03,1.49-.5.72-1.28.36-1.93.48-.12-1.13.61-1.81,1.33-2.5Z"/>
            <path class="cls-104" d="M39.12,82.95c-.89-.29-1.79-.58-2.68-.87-.29-.94.32-1.29,1.03-1.57,1.06.47,1.79,1.16,1.65,2.44Z"/>
            <path class="cls-91" d="M37.47,80.5c-.34.52-.69,1.05-1.03,1.57-.55-.27-1.2-.4-1.5-1.04.76-.42,1.44-1.07,2.42-.92.06.12.1.25.11.39Z"/>
            <path class="cls-236" d="M37.01,79.13c-.74.03-1.51.12-1.61-.95.02-.15.04-.31.06-.46.15-.03.31-.02.45.03.2.59,1.14.59,1.09,1.37Z"/>
            <path class="cls-285" d="M50.09,87.58c.76-1,1.52-2,2.29-3,1.24-1.62,2.49-3.22.89-5.34-.34-.45-.29-1.08.32-1.46.29.1.58.21.87.31,2.35.14,3.62,1.77,3.51,4.49.16.65.33,1.3.49,1.95.12.97.24,1.93.36,2.89-.29.02-.58.03-.88.05-.42-.02-.8.05-1.03.46-.17.15-.36.19-.57.13-.39-.2-.64-.54-.89-.87-.25-.31-.53-.57-.91-.69-.28,0-.5.12-.68.33-.51.51-.59,1.22-.88,1.83-.49.49-1.02.94-1.63,1.29-2.41.25-1.67-1.15-1.24-2.38Z"/>
            <path class="cls-274" d="M57.95,82.58c-.63-1.91-1.4-3.72-3.51-4.49.88-1.63,2.4-.9,3.57-.76,1.34.16.83,1.55.78,2.38-.06.98.74,2.31-.85,2.87Z"/>
            <path class="cls-285" d="M35.94,87.9c0,.19.02.38.03.58.52.75.52,1.44-.18,2.08-.23.12-.47.17-.72.16-.37-.05-.67-.23-.88-.54-.32-.69-.64-1.38-1.08-2.01-.29-.56-.66-1.05-1.21-1.38-.48-.25-.95-.71-1.46-.05-.23.33-.48.64-.91.71-.31,0-.62,0-.93,0-.21-.77-1.63.2-1.51-1.05.03-.95.06-1.89.09-2.84.06-3.57,1.55-5.53,4.39-5.78.28.03.57.05.85.08-2.18,4.53,1.37,7.03,3.53,10.03Z"/>
            <path class="cls-266" d="M31.56,77.79c-2.8.91-3.48,3.44-4.39,5.78-1.14-2.05-.28-4.27-.5-6.39,1.62.32,3.39-.61,4.9.62Z"/>
            <path class="cls-267" d="M41.78,67.52c-.19-.2-.38-.39-.58-.59.04-.15.08-.31.12-.46.61-.01,1.26.07,1.41-.78.06-.62.52-.67,1-.68.17.01.35.02.52.03-.09.64-.54,1.26-.09,1.92-.29.31-.58.63-.87.94-.4-.52-.96-.46-1.51-.4Z"/>
            <path class="cls-172" d="M43.74,65.02c-.33.23-.67.45-1,.68-.19-.07-.38-.14-.56-.21-.16-.28-.17-.58-.11-.89.1-.19.25-.32.45-.39.2-.05.41-.05.62-.02.2.07.35.2.47.38.03.15.08.31.13.46Z"/>
            <path class="cls-244" d="M44.18,63.05c.01.39-.04.76-.41.99-.32-.04-.51-.23-.65-.5-.06-.19-.04-.38.04-.56.15-.13.33-.19.53-.19.19.03.36.12.5.26Z"/>
            <path class="cls-220" d="M43.33,63.53c.15.17.29.34.44.51-.05.17-.11.35-.16.52-.13-.02-.27-.04-.4-.05-.26-.24-.27-.52-.14-.82.09-.05.17-.1.26-.16Z"/>
            <path class="cls-200" d="M43.3,62.12c.14,0,.27,0,.41,0,0,.15,0,.31,0,.46-.08.04-.16.09-.23.13-.18-.07-.29-.19-.33-.37.05-.07.11-.14.16-.21Z"/>
            <path class="cls-200" d="M44.18,63.05c-.22-.02-.44-.05-.65-.07.02-.1.03-.2.05-.31,0,0,.13-.1.13-.1.16.16.32.32.48.47Z"/>
            <path class="cls-181" d="M36.37,68.45c-.48-.16-.95-.33-1.43-.49-.32-.17-.64-.35-.95-.52.14-.46.28-.93.42-1.39.49,0,.93-.09,1.18-.59.09,0,.17.01.26,0,.16.77.42,1.49,1.02,2.04-.17.31-.33.63-.49.94Z"/>
            <path class="cls-123" d="M42.32,64.49c-.05.33-.1.66-.15.99-.64-1.14-.7-2.28.06-3.4.07.06.15.13.23.19.1.17.17.35.21.55.03.19.04.39.04.59,0,.41-.11.77-.38,1.09Z"/>
            <path class="cls-137" d="M40.81,64.1l-.03-3.01c-.16-.09-.22-.19-.17-.29.05-.1.1-.15.16-.15.16-.02.31-.01.47.03-.13,1.14.43,2.37-.42,3.42Z"/>
            <path class="cls-215" d="M42.31,60.63c.3-.16.6-.32.89-.48,0,.32,0,.63,0,.95-.3.29-.59.3-.87-.03-.06-.14-.07-.29-.03-.44Z"/>
            <path class="cls-6" d="M43.21,61.6c.03.17.06.35.09.52,0,0-.1-.06-.1-.06-.11.17-.26.26-.46.28-.2-.03-.34-.14-.44-.31,0,0-.07.05-.07.05,0-.16.03-.31.09-.46.29-.33.58-.33.89-.02Z"/>
            <path class="cls-115" d="M43.21,61.6c-.3,0-.59.01-.89.02,0-.19.01-.37.02-.56.29,0,.58.02.87.03,0,.17,0,.34,0,.51Z"/>
            <path class="cls-133" d="M40.76,60.65c.01.15.02.3.01.44-.97-.13-2.02.36-2.9-.41.96,0,1.92-.02,2.88-.03Z"/>
            <path class="cls-94" d="M38.95,108.95c.43-.21.86-.42,1.29-.62.34.07.57.3.75.58.1.2.15.41.18.63,0,.34-.1.64-.37.87-.67-.08-1.29.09-1.86.45-.49-.64-.53-1.28.02-1.91Z"/>
            <path class="cls-17" d="M38.95,108.95c0,.64-.01,1.27-.02,1.91-.07.16-.14.32-.21.48-.53-.85-.73-1.67.22-2.38Z"/>
            <path class="cls-247" d="M40.79,110.41c0-.33.01-.65.02-.98.18-.16.38-.17.58-.05.13.18.22.38.25.61.01.35-.11.65-.36.89,0,0-.05-.02-.05-.02-.15-.15-.29-.3-.44-.45Z"/>
            <path class="cls-173" d="M43.77,111.37c-.17-.16-.34-.31-.51-.47-.18,0-.36-.02-.54-.02-.33-.47-.11-1-.15-1.51-.02-.58.06-1.09.73-1.27.34-.05.66,0,.95.19.55.63.46,1.44.63,2.17.01.11.02.22.03.33,0,.23-.1.42-.26.58-.29,0-.59,0-.88,0Z"/>
            <path class="cls-61" d="M43.21,109.42c-.16.48-.32.97-.48,1.45,0,0-.23,0-.23,0,0,0-.23,0-.23,0-.17,0-.34,0-.5,0-.16,0-.32,0-.48,0,0-.33.01-.67.02-1,.47-.86,1.1-1.03,1.91-.46Z"/>
            <path class="cls-215" d="M44.66,111.37c.02-.16.04-.31.06-.47.54-.28.7.2.95.49.43.94,1.13,1.8.95,2.94-.48,0-.96.01-1.44.02-.15-.83.35-1.79-.49-2.49-.01-.16-.02-.33-.03-.49Z"/>
            <path class="cls-4" d="M40.2,107.03c-.47-.26-.42-.68-.36-1.11.5-.35.76-.82.75-1.44.19-2.12-.34-4.27.36-6.36,1.65-1.05,1.33.61,1.41,1.18.25,1.93.13,3.89.09,5.83,0,.27-.04.54-.09.8-.04.26-.13.5-.25.74-.13.22-.31.4-.53.53-.23.1-.47.14-.72.13-.24-.06-.46-.16-.66-.3Z"/>
            <path class="cls-8" d="M34.71,109.95c-.42-.2-.85-.4-1.27-.6-.18-.44-.49-.75-.94-.91.31-.34.61-.68.92-1.01.15-.13.32-.24.5-.33.2-.06.39-.09.6-.1.21,0,.41,0,.61.04.41.11.8.24.83.76-.41.73-.82,1.45-1.23,2.18,0,0,0-.02,0-.02Z"/>
            <path class="cls-46" d="M41.27,105.5c-.3.74-.94.34-1.43.43-.1-.66-.54-.92-1.15-.96-.45-.22-.61-.6-.56-1.08.31-.85,1.23-.8,1.83-1.24.2-.11.41-.18.63-.2.24.05.38.19.43.43.15.87-.26,1.8.26,2.63Z"/>
            <path class="cls-145" d="M38.31,104.14c.12.27.25.55.37.82-.71.7-.35,2.25-1.85,2.33-.51-.49-.52-1.12-.54-1.76.04-.78.17-1.52.88-2.01.62-.24.93.11,1.14.63Z"/>
            <path class="cls-252" d="M36.86,105.52c0,.59-.02,1.18-.02,1.77-.3.17-.59.33-.89.5-.34-.12-.67-.25-1.01-.37-.29-.24-.34-.56-.28-.91.21-.66.52-1.24,1.15-1.6.56-.16.8.23,1.06.61Z"/>
            <path class="cls-130" d="M40.78,108.92c-.18-.2-.36-.39-.55-.59.03-.3.07-.6.1-.89.19-.16.39-.15.58-.02.13.19.2.39.23.62,0,.23-.05.44-.14.65-.08.08-.16.16-.24.24Z"/>
            <path class="cls-6" d="M40.75,107.43h-.21s-.21,0-.21,0c-.09-.12-.14-.25-.14-.4.19-.02.39-.04.58-.06.12.11.16.21.11.31-.05.1-.09.15-.14.15Z"/>
            <path class="cls-271" d="M49.6,107.55c-1.93.25-1.93-1.45-2.54-2.53-.13-.19-.17-.4-.12-.63.23-.53.48-1.02,1.18-.98.74.44,1.35,1.08,2.14,1.46.36.32.6.71.65,1.21.15,1.01-.87.98-1.31,1.47Z"/>
            <path class="cls-175" d="M47.11,104.55c0,.16-.02.32-.04.48-.48.17-.97.34-1.45.5-.18.32-.39.59-.81.59-.22-.12-.38-.28-.49-.5-.26-1.08-.46-2.14.41-3.07.48-.18.93-.04,1.37.14.79.37,1.32.89,1.02,1.86Z"/>
            <path class="cls-204" d="M44.22,108.43c-.33,0-.65,0-.98-.01-.4-.18-.74-.43-.8-.91,0-.11,0-.21,0-.32.03-.1.06-.2.09-.31.1-.19.22-.36.37-.52.08-.07.16-.14.24-.21.26-.19.54-.31.86-.32.32.04.49.32.76.46.45.27.56.78.85,1.16.1.12.13.25.1.41.13.21.15.42.05.65-.27.25-.6.33-.96.28-.22-.07-.42-.19-.58-.35Z"/>
            <path class="cls-193" d="M45.67,108.46c.01-.2.03-.4.04-.6.35.82,1.65,1.44.52,2.56-.19,0-.37-.02-.56-.02-.6-.64-.5-1.29,0-1.93Z"/>
            <path class="cls-198" d="M49.6,107.55c.15-.62,1.04-.79.94-1.56.44-.14.65.12.81.47.08.37.04.72-.23,1.01-.2.15-.4.3-.61.45-.18-.41-.52-.46-.91-.37Z"/>
            <path class="cls-20" d="M45.61,107.45c-.32-.34-.63-.68-.95-1.02-.13-.1-.17-.19-.11-.26.05-.07.1-.11.15-.11.16-.04.31-.09.46-.15.07.04.14.08.21.13.06.16.14.3.25.42,0,.33-.01.66-.02,1Z"/>
            <path class="cls-37" d="M45.17,105.91c.15-.12.3-.25.45-.37,0,.17.01.35.02.52l-.2.1-.22-.05-.06-.21Z"/>
            <path class="cls-6" d="M45.23,106.11c.13-.07.27-.09.41-.06.07.13.07.27,0,.4-.14-.11-.27-.23-.41-.34Z"/>
            <path class="cls-132" d="M51.12,107.48c-.03-.3-.06-.6-.08-.89.31-.41.64-.38,1-.07.33.63.66,1.25.99,1.88-.34,0-.68.01-1.02.02-.29-.31-.59-.63-.88-.94Z"/>
            <path class="cls-263" d="M54.91,109.98c.02.12.02.25.01.37-.16-.14-.32-.29-.47-.43.15-.16.32-.18.51-.07l-.05.13Z"/>
            <path class="cls-139" d="M54.96,109.85c-.17.02-.34.05-.51.07.16-.18.32-.35.47-.53.01.15.03.31.04.46Z"/>
            <path class="cls-287" d="M32.47,95.83c0-.18.02-.37.03-.55.16-.42.4-.72.92-.54.23.17.39.39.5.66.4,2.52.19,5.05.14,7.58-.07.44-.22.83-.56,1.13-1.08-.02-.69-.86-.76-1.4-.15-1.17.26-2.39-.26-3.53h0c-.38-1.12-.35-2.23-.02-3.35Z"/>
            <path class="cls-260" d="M33,94.74c-.17.18-.33.35-.5.53-.17-.16-.33-.33-.5-.49-.95-1.23-.72-2.59-.42-3.96.28-.61.76-.7,1.34-.49.25.1.46.25.64.45.11.24.16.49.15.75-.22,1.07.15,2.27-.71,3.21Z"/>
            <path class="cls-6" d="M31.51,94.77c-.15.16-.31.32-.46.49-.59-1.64-.1-3.34-.28-5-.06-.42-.15-.84.1-1.23.52-.39.73,0,.95.37.14.42-.01.83-.07,1.24-.13,1.37.24,2.77-.24,4.12Z"/>
            <path class="cls-177" d="M30.99,89.93c.02,1.78.04,3.55.06,5.33-.05.4-.09.8-.53.99,0-2.12.01-4.24.02-6.36.08-.06.16-.12.24-.18.07.07.14.15.21.22Z"/>
            <path class="cls-177" d="M32.49,99.17c1.2,1.46-.23,3.4.89,4.87.32.57,0,.83-.49,1.01-.84-1.91-.2-3.93-.4-5.88Z"/>
            <path class="cls-144" d="M31.51,94.77c.02-1.47.05-2.94.07-4.41.15-.14.29-.12.43.02,0,1.47,0,2.93,0,4.4-.16,0-.33,0-.49-.01Z"/>
            <path class="cls-95" d="M32.89,105.05c.16-.34.33-.68.49-1.01.06-.25.12-.51.18-.76.18-.61.55-.38.91-.21.61,1.51.19,2.37-1.52,2.42,0,0,.03.05.03.05-.03-.16-.06-.32-.09-.48Z"/>
            <path class="cls-240" d="M32.47,95.83c0,1.11.01,2.22.02,3.34-.76-1.11-.76-2.22-.02-3.34Z"/>
            <path class="cls-177" d="M30.05,88.43c-1.04,1.86-.18,3.89-.55,5.81-.66-2.11-.75-4.21.05-6.3.47-.13.59.07.5.5Z"/>
            <path class="cls-241" d="M28.58,94.75c-.78-2.1-.78-4.19,0-6.29,0,2.1,0,4.19,0,6.29Z"/>
            <path class="cls-240" d="M30.05,88.43c-.17-.17-.33-.33-.5-.5,0-.16-.01-.32-.03-.48.17-.33.34-.67.52-1,2.03.88.65,2.25.49,3.45,0,0,.01,0,.01-.01-.6-.34-.48-.92-.5-1.46Z"/>
            <path class="cls-279" d="M32.96,105.49c1.2-.36,1.49-1.25,1.39-2.37.1-.07.2-.13.3-.2.65-.02,1.17.19,1.52.76.17.49.15.94-.27,1.31-.31.49-.63.99-.94,1.48-.34.21-.18.82-.71.87l-.12.02c-.29-.03-.52-.16-.61-.46-.29-.43-.66-.83-.57-1.41Z"/>
            <path class="cls-258" d="M33.52,106.9c.2.15.41.31.61.46-.24.02-.48.04-.72.07.04-.18.07-.35.11-.53Z"/>
            <path class="cls-285" d="M56.42,87.94c.16,0,.32,0,.47,0,1.72,2.33.56,4.85.49,7.3-.46.2-.81.52-.98,1-.16,0-.33,0-.49,0-.08-.11-.16-.22-.24-.33-.14-.4-.13-.8-.02-1.2.48-2.23-.61-4.64.77-6.77Z"/>
            <path class="cls-164" d="M54.43,106.52c-.16-.04-.33-.09-.49-.13-.98-2.25-1.06-4.48.06-6.71.15,0,.29-.02.44-.03,0,2.29,0,4.58,0,6.87Z"/>
            <path class="cls-177" d="M55.91,96.24c-1.55.68-.46,2.5-1.46,3.41,0,0,.01,0,.01,0-.88-1.26-.97-2.48.2-3.62.46-.17.87-.11,1.25.21h0Z"/>
            <path class="cls-6" d="M45.67,108.46c0,.64,0,1.29,0,1.93,0,.33,0,.66,0,1-.32-.16-.64-.33-.95-.49,0,0-.01,0-.01,0-.37-.82-.4-1.63.02-2.45.32,0,.63,0,.95.01Z"/>
            <path class="cls-201" d="M54.94,96.21c-.93,1.04-.3,2.3-.49,3.45-1.03,2.18-.22,4.5-.52,6.73-.13.08-.27.1-.42.09-.41-.67-1.28-1.04-1.27-1.98.16-1.13.14-2.27.01-3.4.03-.36.15-.69.32-1.01.6-1.52-.11-3.21.62-4.71.15-.22.36-.37.62-.45.41-.08.79-.03,1.14.21.25.36.28.73-.01,1.08Z"/>
            <path class="cls-197" d="M52.04,106.52c-.33.02-.67.04-1,.07-.16-.2-.33-.39-.49-.59-.17-.31-.33-.62-.5-.92-.65-.75-1.03-1.68-1.61-2.47-.11-1.09.41-1.99.91-2.89.17-.16.38-.23.62-.23.86.32,1.03,1.1,1.27,1.84.05.2.08.41.08.61-.08.62.19,1.14.53,1.63.22.36.37.75.4,1.17.11.43.2.85-.09,1.25-.04.18-.09.36-.13.54Z"/>
            <path class="cls-202" d="M52.17,105.98c-.05-.48-.09-.96-.14-1.43.17-.12.33-.13.5,0,.41.6,1.06,1.08.99,1.93-.45-.16-.9-.33-1.35-.49Z"/>
            <path class="cls-76" d="M50.09,87.58c.34.72-1.04,2.8,1.44,1.82.72-.13.72.37.76.85-.17.73-.51,1.33-1.16,1.74-.24.08-.48.08-.72,0-.58-.3-.99-.75-1.23-1.36-.23-.77-.21-1.51.31-2.17.09-.28.18-.56.28-.84.11-.02.22-.04.33-.04Z"/>
            <path class="cls-143" d="M48.62,82.1c0-.5-.02-.99-.03-1.49.71-.09,1.43-.32,2.12.07q-.11,1.34-2.1,1.42Z"/>
            <path class="cls-203" d="M44.1,105.98c-.3.16-.6.32-.9.48-.6.03-1.17-.02-1.45-.67.02-2.24.06-4.49.04-6.73,0-.35.35-1.02-.51-.97-.18.23-.41.34-.69.35-1.44-.27-3.04.31-4.33-.78-.48-.83-.55-1.62.18-2.35,1.66-.31,3.74.66,4.9-.47,1.17-1.14.31-3.22.43-4.88.05-.75-.01-1.49,1.02-1.57.53.01,1.06.02,1.59.03,1,1.76.17,3.74.67,5.55,1.14,1.34,3.08.03,4.25,1.29.47.8.47,1.6.02,2.4-.5.56-1.17.64-1.86.68-1.01.2-2.6-.61-2.56,1.46-.18,2.07-.33,4.15-.79,6.18Z"/>
            <path class="cls-277" d="M36.44,88.5c1.59.15,3.25-.55,4.77.42-.39.45-.82.83-1.44.93-.47.09-.94.05-1.4-.07-.67-.22-1.38-.29-1.98-.69-.17-.21-.15-.41.05-.59Z"/>
            <path class="cls-70" d="M39.76,89.43c.48-.17.97-.35,1.45-.52,0,1.63.01,3.25.02,4.88-.21.14-.41.13-.6-.02-.68-.97-.23-2.16-.65-3.18-.12-.18-.23-.36-.31-.56-.07-.22-.04-.42.09-.6Z"/>
            <path class="cls-191" d="M38.9,94.34c-.19,0-.38-.01-.57-.02-.47.14-.62-.15-.72-.52,0-.53.27-.91.71-1.18.36-.13.71-.12,1.05.05.39.33.59.75.62,1.26-.19.6-.56.69-1.08.41Z"/>
            <path class="cls-152" d="M36.44,88.5c-.01.13-.01.26,0,.39.72.99.71,2.05.3,3.15-.13.26-.34.41-.64.43-.85-.49-.98-1.2-.63-2.06.79-.49.25-1.31.49-1.94.16-.03.32-.03.47.02Z"/>
            <path class="cls-151" d="M38.9,94.34c.35-.14.7-.28,1.05-.42.04-.18.14-.31.33-.35.19,0,.33.07.44.22.17,0,.34,0,.51.01-.39,1.85-1.42.96-2.33.54Z"/>
            <path class="cls-96" d="M36.42,95.31v2.34c-.09.06-.18.13-.27.19-.23-.02-.41-.13-.53-.33-.29-.62-.26-1.28-.2-1.94.03-.22.1-.42.2-.62.13-.19.31-.29.53-.3.08.07.16.15.24.22,0,.15.01.29.03.44Z"/>
            <path class="cls-290" d="M37.77,93.83c.19.16.37.32.56.49-.46.84-1.33.24-1.94.55,0,0-.02-.16-.02-.16-.13-.18-.13-.37,0-.56.42-.33.85-.6,1.41-.32Z"/>
            <path class="cls-300" d="M44.23,94.73c.05-2.1.09-4.21.14-6.31.07.06.15.11.24.14.47.35,1.17.44,1.29,1.17-.13,1.48.09,2.99-.39,4.44-.3.48-.68.76-1.28.56Z"/>
            <path class="cls-105" d="M45.74,89.43c-.61,0-.99-.28-1.13-.88,1.51,0,3.02,0,4.53,0,.09.23.04.43-.15.6-.49.32-1.04.5-1.6.65-.6.1-1.18.13-1.64-.37Z"/>
            <path class="cls-223" d="M49.06,88.93c.01-.13.04-.26.08-.39.11-.05.23-.08.35-.09.07.8.14,1.59.21,2.39.14.4.19.78-.17,1.1-.3.06-.53-.04-.7-.29-.47-.96-.44-1.87.24-2.73Z"/>
            <path class="cls-177" d="M56.42,87.94c-.3,2.42.56,4.93-.5,7.3-1.4-1.92-.2-4.23-.93-6.25-.02-.83-.38-1.82.93-2.06.17.34.33.68.5,1.01Z"/>
            <path class="cls-112" d="M55.92,86.93c-.7.53-.4,1.31-.49,1.99-.11.06-.23.13-.34.19-.65.04-.93-.37-1.1-.9-.14-.8-.16-1.58.46-2.22.68.02,1.19.3,1.47.94Z"/>
            <path class="cls-173" d="M52.98,88.43c-.62-.85.22-1.33.49-1.95,1.34.14.47,1.19.73,1.78,0,.61.34,1.31-.42,1.74-.44.05-.73-.17-.96-.5-.15-.39-.12-.74.16-1.06Z"/>
            <path class="cls-6" d="M52.98,88.43c0,.31,0,.62,0,.93-.05.7.1,1.51-.96,1.6-.15-.13-.2-.25-.15-.38.04-.13.09-.2.14-.2,0-.4-.08-.77-.47-.99.27-.64.76-.96,1.45-.96Z"/>
            <path class="cls-177" d="M53.98,88.42c-.1-.67.25-1.45-.51-1.95.09-.63.19-1.24.97-.49,0,.81-.02,1.62-.02,2.43-.15.23-.29.24-.44,0Z"/>
            <path class="cls-134" d="M35.95,94.74c-.04.19-.09.37-.13.56-.14.14-.3.23-.49.27-.2.01-.39,0-.58-.03-.38-.08-.83,0-1.02-.48-.04-.21-.07-.42-.09-.63.14-.87.22-1.74.44-2.6.16-.55.39-1.07.84-1.46.19.02.37.03.56.05.18.65.35,1.29.53,1.94.64.81.35,1.6-.05,2.38Z"/>
            <path class="cls-171" d="M31.57,89.49c-.18-.19-.36-.39-.54-.58-.52-1.15-.1-1.91.98-2.41.96,0,1.41.51,1.45,1.44-.28.65.24,1.44-.36,2.03-.68.39-1.14.07-1.52-.48Z"/>
            <path class="cls-231" d="M32,86.5c-.05.91-1.3,1.35-.98,2.41,0,.34-.02.68-.03,1.02-.15-.02-.31-.03-.46-.03-.21-1.14.44-2.41-.49-3.45.69-1.37,1.33-.95,1.96.05Z"/>
            <path class="cls-102" d="M32.9,89.99c.15-.69-.16-1.51.55-2.05.54.55,1.2,1.03.99,1.95-.25.42-.4.94-1.01,1-.17-.02-.34-.03-.51-.05-.21-.28-.23-.56-.02-.85Z"/>
            <path class="cls-61" d="M33.44,90.88c.2-.47.53-.81,1.01-1,.16.16.32.32.47.48-.03.54.1,1.12-.48,1.48-.34.22-.6.05-.85-.18-.04-.1-.09-.2-.13-.3,0-.16-.01-.32-.02-.48Z"/>
            <path class="cls-31" d="M42.32,64.49c0-.48.01-.96.02-1.45.31-.28.61-.28.91.01,0,.17.02.32.09.47,0,0-.21.03-.21.03-.17.29-.13.67-.35.94h-.23s-.23,0-.23,0Z"/>
            <path class="cls-6" d="M42.77,64.5c-.06-.38,0-.72.35-.94.03.32.05.63.08.95,0,0-.22.02-.22.02l-.22-.03Z"/>
            <path class="cls-237" d="M43.25,63.06c-.3,0-.6,0-.91-.01-.01-.17-.02-.33-.03-.5.11-.16.24-.31.38-.44.17-.02.34-.03.51-.05.13.21.25.41.38.62-.01.1-.03.2-.05.31-.1,0-.19.03-.28.08Z"/>
            <path class="cls-71" d="M42.69,62.11c-.13.15-.26.29-.38.44,0-.17,0-.34-.01-.51.13.03.26.05.4.07Z"/>
            <path class="cls-66" d="M41.27,109.42c-.15,0-.31,0-.46.01,0-.17-.02-.34-.02-.51,0,0,0,0,0,0,.16-.17.34-.2.54-.07.11.2.09.39-.05.56Z"/>
            <path class="cls-34" d="M41.27,109.42c0-.16,0-.33,0-.49-.24-.17-.23-.42-.23-.67.02-.17.08-.32.18-.46.13-.1.28-.19.43-.26.22-.11.45-.23.69-.29.18,0,.31.08.38.25.17.31.34.62.51.92-.56.32-.07.67-.03,1-.7-.08-1.32.14-1.91.46-.01-.15-.03-.31-.03-.46Z"/>
            <path class="cls-164" d="M44.72,108.45c0,.81-.01,1.63-.02,2.44-.84-.69-.37-1.63-.48-2.46.16,0,.33,0,.49.01Z"/>
            <path class="cls-70" d="M40.81,98.13c.16.08.32.06.47-.04.24,2.47.22,4.94,0,7.41-.89-.86-.3-1.97-.51-2.95-.94-1.15-.64-2.44-.46-3.73.1-.28.27-.51.5-.69Z"/>
            <path class="cls-11" d="M41.74,105.79c.32.57,1.23-.11,1.45.67,0,0,0-.04,0-.04-.15.19-.28.42-.56.44v.02c-.06.2-.19.28-.39.23-.27-.13-.31-.43-.48-.64,0-.23-.01-.46-.02-.69Z"/>
            <path class="cls-298" d="M41.84,107.91c-.2,0-.4,0-.6.01-.22-.32-.26-.64.03-.95h.51s.18.11.18.11c.05.14.07.28.04.43-.02.15-.07.28-.15.4Z"/>
            <path class="cls-294" d="M41.26,106.97c0,.32-.02.63-.03.95,0,0,.03.02.03.02-.15.23-.31.23-.48.02-.01-.18-.02-.36-.03-.53.02-.15.02-.3.03-.46.16,0,.32,0,.49,0Z"/>
            <path class="cls-6" d="M41.76,106.48c.38-.04.69.03.87.41-.27.24-.57.27-.88.08,0,0,.02,0,.02,0,0-.16,0-.32-.01-.48Z"/>
            <path class="cls-120" d="M34.25,107.35c.07-.42.07-.9.71-.87,0,.31,0,.63-.01.94-.23-.02-.46-.05-.69-.07Z"/>
            <path class="cls-234" d="M40.36,102.6c-.09.1-.11.22-.08.35-.75.66-1.66.28-2.5.38-.26-.03-.46-.15-.61-.37-.08-.23-.1-.47-.07-.71.18-.49.55-.75,1.05-.85.58,0,1.11.18,1.63.42.19.12.35.27.47.46.03.11.06.21.09.32Z"/>
            <path class="cls-121" d="M40.73,98.8c0,1.25.02,2.5.03,3.75-.13.03-.27.04-.41.05,0,0-.13.01-.13.01l-.12-.05c-.14-.76-.54-1.48-.43-2.29.01-.54.1-1.05.42-1.5.22-.24.43-.23.64.02Z"/>
            <path class="cls-235" d="M37.4,103.14c.96-.06,1.92-.12,2.88-.19-.34.92-1.6.31-1.97,1.19-.31-.21-.61-.42-.92-.63l-.14-.19.14-.18Z"/>
            <path class="cls-171" d="M37.4,103.14c0,.12,0,.25,0,.37-.35.62-.59,1.28-.53,2.01-.32-.17-.64-.35-.97-.52,0-.48,0-.96.01-1.44.14-.82.34-1.54,1.42-.96.02.18.04.36.07.54Z"/>
            <path class="cls-6" d="M40.79,107.97c.16,0,.32-.01.48-.02,0,.33,0,.65,0,.98-.16,0-.33,0-.49,0,0-.32,0-.64,0-.96Z"/>
            <path class="cls-209" d="M48.74,102.6c1.27.38,1.3,1.42,1.31,2.48-1.13.11-1.59-.63-1.94-1.52-.31-.34-.28-.69-.05-1.06.26-.15.48-.12.69.1Z"/>
            <path class="cls-85" d="M48.17,102.66c-.02.3-.04.6-.06.89-.67,0-.5.83-1,.99-.32-.47-.63-.95-.95-1.42.24-.48.74-.65,1.12-.97.17-.12.36-.18.57-.19.29.15.53.32.31.7Z"/>
            <path class="cls-300" d="M44.1,105.98c.06-2.27.12-4.54.17-6.81.25-.46.52-.84,1.1-.4.14.2.24.43.3.67.12.98.24,1.97-.27,2.89-.1.08-.2.15-.29.23-.82,1.09-.28,2.33-.39,3.5-.03.12-.04.25-.05.37-.19-.15-.38-.3-.57-.45Z"/>
            <path class="cls-67" d="M47.69,102.46c-.16,1.02-1.02.44-1.53.66-.35-.19-.7-.38-1.05-.58,0,0,.18.06.18.06.27-.32.39-.74.68-1.06.17-.13.36-.2.57-.23.21.01.4.07.58.18.35.22.12.8.58.96Z"/>
            <path class="cls-69" d="M41.76,106.96c.29-.03.59-.05.88-.08,0,0,0,0,0,0,.03.2.07.41.1.61-.15,0-.3-.02-.44-.04-.14.14-.29.17-.46.06-.02-.19-.05-.37-.07-.56Z"/>
            <path class="cls-153" d="M42.64,106.87c.19-.15.37-.29.56-.44-.19.15-.37.29-.56.44Z"/>
            <path class="cls-164" d="M33.95,94.77c0,.17.01.35.02.52,1.19,1.72.38,3.69.68,5.52.08.55.06,1.1.07,1.65,0,.21-.05.41-.16.59,0,0-.21.06-.21.06-.26.05-.52.11-.78.16-.03-2.84-.07-5.67-.1-8.51.08-.05.16-.11.24-.16.08.05.16.11.24.16Z"/>
            <path class="cls-144" d="M33,94.74c.14-1.13-.45-2.35.46-3.37,0,0-.01,0-.01,0,.68,1.14.67,2.28,0,3.42,0,0,.01-.01.01-.01-.16,0-.31,0-.46-.02Z"/>
            <path class="cls-72" d="M32.9,89.99c0,.28.02.57.02.85-.31-.15-.61-.3-.92-.45-.14,0-.28-.02-.43-.02,0-.29-.01-.58-.02-.88.45.17.89.34,1.34.5Z"/>
            <path class="cls-281" d="M34.55,103.06c-.06-.12-.09-.24-.11-.37.46-.75.33-1.68.74-2.45.15-.17.33-.26.56-.29.33.06.59.24.8.49.18.25.3.52.43.8.16.34.47.62.4,1.05,0,.11-.01.21-.04.31-.75-.08-.93.67-1.42.96-.45-.17-.9-.33-1.36-.5Z"/>
            <path class="cls-285" d="M55.43,88.92c1.08,2.04.2,4.22.5,6.32,0,.33,0,.67-.01,1-.32-.01-.65-.02-.97-.03,0-.33-.02-.65-.02-.98-.48-.54-.54-1.18-.42-1.86.39-1.12.21-2.3.38-3.44.08-.4.3-.72.56-1.01h0Z"/>
            <path class="cls-6" d="M52.97,100.64c-.16.16-.31.33-.47.49.18.77.83,1.66-.56,1.98-.47-.47-.39-1.08-.46-1.66-.11-2.07-.53-4.16.37-6.16.41-.31.83-.32,1.24,0,.15,1.79.36,3.58-.12,5.35Z"/>
            <path class="cls-247" d="M52.1,103.04c.62-.53.32-1.26.4-1.91.77,1.13.71,2.27.03,3.41-.17,0-.34,0-.5,0-.39-.17-.49-.51-.52-.89.03-.37.24-.57.59-.62Z"/>
            <path class="cls-177" d="M52.97,100.64v-5.37c.16-.12.32-.12.49,0-.24,1.78.57,3.66-.49,5.38Z"/>
            <path class="cls-153" d="M54.9,93.3c0,.64.02,1.29.02,1.93-.32,0-.63,0-.95-.01-.26-.23-.41-.52-.45-.86-.02-.34.05-.67.21-.97.15-.18.33-.28.56-.33.23,0,.43.09.6.24Z"/>
            <path class="cls-117" d="M53.97,94.29c0,.31,0,.62,0,.92-.17.01-.34.03-.52.04-.16,0-.33,0-.49,0-.31,0-.62.02-.93.03-.16-.16-.24-.35-.25-.58.07-.35.28-.57.63-.66.51.11,1.06.04,1.56.24Z"/>
            <path class="cls-43" d="M48.17,102.66c-.14-.18-.27-.36-.41-.54-.22,0-.35-.13-.38-.35-.06-.19-.12-.38-.18-.58-.04-.2-.05-.4-.06-.61-.01-.21,0-.41.02-.62.02-.21.05-.42.11-.63.03-.1.07-.2.11-.31.05-.1.1-.19.15-.29.37-.71,1-.84,1.72-.8.24.05.43.17.57.37.21.47.19.92-.11,1.35-.32.98-.64,1.96-.96,2.93-.19.02-.38.04-.58.06Z"/>
            <path class="cls-111" d="M51.04,101.87l-.02-.21c-.54-1.23-.21-2.66-.89-3.86-.74-.78-.42-1.55-.02-2.34.31-.45.69-.8,1.29-.8.26.15.38.37.36.66,0,2.05.01,4.1,0,6.15-.12.34-.08.96-.71.4Z"/>
            <path class="cls-56" d="M50.52,95.72c-.18.66-.87,1.33.02,1.98.43.82.36,1.51-.53,1.98-.1,0-.21,0-.31-.01-.05-.48-.1-.95-.15-1.43-.44-.88-.14-1.81-.18-2.71.53-.77.83-.24,1.16.2Z"/>
            <path class="cls-228" d="M50.01,99.67c.39-.6.61-1.25.53-1.98,1.03,1.22.25,2.65.48,3.96-.34-.66-.67-1.32-1.01-1.98Z"/>
            <path class="cls-36" d="M51.04,101.87c.17-.05.35-.1.52-.16.09-.11.18-.21.27-.32.03.13.06.27.09.4.06.41.12.83.18,1.24-.2.21-.39.42-.59.62-.72-.45-.94-1.03-.47-1.79Z"/>
            <path class="cls-215" d="M52.52,94.26c-.17.17-.34.35-.51.52-.17.22-.33.21-.49-.01h0c-.4-.39-.5-1.11-1.23-1.17-.3-.81,0-1.37.73-1.74.33-.49.65-.98.98-1.47,0,.17.01.34.02.52,1.04.43,1.01,1.41,1.19,2.29,0,.51-.2.88-.69,1.07Z"/>
            <path class="cls-81" d="M49.5,91.85c.06-.33.12-.67.19-1,.28.33.56.66.85,1-.45.79.06,1.78-.51,2.55-.29.06-.52-.02-.7-.25-.43-.8-.38-1.56.17-2.29Z"/>
            <path class="cls-6" d="M50.06,94.29c.07-.83-.31-1.75.48-2.44.16,0,.33,0,.49.01-.34.61-.57,1.25-.46,1.97.24.38.3.77-.2.93-.27.08-.33-.22-.3-.47Z"/>
            <path class="cls-163" d="M36.5,101.55c-.06-.28-.13-.56-.19-.84-.32-.97-.86-1.95.06-2.9,0,0,.05-.17.05-.17,1.44.34,3.02-.54,4.38.48-.02.22-.05.45-.07.67-.16-.01-.33-.02-.49-.03-.49.44-1.13.44-1.72.56-.53.13-.69.58-.87,1.01-.32.47-.24,1.31-1.14,1.22Z"/>
            <path class="cls-241" d="M50.06,94.29c.75.47.37-.27.5-.46,1.23-.6.86.41.96.95-.48.16-.79.5-1,.94-.3-.14-.6-.27-.9-.41-.21.23-.43.24-.64,0-1.57-.32-3.29.56-4.75-.58.35-.14.7-.28,1.05-.42.53-.52,1.18-.17,1.78-.26.58.08,1.17.21,1.76.17.29-.01.58.06.87.07.12,0,.25,0,.37,0Z"/>
            <path class="cls-22" d="M45.22,98.69c-.32.16-.63.31-.95.47-.19-2.78,1.86-1.03,2.86-1.4.13.22.14.45.02.67-.57.64-1.19.83-1.92.26Z"/>
            <path class="cls-93" d="M47.08,98.34c.02-.19.03-.39.05-.58.65-.02,1.29-.04,1.94-.06.15.08.21.17.19.29-.02.12-.05.18-.1.18-.77-.08-1.02.69-1.58.97-.34-.16-.53-.41-.5-.8Z"/>
            <path class="cls-81" d="M49.16,98.17c-.03-.15-.06-.31-.09-.47-.03-.8-.05-1.59-.08-2.39.21,0,.43,0,.64,0-.03.98-.05,1.95-.08,2.93-.13-.03-.26-.06-.39-.07Z"/>
            <path class="cls-242" d="M37.77,93.83c-.45.15-.91.29-1.36.44-.4-.63-.32-1.28-.07-1.94.03-1.15.07-2.29.1-3.44.65.09,1.4-.18,1.92.47.19,1.14.71,2.28.09,3.44l-.68,1.03Z"/>
            <path class="cls-289" d="M38.45,92.8c-.16-1.14-.99-2.27-.09-3.44.47.03.94.05,1.41.08,0,.14.05.28.13.4.07,1.04.27,2.1-.53,2.98-.3,0-.61,0-.91-.01Z"/>
            <path class="cls-78" d="M39.36,92.81c.36-.96-.58-2.15.53-2.98.14,0,.27.04.39.1.41,1.29.4,2.58,0,3.87-.1.08-.21.12-.33.12-.5-.21-.68-.59-.59-1.11Z"/>
            <path class="cls-62" d="M40.29,93.79c0-1.29,0-2.58,0-3.87,1.04,1.18.3,2.57.45,3.85,0,0-.22.02-.22.02h-.22Z"/>
            <path class="cls-44" d="M36.34,92.33c.02.65.05,1.29.07,1.94-.03.14-.04.29-.04.44,0,0-.21.06-.21.06,0,0-.21-.03-.21-.03.02-.79.03-1.59.05-2.38.11-.01.22-.02.34-.03Z"/>
            <path class="cls-6" d="M35.75,100.12h-.2c-.26-.16-.45-.38-.57-.66-.25-1.45-.56-2.9.47-4.2.13,0,.25.01.38.03.05.81.1,1.62.16,2.43.11.82.52,1.66-.23,2.4Z"/>
            <path class="cls-11" d="M35.75,100.12c.08-.8.15-1.6.23-2.4.14,0,.27.03.39.09-.02.97-.04,1.93-.06,2.9-.19-.2-.38-.39-.56-.59Z"/>
            <path class="cls-13" d="M47.1,94.27c-.6.48-1.22,0-1.82.04,0-1.64-.68-3.35.47-4.88.61.03,1.23.05,1.84.08.86.26.94.79.51,1.48-.21.21-.47.37-.74.49-.17.07-.35.11-.52.15-.2.18-.6.37.05.5.2,0,.38.05.56.11.3.13.55.31.75.56.27.96.09,1.58-1.08,1.46Z"/>
            <path class="cls-12" d="M47.1,94.27c.36-.42,1.62-.49.57-1.46-.16-.14-.27-.31-.33-.51-.13-.3-.12-.61,0-.91.06-.2.18-.37.34-.51.91-.51.06-.92-.08-1.37.31-.65.9-.58,1.47-.57.02.97.05,1.94.07,2.91.28.98.36,1.96-.06,2.94-.68-.08-1.53.5-1.97-.5Z"/>
            <path class="cls-158" d="M49.07,94.78c.02-.98.04-1.96.06-2.93.13,0,.25,0,.38,0,.06.81.12,1.63.19,2.44-.1.3-.23.56-.62.49Z"/>
            <path class="cls-130" d="M55.44,88.92c-.01.33-.03.66-.04.98-.11.13-.23.25-.35.36-.2.18-.4.34-.62.5-.24.18-.49.29-.79.27-.43-.12-.72-.37-.81-.82.11-.31.24-.59.64-.32.61-.34.45-.94.51-1.47.15,0,.3,0,.44,0,.22.4.59.5,1.01.5Z"/>
            <path class="cls-296" d="M53.47,89.9l-.48.49c.57.97.91,1.94,0,2.91-.77-.62-.33-1.72-.96-2.39.32-.51.64-1.02.96-1.54.16.18.33.35.49.53Z"/>
            <path class="cls-178" d="M34.43,101.59c-1.07-2.03-.23-4.21-.46-6.3.33-.07.65-.59.99-.01.41,1.41.11,2.85.2,4.27-.27.67.64,1.77-.73,2.04Z"/>
            <path class="cls-102" d="M33.45,94.78c0-1.14,0-2.28,0-3.42.33.16.66.32.99.48,0,1,.11,2.02-.48,2.92-.17,0-.33,0-.5.01Z"/>
            <path class="cls-253" d="M34.97,99.76c0-1.5,0-2.99-.01-4.49.16,0,.32-.01.48,0-.02,1.5-.05,3-.07,4.5l-.2.13s-.2-.13-.2-.13Z"/>
            <path class="cls-221" d="M41.83,107.52c.15-.04.3-.06.46-.06-.15.15-.3.3-.45.45-.03-.13-.04-.26,0-.39Z"/>
            <path class="cls-147" d="M39.79,102.05c-.52-.01-1.12.32-1.49-.33-.36-.29-.68-.6-.57-1.13.29-.5.67-.9,1.2-1.16.49-.1.88.01,1.08.51-.25.68.25,1.44-.21,2.11Z"/>
            <path class="cls-98" d="M37.86,100.64c.15.36.29.72.44,1.08-.31.19-.62.37-.93.56-.44-.06-.8-.21-.86-.73.3-.47.6-.94.89-1.41.22.1.37.27.46.49Z"/>
            <path class="cls-215" d="M39.79,102.05c.18-.63-.56-1.28.04-1.91.14-.23.28-.24.42,0,.08.81.19,1.63-.13,2.42-.11-.17-.22-.34-.32-.51Z"/>
            <path class="cls-112" d="M40.25,100.14h-.21s-.21,0-.21,0c-.16-.51-.56-.52-.99-.49-.53-.08-1.12-.08-.95-.89.79-.41,1.57-.19,2.36,0,0,.46,0,.92,0,1.38Z"/>
            <path class="cls-51" d="M47.55,101.55c.07.19.13.38.2.57,0,.12-.03.23-.06.35-.44-.13-.7-.36-.51-.86,0,0,.17-.17.17-.17,0,0,.21.12.21.12Z"/>
            <path class="cls-119" d="M46.14,101.87c-.06.5-.39.7-.86.74-.01-1.15-.03-2.29-.04-3.44.45-.09.73.16.97.49.48.75.43,1.49-.07,2.21Z"/>
            <path class="cls-15" d="M45.75,99.8c-.17-.21-.34-.42-.52-.62-.05-.16-.05-.32-.02-.48.62-.12,1.24-.24,1.86-.35.17.27.33.53.5.8,0,0,0-.02,0-.02-.46.62-1.09.79-1.83.69Z"/>
            <path class="cls-286" d="M45.75,99.8c.47-.61,1.15-.64,1.83-.69.01.18.02.37.03.55-.3.25-.46.56-.49.95-.01.19-.05.37-.11.55-.09.17-.18.33-.27.49-.2.07-.41.15-.61.22-.14-.69.16-1.46-.38-2.07Z"/>
            <path class="cls-141" d="M46.75,101.65c-.07-.15-.1-.3-.08-.47.11-.07.22-.14.33-.21.1.08.2.16.3.25-.05.12-.11.23-.16.35,0,0,.05.03.05.03-.14.04-.28.06-.43.05Z"/>
            <path class="cls-140" d="M34.97,99.76c.13-.07.27-.07.4,0,0,.15.05.26.17.35-.06.98.02,2.03-1.1,2.57-.88-.35-.06-.73-.01-1.09.72-.45.41-1.2.54-1.83Z"/>
            <path class="cls-177" d="M54.91,89.9c.16,0,.32,0,.49,0-.15,1.14.49,2.39-.5,3.4-.14,0-.29,0-.43.01-.17-.18-.25-.4-.26-.65.08-.96.24-1.9.71-2.76Z"/>
            <path class="cls-164" d="M51.52,94.77c.16,0,.33,0,.49.01,0,.17.01.34.02.51-.04,2.17-.07,4.34-.11,6.51-.13,0-.25-.03-.36-.09-.01-2.31-.03-4.63-.04-6.94Z"/>
            <path class="cls-6" d="M52.98,93.3c0-.97,0-1.94,0-2.91.33.15.65.3.98.45.36.82.19,1.65.01,2.48,0,.32,0,.65-.01.97-.49.31-.97.31-1.45-.04.15-.32.31-.64.46-.96Z"/>
            <path class="cls-288" d="M53.98,93.32c-.58-.82-.55-1.65-.01-2.48.16-.16.31-.32.47-.48.39.83.37,1.66.02,2.49,0,.15.01.3,0,.45-.16,0-.33,0-.49.01Z"/>
            <path class="cls-275" d="M46.7,100.43c-.03-.66.33-.85.92-.77,0,.17,0,.33-.01.5-.12.14-.23.29-.31.46-.08.05-.15.11-.23.16-.19-.04-.32-.16-.37-.35Z"/>
            <path class="cls-254" d="M47.11,100.47c.16-.1.33-.2.49-.31.05.15.06.3,0,.45-.25.24-.41.19-.5-.14Z"/>
            <path class="cls-128" d="M47.11,100.47c.17.05.33.09.5.14,0,.19-.01.38-.02.57-.15.12-.31.12-.47.02l.03-.21c0-.1,0-.19,0-.29.01-.08,0-.17-.04-.24Z"/>
            <path class="cls-6" d="M47.12,101.2c.15-.08.31-.09.47-.02.02.13,0,.25-.04.37,0,0-.21.04-.21.04,0,0-.21-.01-.21-.02,0-.13,0-.25,0-.37Z"/>
            <path class="cls-3" d="M37.89,98.76c.32.3.64.6.95.89.04.7-.28,1.03-.98.99-.15-.16-.31-.33-.46-.49.19-.45-.27-1.14.49-1.39Z"/>
            <path class="cls-9" d="M46.68,92.4c-.04.29-.03.87-.29.76-1.27-.53.19-1.46-.23-2.16.07-.02.18-.08.21-.05.12.09.21.22.31.33.26.37.26.74,0,1.11Z"/>
            <path class="cls-149" d="M46.68,92.4c0-.37,0-.74,0-1.11.15.04.31.05.46.04.06.08.12.15.18.23.02.19.02.39,0,.58-.06.08-.12.15-.18.23h-.24s-.23.03-.23.03Z"/>
            <path class="cls-248" d="M47.66,90.88c-.03.15-.06.29-.11.43-.11.26-.26.28-.45.07,0,0,.04-.06.04-.06.17-.15.34-.3.52-.45Z"/>
            <path class="cls-248" d="M47.55,92.38c.05.14.09.28.11.43-.17-.15-.34-.29-.51-.44,0,0-.04-.06-.04-.06.18-.22.33-.18.44.07Z"/>
            <path class="cls-301" d="M47.55,92.38c-.15-.02-.29-.05-.44-.07,0-.31,0-.62,0-.93.15-.02.3-.04.45-.07,0,.36,0,.71,0,1.07Z"/>
            <path class="cls-6" d="M54.46,92.86c0-.83-.01-1.66-.02-2.49.16-.15.32-.31.48-.46-.12.99.42,2.08-.46,2.95Z"/>
            <path class="cls-282" d="M47.15,100.71c-.01.1-.01.19,0,.29-.16.06-.33.12-.49.19,0-.25.02-.5.03-.76.15.09.3.19.46.28Z"/>
          </g>
        </g>
        <g>
          <path class="cls-304" d="M37.55,21.25c2.17,2.17,5.37,13.25,5.37,13.25,0,0-11.07-3.2-13.25-5.37-2.17-2.17-2.17-5.7,0-7.88s5.7-2.17,7.88,0Z"/>
          <path class="cls-304" d="M47.98,21.25c-2.17,2.17-5.37,13.25-5.37,13.25,0,0,11.07-3.2,13.25-5.37,2.17-2.17,2.17-5.7,0-7.88-2.17-2.17-5.7-2.17-7.88,0Z"/>
          <path class="cls-304" d="M54.23,40.66h0c-2.51,1.06-5.42.45-7.29-1.54l-4.33-4.62-2.7,7.54c-.97,2.7-3.85,4.19-6.61,3.43h0"/>
        </g>
      </g>
      <g>
        <path class="cls-159" d="M26.65,173.33c1.4.86,3.46,1.58,5.62,1.58,3.2,0,5.08-1.69,5.08-4.14,0-2.27-1.3-3.56-4.57-4.82-3.96-1.4-6.41-3.46-6.41-6.88,0-3.78,3.13-6.59,7.85-6.59,2.48,0,4.28.58,5.36,1.19l-.86,2.56c-.79-.43-2.41-1.15-4.61-1.15-3.31,0-4.57,1.98-4.57,3.64,0,2.27,1.48,3.38,4.82,4.68,4.1,1.58,6.19,3.56,6.19,7.13,0,3.74-2.77,6.98-8.5,6.98-2.34,0-4.9-.68-6.19-1.55l.79-2.63Z"/>
        <path class="cls-159" d="M44.83,153.21c1.58-.32,3.85-.5,6.01-.5,3.35,0,5.51.61,7.02,1.98,1.22,1.08,1.91,2.74,1.91,4.61,0,3.2-2.02,5.33-4.57,6.19v.11c1.87.65,2.99,2.38,3.56,4.9.79,3.38,1.37,5.72,1.87,6.66h-3.24c-.4-.68-.94-2.77-1.62-5.79-.72-3.35-2.02-4.61-4.86-4.72h-2.95v10.51h-3.13v-23.94ZM47.96,164.26h3.2c3.35,0,5.47-1.83,5.47-4.61,0-3.13-2.27-4.5-5.58-4.54-1.51,0-2.59.14-3.1.29v8.85Z"/>
      </g>
    </g>
  </g>
</svg>