<?xml version="1.0" encoding="UTF-8"?>
<svg id="Calque_2" data-name="Calque 2" xmlns="http://www.w3.org/2000/svg" xmlns:xlink="http://www.w3.org/1999/xlink" viewBox="0 0 85.81 177.5">
  <defs>
    <style>
      .cls-1 {
        fill: #fec300;
      }

      .cls-1, .cls-2, .cls-3, .cls-4 {
        stroke-width: 0px;
      }

      .cls-2, .cls-5 {
        fill: none;
      }

      .cls-3 {
        fill: #fff;
      }

      .cls-4 {
        fill: #c50b1e;
      }

      .cls-6 {
        clip-path: url(#clippath);
      }

      .cls-5 {
        stroke: #fff;
        stroke-linecap: round;
        stroke-miterlimit: 10;
        stroke-width: 2px;
      }
    </style>
    <clipPath id="clippath">
      <path class="cls-2" d="M48.36,48.74l11.94,14.99c.79.99,1.83,1.74,3.01,2.19l17.95,6.73c4.2,1.57,5.85,6.64,3.37,10.39l-10.57,15.99c-.7,1.05-1.09,2.28-1.15,3.54l-.85,19.15c-.2,4.48-4.51,7.62-8.84,6.42l-18.48-5.11c-1.22-.34-2.5-.34-3.72,0l-18.48,5.11c-4.32,1.2-8.64-1.94-8.84-6.42l-.85-19.15c-.06-1.26-.45-2.49-1.15-3.54l-10.57-15.99c-2.47-3.74-.83-8.81,3.37-10.39l17.95-6.73c1.18-.44,2.22-1.2,3.01-2.19l11.95-14.99c2.79-3.51,8.13-3.51,10.92,0Z"/>
    </clipPath>
  </defs>
  <g id="OBJECTS">
    <g>
      <g>
        <line class="cls-5" x1="42.77" y1="45.67" x2="42.77" y2="1"/>
        <g class="cls-6">
          <g>
            <path class="cls-1" d="M107.01,66.88v40.74c-.16.05-.32.1-.48.15-22.75-.01-45.51-.04-68.26-.04-17.98,0-35.96.03-53.94.04-.16-.05-.32-.1-.48-.15,0-13.58,0-27.16,0-40.74.16-.05.32-.1.48-.15,18.8.01,37.6.04,56.4.04,21.93,0,43.87-.02,65.8-.04.16.05.32.1.48.15Z"/>
            <path class="cls-4" d="M106.53,66.73c-21.93.01-43.87.04-65.8.04-18.8,0-37.6-.02-56.4-.04-.16-.1-.32-.2-.48-.3,0-6.19.05-12.39-.04-18.58-.02-1.34.27-1.61,1.61-1.6,25.45.05,50.9.04,76.36.04,14.55,0,29.11.02,43.66-.04,1.34,0,1.63.27,1.61,1.61-.09,6.19-.04,12.39-.04,18.58-.16.1-.32.2-.48.3Z"/>
            <path class="cls-4" d="M-15.66,107.77c17.98-.01,35.96-.04,53.94-.04,22.75,0,45.51.03,68.26.04.16.1.32.2.48.3,0,6.11-.06,12.22.04,18.33.02,1.48-.21,1.87-1.8,1.86-14.46-.08-28.92-.05-43.38-.05-25.42,0-50.83-.02-76.25.05-1.59,0-1.83-.39-1.8-1.86.1-6.11.04-12.22.04-18.33.16-.1.32-.2.48-.3Z"/>
          </g>
        </g>
        <g>
          <path class="cls-5" d="M37.55,21.25c2.17,2.17,5.37,13.25,5.37,13.25,0,0-11.07-3.2-13.25-5.37-2.17-2.17-2.17-5.7,0-7.88s5.7-2.17,7.88,0Z"/>
          <path class="cls-5" d="M47.98,21.25c-2.17,2.17-5.37,13.25-5.37,13.25,0,0,11.07-3.2,13.25-5.37,2.17-2.17,2.17-5.7,0-7.88-2.17-2.17-5.7-2.17-7.88,0Z"/>
          <path class="cls-5" d="M54.23,40.66h0c-2.51,1.06-5.42.45-7.29-1.54l-4.33-4.62-2.7,7.54c-.97,2.7-3.85,4.19-6.61,3.43h0"/>
        </g>
      </g>
      <g>
        <path class="cls-3" d="M40.47,165.77h-9.43v8.75h10.51v2.63h-13.64v-24.26h13.1v2.63h-9.97v7.67h9.43v2.59Z"/>
        <path class="cls-3" d="M45.19,173.33c1.4.86,3.46,1.58,5.62,1.58,3.2,0,5.08-1.69,5.08-4.14,0-2.27-1.3-3.56-4.57-4.82-3.96-1.4-6.41-3.46-6.41-6.88,0-3.78,3.13-6.59,7.85-6.59,2.48,0,4.28.58,5.36,1.19l-.86,2.56c-.79-.43-2.41-1.15-4.61-1.15-3.31,0-4.57,1.98-4.57,3.64,0,2.27,1.48,3.38,4.82,4.68,4.1,1.58,6.19,3.56,6.19,7.13,0,3.74-2.77,6.98-8.5,6.98-2.34,0-4.9-.68-6.19-1.55l.79-2.63Z"/>
      </g>
    </g>
  </g>
</svg>